<?xml version="1.0" encoding="utf-8"?>
<!-- Generator: Adobe Illustrator 28.1.0, SVG Export Plug-In . SVG Version: 6.00 Build 0)  -->
<svg version="1.1" id="Layer_1" xmlns="http://www.w3.org/2000/svg" xmlns:xlink="http://www.w3.org/1999/xlink" x="0px" y="0px"
	 viewBox="0 0 585 684.3" style="enable-background:new 0 0 585 684.3;" xml:space="preserve">
<style type="text/css">
	.st0{fill:#E86C59;}
	.st1{fill:#B49377;}
	.st2{fill:#FFCC5D;}
	.st3{fill:#C2493D;}
	.st4{stroke:#000000;stroke-width:31;stroke-miterlimit:10;}
	.st5{fill:#FFCC5D;stroke:#000000;stroke-width:31;stroke-miterlimit:10;}
	.st6{fill:#444444;}
	.st7{fill:#563331;}
	.st8{fill:#FF0000;}
	.st9{fill:#FFFFFF;}
</style>
<g>
	<polygon class="st0" points="292.5,127.1 127,292.6 127,596 458,596 458,292.6 	"/>
	<polygon class="st1" points="71.8,651.2 513.2,651.2 513.2,596 71.8,596 	"/>
	<path d="M361.4,334c0-38.1-30.9-69-69-69s-69,30.9-69,69s30.9,69,69,69S361.4,372,361.4,334"/>
	<path class="st2" d="M347.6,527.1H237.3c-7.6,0-13.8-6.2-13.8-13.8c0-7.6,6.2-13.8,13.8-13.8h110.3c7.6,0,13.8,6.2,13.8,13.8
		C361.4,520.9,355.3,527.1,347.6,527.1"/>
	<polygon class="st3" points="292.5,44.3 44.2,292.6 85.6,334 292.5,127.1 499.4,334 540.8,292.6 	"/>
</g>
<g>
	<g>
		<polygon class="st0" points="111.5,611.5 111.5,286.2 292.5,105.2 473.5,286.2 473.5,611.5 		"/>
		<path d="M292.5,127.1L458,292.6V596H127V292.6L292.5,127.1 M292.5,83.2l-21.9,21.9L105.1,270.7l-9.1,9.1v12.8V596v31h31h331h31
			v-31V292.6v-12.8l-9.1-9.1L314.4,105.2L292.5,83.2L292.5,83.2z"/>
	</g>
	<g>
		<rect x="56.3" y="580.5" class="st1" width="472.4" height="86.2"/>
		<path d="M513.2,596v55.2H71.8V596H513.2 M544.2,565h-31H71.8h-31v31v55.2v31h31h441.4h31v-31V596V565L544.2,565z"/>
	</g>
	<path class="st4" d="M361.4,334c0-38.1-30.9-69-69-69s-69,30.9-69,69s30.9,69,69,69S361.4,372,361.4,334"/>
	<path class="st5" d="M347.6,527.1H237.3c-7.6,0-13.8-6.2-13.8-13.8c0-7.6,6.2-13.8,13.8-13.8h110.3c7.6,0,13.8,6.2,13.8,13.8
		C361.4,520.9,355.3,527.1,347.6,527.1"/>
	<g>
		<polygon class="st3" points="292.5,149 85.6,355.9 22.3,292.6 292.5,22.4 562.7,292.6 499.4,355.9 		"/>
		<path d="M292.5,44.3l248.3,248.3L499.4,334L292.5,127.1L85.6,334l-41.4-41.4L292.5,44.3 M292.5,0.4l-21.9,21.9L22.3,270.7
			L0.4,292.6l21.9,21.9l41.4,41.4l21.9,21.9l21.9-21.9l185-185l185,185l21.9,21.9l21.9-21.9l41.4-41.4l21.9-21.9l-21.9-21.9
			L314.4,22.4L292.5,0.4L292.5,0.4z"/>
	</g>
</g>
<g>
	<g>
		<polygon class="st6" points="292.5,127.1 127,292.6 127,596 458,596 458,292.6 		"/>
	</g>
	<g>
		<rect x="71.8" y="596" class="st1" width="441.4" height="55.2"/>
	</g>
	<path d="M361.4,334c0-38.1-30.9-69-69-69s-69,30.9-69,69s30.9,69,69,69S361.4,372,361.4,334"/>
	<path class="st2" d="M347.6,527.1H237.3c-7.6,0-13.8-6.2-13.8-13.8c0-7.6,6.2-13.8,13.8-13.8h110.3c7.6,0,13.8,6.2,13.8,13.8
		C361.4,520.9,355.3,527.1,347.6,527.1"/>
	<g>
		<polygon class="st7" points="292.5,44.3 44.2,292.6 85.6,334 292.5,127.1 499.4,334 540.8,292.6 		"/>
	</g>
</g>
<g id="at0nmj_00000068672482774193856760000001915009359028179077_">
	<g>
		<g>
			<path class="st8" d="M49.5,215.3c-0.9,0-1.7-0.3-2.4-0.8c-4.2-3.1-7.3-7.5-9.2-13.2c-0.4-1.2-0.6-2.4-0.8-3.4
				c-0.1-0.4-0.2-0.8-0.3-1.3c-0.1-0.3-0.1-0.6-0.1-0.9V192c0-0.4,0-0.7,0.1-1.1c0-0.1,0.1-0.4,0.1-0.4c0.4-3.4,1.6-6.6,3.5-9.9
				C53,159.3,99,80.5,99,80.5c8.2-14.1,16.4-28.1,24.6-42.2c3.8-6.4,9.3-10.5,16.6-12.2c0.7-0.2,1.5-0.3,2.2-0.4l0.9-0.2
				c0.2,0,0.5-0.1,0.7-0.1h3.6c0.4,0,0.7,0,1.1,0.1c0.1,0,0.3,0.1,0.4,0.1l0,0c7.7,1.1,13.7,4.9,17.9,11.1c1.8,2.8,3.4,5.6,5,8.4
				c0.6,1,1.2,2.1,1.8,3.1l77.3,132.4c1.6,2.8,2.8,5.9,3.3,9.1c0,0.3,0.1,0.5,0.2,0.8l0.1,0.5c0.1,0.3,0.1,0.5,0.1,0.8v3.6
				c0,0.3,0,0.6-0.1,0.8l-0.1,0.4c0,0.2-0.1,0.3-0.1,0.5c-1.1,7.2-4.5,13-10.2,17.2c-0.7,0.5-1.5,0.8-2.4,0.8H49.5z M180.7,191.6
				L180.7,191.6z M112.7,148.6c2.6,0.2,5.1,1,7.7,2.4c6.8,3.6,13.6,7.2,20.3,10.9c10,5.3,20,10.6,30,15.9c4.6,2.4,7.7,6.2,9.2,11.1
				l0.2,0.8c0.2,0.6,0.4,1.2,0.6,1.8c0,0.1,0.1,0.1,0.1,0.1c0,0,0,0,0.1,0c0.7-0.2,1.4-0.4,2.1-0.6c0.1,0,0.1,0,0.1-0.1
				c0,0,0-0.1,0-0.1c0-0.2-0.1-0.4-0.2-0.6c-0.1-0.3-0.2-0.7-0.3-1c-1.1-4.1,1-8.1,5-9.6c0.4-0.1,0.7-0.2,1.1-0.4
				c0.2-0.1,0.4-0.1,0.7-0.2c-0.1-0.8-0.4-1.5-0.7-2.3c-0.7,0.2-1.4,0.4-2.3,0.7c-2,0.7-4,1-6,1c-3.1,0-6.2-0.8-9.2-2.4
				c-5.4-2.9-10.9-5.8-16.3-8.7l-17.6-9.4c-5.5-2.9-11-5.8-16.5-8.8c-4.4-2.4-7.4-6-9-10.8c-0.1-0.4-0.2-0.8-0.4-1.2
				c-0.2-0.6-0.4-1.2-0.6-1.8c-0.8,0.2-1.6,0.4-2.2,0.6c-0.1,0-0.1,0-0.1,0.1c0,0,0,0.1,0,0.2c1.7,6.3,0,9.5-6.1,11.6
				c-0.1,0-0.2,0.1-0.2,0.1c0,0.1,0,0.1,0,0.2c0.1,0.3,0.2,0.6,0.3,0.8l0.2,0.6c0.1,0.3,0.2,0.5,0.2,0.6c0.2,0,0.4-0.1,0.7-0.1
				c1.5-0.4,3.1-0.8,4.5-1.2c0.6-0.2,1.3-0.3,1.9-0.5c0.3-0.1,0.6-0.1,1-0.1C111.7,148.3,112.2,148.4,112.7,148.6z M108.5,190.9
				c0,0,0.1,0,0.2,0.1c0.7,0.2,1.4,0.4,2.1,0.6c0,0,0,0,0,0c0,0,0,0,0.1-0.1c0.2-0.6,0.4-1.2,0.6-1.8c1.4-5.5,4.8-9.6,10.1-12.3
				c4.3-2.2,8.7-4.5,12.9-6.8c-0.6-0.3-1.2-0.6-1.8-1c-0.1-0.1-0.2-0.1-0.2-0.1c0,0-0.1,0-0.3,0.1c-2.6,1.4-5.2,2.8-7.8,4.1
				c-1.5,0.8-2.9,1.5-4.4,2.3c-2.8,1.5-5.8,2.3-8.7,2.3c-1.1,0-2.2-0.1-3.4-0.3c-1.2-0.2-2.3-0.6-3.4-0.9c-0.5-0.2-1.1-0.3-1.6-0.5
				l-0.1,0c-0.2,0.7-0.5,1.5-0.6,2.2c0,0,0,0.1,0,0.1c0,0,0.1,0,0.1,0.1c0.2,0.1,0.4,0.1,0.6,0.2c0.5,0.1,0.9,0.3,1.3,0.5
				c3.2,1.2,5,4.2,5,7.8c0,0.4-0.1,0.7-0.1,1.1l-0.6,2.1C108.5,190.8,108.5,190.8,108.5,190.9z M157.2,156.3
				c0.6,0.3,1.1,0.6,1.7,0.9c0.2,0.1,0.2,0.1,0.3,0.1c0,0,0.1,0,0.3-0.1c4.2-2.3,8.4-4.5,12.5-6.6c2.7-1.4,5.5-2.1,8.3-2.1
				c1.8,0,3.6,0.3,5.4,0.8l1,0.3c0.6,0.2,1.2,0.4,1.9,0.5c0.5-0.7,0.7-1.4,0.7-2.3c-0.1-0.1-0.4-0.2-0.8-0.3c-2.5-0.7-4.3-2.1-5.4-4
				c-1-1.9-1.2-4.2-0.4-6.7c0.1-0.2,0.1-0.3,0.2-0.5c0-0.1,0.1-0.2,0.1-0.3c0,0,0,0,0,0c-0.6-0.3-1.3-0.5-1.9-0.7
				c-0.1,0-0.1,0-0.2-0.1c-0.1,0-0.1,0-0.2,0c-0.2,0.7-0.5,1.4-0.7,2.1c-1.5,5.3-4.8,9.3-9.8,11.9
				C165.8,151.7,161.4,154,157.2,156.3z M146,84.4c-1.3,0-2.6,0.1-3.9,0.3c-9.7,1.6-16.3,7.1-19.5,16.3c-3.1,9-1.3,17.4,5.4,24.8
				c2.4,2.7,3.6,5.6,3.4,9c0,0.4,0,0.8,0,1.3l0,1.4c0,0.6,0,1.2,0,1.8c0,0.6,0,0.8,0.8,1.1c1.4,0.6,2.8,1.2,4.3,1.9
				c1.6,0.7,3.2,1.4,4.9,2.1c1.5,0.6,3,1,4.4,1c1.5,0,2.9-0.3,4.4-1c1.9-0.8,3.8-1.7,5.7-2.5l3.5-1.5c0.7-0.3,0.7-0.4,0.7-1
				c0-0.7,0-1.4,0-2c0-0.9,0-1.8,0-2.6c-0.1-3.3,1.1-6.3,3.4-8.8c5.2-5.6,7.4-12,6.6-19.5C168.9,94.1,158.3,84.4,146,84.4z"/>
			<path d="M147.7,29.5c0.3,0.1,0.5,0.2,0.8,0.2c6.5,0.9,11.6,3.9,15.2,9.4c2.4,3.7,4.5,7.5,6.7,11.3
				c25.8,44.1,51.5,88.3,77.3,132.4c1.4,2.4,2.3,5,2.8,7.7c0.1,0.5,0.2,1,0.3,1.4v3.6c-0.1,0.4-0.2,0.7-0.2,1.1
				c-1,6.1-3.8,11-8.6,14.6H49.5c-3.5-2.6-6.1-6.4-7.8-11.2c-0.5-1.4-0.7-2.8-1-4.3V192c0.1-0.3,0.2-0.5,0.2-0.8
				c0.4-3.1,1.4-5.9,3-8.6c16.7-28.6,33.4-57.2,50.1-85.8c11-18.8,22-37.7,33-56.5c3.2-5.5,7.9-8.9,14-10.3c1-0.2,2-0.4,3-0.6H147.7
				 M145.8,149.4c2,0,4-0.4,6-1.3c3.1-1.3,6.2-2.7,9.2-4c2.1-0.9,3.1-2.5,3.1-4.8c0-1.6,0-3.1,0-4.7c-0.1-2.3,0.7-4.2,2.3-6
				c5.9-6.4,8.6-13.9,7.7-22.6c-1.5-14.6-13.9-25.6-28.1-25.6c-1.5,0-3,0.1-4.6,0.4c-11.1,1.8-18.9,8.3-22.6,18.9
				c-3.7,10.7-1.4,20.4,6.2,28.8c1.6,1.8,2.5,3.7,2.4,6.2c0,0.7,0,1.4,0,2.1c0,0.8,0,1.6,0,2.4c-0.1,2.4,1.1,4,3.2,4.9
				c3.1,1.3,6.1,2.7,9.1,4C141.8,149,143.8,149.4,145.8,149.4 M102.8,154.2c0.6,0,1.2-0.1,1.9-0.3c2.1-0.6,4.2-1.1,6.4-1.6
				c0,0.1,0,0.2,0.1,0.3c0.1,0,0.1,0,0.2,0c2.5,0,4.9,0.8,7.1,2c6.8,3.6,13.6,7.3,20.3,10.9c10,5.3,20,10.6,30,15.9
				c3.6,1.9,6,4.8,7.2,8.7c0.3,0.9,0.5,1.8,0.8,2.7c0.6,1.8,2.1,2.8,3.8,2.8c0.4,0,0.8-0.1,1.2-0.2c0.8-0.2,1.5-0.4,2.3-0.7
				c2.2-0.7,3.3-2.8,2.7-5c-0.1-0.5-0.3-1.1-0.5-1.6c-0.5-2.1,0.5-4.1,2.5-4.8c0.6-0.2,1.2-0.4,1.8-0.6c2-0.7,3-2.7,2.5-4.7
				c-0.2-0.9-0.5-1.8-0.8-2.7c-0.6-1.7-2.1-2.7-3.7-2.7c-0.4,0-0.7,0-1.1,0.1c-0.8,0.2-1.7,0.5-2.5,0.7c-1.6,0.5-3.2,0.8-4.7,0.8
				c-2.5,0-4.9-0.7-7.3-2c-6.9-3.7-13.9-7.4-20.8-11.1c-9.9-5.3-19.8-10.5-29.6-15.7c-3.5-1.9-5.8-4.7-7-8.5c-0.3-1-0.6-2.1-1-3.1
				c-0.6-1.7-2.1-2.7-3.7-2.7c-0.4,0-0.7,0-1.1,0.1c-0.8,0.2-1.7,0.5-2.5,0.8c-2.2,0.8-3.2,2.8-2.6,5.1c1.2,4.2,0.6,5.4-3.6,6.8
				c-2.4,0.8-3.4,2.8-2.7,5.2c0.1,0.5,0.3,1,0.5,1.5C99.6,153.1,100.8,154.2,102.8,154.2 M159.1,161.4c0.7,0,1.5-0.2,2.3-0.6
				c4.1-2.2,8.3-4.4,12.4-6.6c2.1-1.1,4.3-1.6,6.5-1.6c1.4,0,2.8,0.2,4.3,0.6c1,0.3,2.1,0.6,3.1,0.9c0.4,0.1,0.8,0.2,1.1,0.2
				c1.1,0,2-0.4,2.8-1.3c1.3-1.6,1.8-3.5,1.7-5.5c-0.1-2.2-1.7-3.1-3.6-3.7c-3-0.9-3.9-2.7-3.1-5.7c0.1-0.3,0.2-0.7,0.3-1
				c0.4-1.7-0.2-3.6-1.7-4.4c-1.4-0.7-2.9-1.1-3.8-1.4c0,0-0.1,0-0.1,0c-2.3,0-3.7,1-4.3,2.6c-0.3,0.8-0.5,1.7-0.8,2.5
				c-1.2,4.3-3.8,7.4-7.8,9.4c-5.8,3-11.6,6.1-17.3,9.2c-0.5,0.2-1,0.8-1,1.3c0,0.4,0.6,1,1,1.3c1.9,1.1,3.9,2.1,5.8,3.2
				C157.6,161.2,158.4,161.4,159.1,161.4 M111.3,174.4c-0.9,0-1.7-0.1-2.6-0.3c-1.6-0.3-3.2-0.9-4.7-1.3c-0.4-0.1-0.7-0.1-1.1-0.1
				c-1.7,0-3.1,1-3.7,2.6c-0.3,0.9-0.6,1.7-0.8,2.6c-0.6,2.2,0.5,4.2,2.7,4.9c0.6,0.2,1.2,0.4,1.8,0.6c1.6,0.6,2.5,2,2.5,4.1
				c-0.1,0.4-0.4,1.3-0.6,2.1c-0.6,2.3,0.5,4.4,2.8,5.1c0.8,0.2,1.5,0.5,2.3,0.7c0.4,0.1,0.7,0.1,1.1,0.1c1.7,0,3.2-1,3.8-2.7
				c0.2-0.7,0.5-1.4,0.7-2.1c1.2-4.5,3.9-7.7,8-9.8c5.7-2.9,11.4-6,17-9.1c0.5-0.3,1.1-0.9,1.1-1.3c0-0.4-0.6-1-1.1-1.3
				c-1.9-1.1-3.9-2.1-5.8-3.2c-0.7-0.4-1.4-0.6-2.1-0.6c-0.7,0-1.4,0.2-2.2,0.6c-4,2.2-8.1,4.3-12.1,6.5
				C115.9,173.7,113.7,174.4,111.3,174.4 M147.7,21.5h-3.6c-0.5,0-1,0-1.5,0.1c-0.3,0.1-0.6,0.1-0.9,0.2c-0.7,0.1-1.6,0.3-2.4,0.5
				c-8.3,1.9-14.9,6.7-19.2,14.1c-8.2,14.1-16.4,28.1-24.6,42.2l-8.4,14.3L74.3,115c-12.4,21.2-24.8,42.4-37.2,63.7
				c-2.1,3.6-3.4,7.3-3.9,11c0,0.1,0,0.1-0.1,0.2c-0.2,0.7-0.3,1.4-0.3,2.1v3.8c0,0.6,0.1,1.2,0.2,1.8c0.1,0.4,0.2,0.8,0.2,1.1
				c0.2,1.2,0.5,2.5,1,3.9c2.2,6.4,5.7,11.5,10.6,15.1c1.4,1,3,1.6,4.8,1.6h192.3c1.7,0,3.4-0.6,4.8-1.6
				c6.5-4.8,10.4-11.5,11.7-19.7c0-0.1,0-0.2,0.1-0.2c0-0.2,0.1-0.3,0.1-0.5c0.1-0.6,0.2-1.1,0.2-1.7V192c0-0.5-0.1-1.1-0.2-1.6
				l-0.1-0.5c0-0.2-0.1-0.4-0.1-0.7c-0.6-3.7-1.9-7.2-3.8-10.4c-14.6-25-29.2-50.1-43.9-75.1l-33.4-57.3c-0.6-1-1.2-2-1.8-3
				c-1.6-2.8-3.3-5.7-5.1-8.6c-4.6-7.1-11.7-11.6-20.3-12.9c-0.1,0-0.2,0-0.2-0.1C149.1,21.6,148.4,21.5,147.7,21.5L147.7,21.5z
				 M135.4,137.5l0-0.7c0-0.3,0-0.5,0-0.7c0-0.4,0-0.8,0-1c0.2-4.4-1.3-8.4-4.4-11.8c-5.7-6.4-7.2-13.2-4.6-20.8
				c2.7-7.8,8.1-12.3,16.4-13.7c1.1-0.2,2.2-0.3,3.3-0.3c10.3,0,19.1,8.1,20.2,18.4c0.6,6.3-1.2,11.6-5.6,16.3
				c-3.1,3.3-4.6,7.2-4.5,11.6c0,0.8,0,1.6,0,2.5c0,0.1,0,0.1,0,0.2c-0.6,0.3-1.2,0.5-1.8,0.8c-1.9,0.8-3.8,1.7-5.7,2.5
				c-1,0.4-1.9,0.6-2.9,0.6c-0.9,0-1.9-0.2-2.9-0.6c-1.6-0.7-3.2-1.4-4.8-2.1C137.2,138.3,136.3,137.9,135.4,137.5L135.4,137.5z"/>
		</g>
		<path class="st9" d="M127.4,136.8c0-0.7,0-1.4,0-2.1c0.1-2.4-0.8-4.3-2.4-6.2c-7.6-8.4-9.9-18.1-6.2-28.8
			c3.7-10.6,11.5-17.1,22.6-18.9c16.1-2.7,31.1,9,32.7,25.2c0.9,8.7-1.8,16.2-7.7,22.6c-1.6,1.7-2.4,3.6-2.3,6c0,1.6,0,3.1,0,4.7
			c0,2.3-1,3.9-3.1,4.8c-3.1,1.3-6.1,2.7-9.2,4c-4,1.7-8,1.7-12,0c-3.1-1.3-6.1-2.7-9.1-4c-2.2-0.9-3.3-2.5-3.2-4.9
			C127.4,138.4,127.4,137.6,127.4,136.8z M158.4,102.6c-4.9,0-8.8,3.8-8.9,8.7c0,4.9,3.9,8.8,8.8,8.8c4.8,0,8.8-3.9,8.8-8.7
			C167.2,106.6,163.3,102.6,158.4,102.6z M133.2,102.6c-4.9,0-8.8,3.9-8.8,8.8c0,4.8,4,8.7,8.8,8.8c4.8,0,8.8-3.9,8.8-8.7
			C142,106.5,138.1,102.6,133.2,102.6z M145.7,127.6c0.9,0,1.8,0,2.7,0c1,0,1.5-0.9,1.1-1.7c-0.8-1.6-1.7-3.2-2.7-4.7
			c-0.6-0.9-1.5-0.9-2.1,0c-0.9,1.6-1.8,3.1-2.7,4.7c-0.5,0.9,0,1.7,1,1.8C144,127.6,144.8,127.6,145.7,127.6z"/>
		<path class="st9" d="M111.1,152.3c-2.1,0.5-4.3,1-6.4,1.6c-3,0.9-4.9-0.1-5.9-3.1c-0.2-0.5-0.3-1-0.5-1.5
			c-0.7-2.4,0.4-4.4,2.7-5.2c4.1-1.4,4.7-2.5,3.6-6.8c-0.6-2.2,0.4-4.3,2.6-5.1c0.8-0.3,1.7-0.5,2.5-0.8c2.1-0.5,4.1,0.5,4.8,2.5
			c0.4,1,0.6,2.1,1,3.1c1.2,3.8,3.5,6.6,7,8.5c9.9,5.3,19.8,10.5,29.6,15.7c6.9,3.7,13.9,7.4,20.8,11.1c3.9,2.1,7.9,2.6,12,1.2
			c0.8-0.3,1.7-0.5,2.5-0.7c2.1-0.5,4.1,0.5,4.8,2.5c0.3,0.9,0.6,1.8,0.8,2.7c0.5,2-0.6,4-2.5,4.7c-0.6,0.2-1.2,0.4-1.8,0.6
			c-2,0.7-3.1,2.7-2.5,4.8c0.1,0.5,0.3,1.1,0.5,1.6c0.6,2.2-0.5,4.3-2.7,5c-0.8,0.3-1.5,0.5-2.3,0.7c-2.2,0.6-4.3-0.5-5-2.7
			c-0.3-0.9-0.6-1.8-0.8-2.7c-1.2-3.9-3.6-6.8-7.2-8.7c-10-5.3-20-10.6-30-15.9c-6.8-3.6-13.6-7.2-20.3-10.9c-2.3-1.2-4.7-2-7.3-2
			C111.1,152.5,111.1,152.4,111.1,152.3z"/>
		<path class="st9" d="M105.3,187.5c0-2.1-0.9-3.5-2.5-4.1c-0.6-0.2-1.2-0.4-1.8-0.6c-2.1-0.7-3.2-2.7-2.7-4.9
			c0.2-0.9,0.5-1.8,0.8-2.6c0.7-2,2.7-3,4.8-2.5c1.6,0.4,3.1,1,4.7,1.3c3.3,0.6,6.5,0,9.4-1.6c4-2.2,8.1-4.3,12.1-6.5
			c1.5-0.8,2.8-0.8,4.3,0c1.9,1.1,3.9,2.1,5.8,3.2c0.5,0.3,1.1,0.9,1.1,1.3c0,0.4-0.6,1.1-1.1,1.3c-5.7,3.1-11.3,6.1-17,9.1
			c-4.1,2.1-6.9,5.3-8,9.8c-0.2,0.7-0.4,1.4-0.7,2.1c-0.7,2.1-2.8,3.1-4.9,2.6c-0.8-0.2-1.5-0.4-2.3-0.7c-2.3-0.7-3.4-2.8-2.8-5.1
			C104.9,188.8,105.1,187.9,105.3,187.5z"/>
		<path class="st9" d="M181.4,131.3c0.9,0.3,2.4,0.7,3.8,1.4c1.5,0.8,2.1,2.6,1.7,4.4c-0.1,0.3-0.2,0.7-0.3,1
			c-0.9,2.9,0.1,4.8,3.1,5.7c1.9,0.6,3.5,1.5,3.6,3.7c0.1,2-0.5,3.9-1.7,5.5c-1,1.2-2.4,1.6-3.9,1.2c-1-0.3-2.1-0.6-3.1-0.9
			c-3.7-1.1-7.3-0.8-10.8,1c-4.2,2.2-8.3,4.4-12.4,6.6c-1.5,0.8-3,0.8-4.5,0c-1.9-1.1-3.9-2.1-5.8-3.2c-0.5-0.3-1-0.8-1-1.3
			c0-0.4,0.6-1,1-1.3c5.8-3.1,11.5-6.2,17.3-9.2c3.9-2.1,6.6-5.1,7.8-9.4c0.2-0.8,0.5-1.7,0.8-2.5
			C177.6,132.3,179.1,131.3,181.4,131.3z"/>
		<path class="st8" d="M158.4,102.6c4.9,0,8.8,4,8.7,8.9c-0.1,4.8-4,8.7-8.8,8.7c-4.9,0-8.8-4-8.8-8.8
			C149.6,106.4,153.5,102.5,158.4,102.6z"/>
		<path class="st8" d="M133.2,102.6c4.9,0,8.8,3.9,8.8,8.8c0,4.8-4,8.7-8.8,8.7c-4.8,0-8.8-4-8.8-8.8
			C124.4,106.5,128.3,102.6,133.2,102.6z"/>
		<path class="st8" d="M145.7,127.6c-0.9,0-1.7,0-2.6,0c-1-0.1-1.5-0.9-1-1.8c0.8-1.6,1.7-3.2,2.7-4.7c0.6-0.9,1.5-0.9,2.1,0
			c0.9,1.6,1.8,3.1,2.7,4.7c0.5,0.9,0,1.7-1.1,1.7C147.5,127.6,146.6,127.6,145.7,127.6z"/>
	</g>
</g>
</svg>
