<?xml version="1.0" encoding="utf-8"?>
<!-- Generator: Adobe Illustrator 28.1.0, SVG Export Plug-In . SVG Version: 6.00 Build 0)  -->
<svg version="1.1" id="Layer_1" xmlns="http://www.w3.org/2000/svg" xmlns:xlink="http://www.w3.org/1999/xlink" x="0px" y="0px"
	 viewBox="0 0 585 684.3" style="enable-background:new 0 0 585 684.3;" xml:space="preserve">
<style type="text/css">
	.st0{fill:#E86C59;}
	.st1{fill:#B49377;}
	.st2{fill:#FFCC5D;}
	.st3{fill:#C2493D;}
	.st4{stroke:#000000;stroke-width:31;stroke-miterlimit:10;}
	.st5{fill:#FFCC5D;stroke:#000000;stroke-width:31;stroke-miterlimit:10;}
	.st6{fill:#5CA7F7;}
</style>
<g>
	<polygon class="st0" points="292.5,127.1 127,292.6 127,596 458,596 458,292.6 	"/>
	<polygon class="st1" points="71.8,651.2 513.2,651.2 513.2,596 71.8,596 	"/>
	<path d="M361.4,334c0-38.1-30.9-69-69-69s-69,30.9-69,69s30.9,69,69,69S361.4,372,361.4,334"/>
	<path class="st2" d="M347.6,527.1H237.3c-7.6,0-13.8-6.2-13.8-13.8c0-7.6,6.2-13.8,13.8-13.8h110.3c7.6,0,13.8,6.2,13.8,13.8
		C361.4,520.9,355.3,527.1,347.6,527.1"/>
	<polygon class="st3" points="292.5,44.3 44.2,292.6 85.6,334 292.5,127.1 499.4,334 540.8,292.6 	"/>
</g>
<g>
	<g>
		<polygon class="st0" points="111.5,611.5 111.5,286.2 292.5,105.2 473.5,286.2 473.5,611.5 		"/>
		<path d="M292.5,127.1L458,292.6V596H127V292.6L292.5,127.1 M292.5,83.2l-21.9,21.9L105.1,270.7l-9.1,9.1v12.8V596v31h31h331h31
			v-31V292.6v-12.8l-9.1-9.1L314.4,105.2L292.5,83.2L292.5,83.2z"/>
	</g>
	<g>
		<rect x="56.3" y="580.5" class="st1" width="472.4" height="86.2"/>
		<path d="M513.2,596v55.2H71.8V596H513.2 M544.2,565h-31H71.8h-31v31v55.2v31h31h441.4h31v-31V596V565L544.2,565z"/>
	</g>
	<path class="st4" d="M361.4,334c0-38.1-30.9-69-69-69s-69,30.9-69,69s30.9,69,69,69S361.4,372,361.4,334"/>
	<path class="st5" d="M347.6,527.1H237.3c-7.6,0-13.8-6.2-13.8-13.8c0-7.6,6.2-13.8,13.8-13.8h110.3c7.6,0,13.8,6.2,13.8,13.8
		C361.4,520.9,355.3,527.1,347.6,527.1"/>
	<g>
		<polygon class="st3" points="292.5,149 85.6,355.9 22.3,292.6 292.5,22.4 562.7,292.6 499.4,355.9 		"/>
		<path d="M292.5,44.3l248.3,248.3L499.4,334L292.5,127.1L85.6,334l-41.4-41.4L292.5,44.3 M292.5,0.4l-21.9,21.9L22.3,270.7
			L0.4,292.6l21.9,21.9l41.4,41.4l21.9,21.9l21.9-21.9l185-185l185,185l21.9,21.9l21.9-21.9l41.4-41.4l21.9-21.9l-21.9-21.9
			L314.4,22.4L292.5,0.4L292.5,0.4z"/>
	</g>
</g>
<g>
	<g>
		<polygon class="st6" points="292.5,127.1 127,292.6 127,596 458,596 458,292.6 		"/>
	</g>
	<g>
		<rect x="71.8" y="596" class="st1" width="441.4" height="55.2"/>
	</g>
	<path d="M361.4,334c0-38.1-30.9-69-69-69s-69,30.9-69,69s30.9,69,69,69S361.4,372,361.4,334"/>
	<path class="st2" d="M347.6,527.1H237.3c-7.6,0-13.8-6.2-13.8-13.8c0-7.6,6.2-13.8,13.8-13.8h110.3c7.6,0,13.8,6.2,13.8,13.8
		C361.4,520.9,355.3,527.1,347.6,527.1"/>
	<g>
		<polygon class="st3" points="292.5,44.3 44.2,292.6 85.6,334 292.5,127.1 499.4,334 540.8,292.6 		"/>
	</g>
</g>
</svg>
