<?xml version="1.0" encoding="utf-8"?>
<!-- Generator: Adobe Illustrator 28.1.0, SVG Export Plug-In . SVG Version: 6.00 Build 0)  -->
<svg version="1.1" id="Layer_1" xmlns="http://www.w3.org/2000/svg" xmlns:xlink="http://www.w3.org/1999/xlink" x="0px" y="0px"
	 viewBox="0 0 496.6 606.9" style="enable-background:new 0 0 496.6 606.9;" xml:space="preserve">
<style type="text/css">
	.st0{fill:#E86C59;}
	.st1{fill:#B49377;}
	.st2{fill:#FFFFFF;}
	.st3{fill:#FFCC5D;}
	.st4{fill:#C2493D;}
</style>
<polygon class="st0" points="248.3,82.8 82.8,248.3 82.8,551.7 413.8,551.7 413.8,248.3 "/>
<polygon class="st1" points="27.6,606.9 469,606.9 469,551.7 27.6,551.7 "/>
<path class="st2" d="M317.2,289.7c0-38.1-30.9-69-69-69s-69,30.9-69,69s30.9,69,69,69S317.2,327.7,317.2,289.7"/>
<path class="st3" d="M303.4,482.8H193.1c-7.6,0-13.8-6.2-13.8-13.8c0-7.6,6.2-13.8,13.8-13.8h110.3c7.6,0,13.8,6.2,13.8,13.8
	C317.2,476.6,311.1,482.8,303.4,482.8"/>
<polygon class="st4" points="248.3,0 0,248.3 41.4,289.7 248.3,82.8 455.2,289.7 496.6,248.3 "/>
</svg>
