<?xml version="1.0" encoding="utf-8"?>
<!-- Generator: Adobe Illustrator 28.1.0, SVG Export Plug-In . SVG Version: 6.00 Build 0)  -->
<svg version="1.1" id="Layer_1" xmlns="http://www.w3.org/2000/svg" xmlns:xlink="http://www.w3.org/1999/xlink" x="0px" y="0px"
	 viewBox="0 0 585 684.3" style="enable-background:new 0 0 585 684.3;" xml:space="preserve">
<style type="text/css">
	.st0{fill:#E86C59;}
	.st1{fill:#B49377;}
	.st2{fill:#FFCC5D;}
	.st3{fill:#C2493D;}
	.st4{stroke:#000000;stroke-width:31;stroke-miterlimit:10;}
	.st5{fill:#FFCC5D;stroke:#000000;stroke-width:31;stroke-miterlimit:10;}
	.st6{fill:#895DF4;}
	.st7{clip-path:url(#SVGID_00000160888856798364823220000009493893969769012131_);}
	.st8{fill:#0F2743;}
	.st9{fill:#03080E;}
	.st10{fill:#FE4E68;}
	.st11{fill:#D9EFB7;}
	.st12{fill:#FE4E67;}
	.st13{fill:#FE042B;}
	.st14{fill:#F9CF3C;}
	.st15{fill:#67ACE2;}
	.st16{fill:#112843;}
	.st17{fill:#66ACE2;}
	.st18{fill:#FD042B;}
	.st19{fill:#66ACE1;}
	.st20{fill:#FD052B;}
	.st21{fill:#FD092E;}
	.st22{fill:#B5E267;}
	.st23{fill:#D8EEB7;}
	.st24{fill:#F90529;}
	.st25{fill:#F2AA10;}
	.st26{fill:#FD4D5D;}
	.st27{fill:#08223F;}
	.st28{fill:#FB4A5D;}
	.st29{fill:#FD4B5C;}
	.st30{fill:#F84E54;}
	.st31{fill:#FB4A58;}
	.st32{fill:#67B7F0;}
	.st33{fill:#FC4B56;}
	.st34{fill:#12413F;}
	.st35{fill:#B9E566;}
	.st36{fill:#041D3A;}
	.st37{fill:#143B3D;}
	.st38{fill:#021C3A;}
	.st39{fill:#031E3D;}
	.st40{fill:#0E2039;}
	.st41{fill:#FE6D53;}
	.st42{fill:#FD7053;}
	.st43{fill:#031D38;}
	.st44{fill:#0D203E;}
	.st45{fill:#021D37;}
	.st46{fill:#04223B;}
	.st47{fill:#211536;}
	.st48{fill:#FB5057;}
	.st49{fill:#10323B;}
	.st50{fill:#021B39;}
	.st51{fill:#041E3D;}
	.st52{fill:#FE0E33;}
	.st53{fill:#021D42;}
	.st54{fill:#011A37;}
	.st55{fill:#FC4A58;}
	.st56{fill:#021E35;}
	.st57{fill:#FB6C50;}
	.st58{fill:#021E36;}
	.st59{fill:#031D3D;}
	.st60{fill:#021C34;}
	.st61{fill:#25203D;}
	.st62{fill:#12443F;}
	.st63{fill:#201234;}
	.st64{fill:#032234;}
	.st65{fill:#032935;}
	.st66{fill:#041E39;}
	.st67{fill:#FD6C52;}
	.st68{fill:#1F1438;}
	.st69{fill:#FC4A5B;}
	.st70{fill:#011B3A;}
	.st71{fill:#FD6F54;}
	.st72{fill:#022335;}
	.st73{fill:#021D36;}
	.st74{fill:#021F2F;}
	.st75{fill:#C10112;}
	.st76{fill:#022333;}
	.st77{fill:#FD6D53;}
	.st78{fill:#022234;}
	.st79{fill:#031E36;}
	.st80{fill:#081C3B;}
	.st81{fill:#111547;}
	.st82{fill:#041E3E;}
	.st83{fill:#FD6E53;}
	.st84{fill:#261738;}
	.st85{fill:#221636;}
	.st86{fill:#FD6451;}
	.st87{fill:#0A283F;}
	.st88{fill:#031D42;}
	.st89{fill:#05213C;}
	.st90{fill:#C78E16;}
	.st91{fill:#05203C;}
	.st92{fill:#FD6B53;}
	.st93{fill:#007A51;}
	.st94{fill:#FC5D52;}
	.st95{fill:#051E3E;}
	.st96{fill:#043F33;}
	.st97{fill:#03503B;}
	.st98{fill:#02523B;}
	.st99{fill:#BFEF66;}
	.st100{fill:#F74B44;}
	.st101{fill:#1E1333;}
	.st102{fill:#034E39;}
	.st103{fill:#1A1751;}
	.st104{fill:#1F1234;}
	.st105{fill:#00A159;}
	.st106{fill:#05183A;}
	.st107{fill:#041839;}
	.st108{fill:#6095BF;}
	.st109{fill:#FE6952;}
	.st110{fill:#135E43;}
	.st111{fill:#135440;}
	.st112{fill:#125740;}
	.st113{fill:#053131;}
	.st114{fill:#042E2E;}
	.st115{fill:#14173C;}
	.st116{fill:#1F1B3B;}
	.st117{fill:#59595F;}
	.st118{fill:#FE6B53;}
	.st119{fill:#201334;}
	.st120{fill:#171439;}
	.st121{fill:#181132;}
	.st122{fill:#281B38;}
	.st123{fill:#031F45;}
	.st124{fill:#241636;}
	.st125{fill:#261B36;}
	.st126{fill:#121447;}
	.st127{fill:#031C3B;}
	.st128{fill:#041539;}
	.st129{fill:#06133A;}
	.st130{fill:#150D2C;}
	.st131{fill:#165441;}
	.st132{fill:#59585E;}
	.st133{fill:#67B6EE;}
	.st134{fill:#FC6952;}
	.st135{fill:#56565C;}
	.st136{fill:#152B42;}
	.st137{fill:#0F2A42;}
	.st138{fill:#122B40;}
	.st139{fill:#102B41;}
	.st140{fill:#0F2B42;}
	.st141{fill:#102A42;}
	.st142{fill:#FA4958;}
	.st143{fill:#FD5457;}
	.st144{fill:#FC5159;}
	.st145{fill:#F70A2C;}
	.st146{fill:#012034;}
	.st147{fill:#FE6F54;}
	.st148{fill:#011F35;}
	.st149{fill:#041F38;}
	.st150{fill:#042136;}
	.st151{fill:#FC4A56;}
	.st152{fill:#032D38;}
	.st153{fill:#FC4D51;}
	.st154{fill:#011E30;}
	.st155{fill:#FE6B52;}
	.st156{fill:#FC4F55;}
	.st157{fill:#022134;}
	.st158{fill:#FA604C;}
	.st159{fill:#022A35;}
	.st160{fill:#FC6D52;}
	.st161{fill:#FD5055;}
	.st162{fill:#011D32;}
	.st163{fill:#042337;}
	.st164{fill:#034E3A;}
	.st165{fill:#022930;}
	.st166{fill:#FC6C53;}
	.st167{fill:#FC6B53;}
	.st168{fill:#041D3C;}
	.st169{fill:#FC6152;}
	.st170{fill:#FD6B52;}
	.st171{fill:#FC6852;}
	.st172{fill:#FE6E53;}
	.st173{fill:#052237;}
	.st174{fill:#FE7053;}
	.st175{fill:#FC7053;}
	.st176{fill:#FA3A46;}
	.st177{fill:#FE6E54;}
	.st178{fill:#152747;}
	.st179{fill:#152847;}
	.st180{fill:#172949;}
	.st181{fill:#162848;}
	.st182{fill:#05193A;}
	.st183{fill:#111446;}
	.st184{fill:#07153D;}
	.st185{fill:#181750;}
	.st186{fill:#090E38;}
	.st187{fill:#031436;}
	.st188{fill:#102843;}
	.st189{fill:#0A243C;}
	.st190{fill:#0F2A37;}
	.st191{fill:#FC5156;}
	.st192{fill:#FC6254;}
	.st193{fill:#052634;}
	.st194{fill:#FA5150;}
	.st195{fill:#032C33;}
	.st196{fill:#04293A;}
	.st197{fill:#FA4E4C;}
	.st198{fill:#FB7649;}
	.st199{fill:#016746;}
	.st200{fill:#016947;}
	.st201{fill:#00C241;}
	.st202{fill:#135141;}
	.st203{fill:#FD0E32;}
	.st204{fill:#112842;}
	.st205{fill:#031E43;}
	.st206{fill:#B2DD67;}
	.st207{fill:#06193F;}
	.st208{fill:#ACD660;}
	.st209{fill:#251B39;}
	.st210{fill:#291E3C;}
	.st211{fill:#2A223F;}
	.st212{fill:#67B8F1;}
	.st213{fill:#C1F067;}
	.st214{fill:#044233;}
	.st215{fill:#BFEE66;}
	.st216{fill:#BFEC66;}
	.st217{fill:#041C3D;}
	.st218{fill:#1F5A44;}
	.st219{fill:#F94B55;}
	.st220{fill:#FD7055;}
	.st221{fill:#F10326;}
	.st222{fill:#FE7055;}
	.st223{fill:#F1310F;}
	.st224{fill:#F53219;}
	.st225{fill:#008456;}
	.st226{fill:#5D6C75;}
	.st227{fill:#B1110F;}
	.st228{fill:#00955A;}
	.st229{fill:#FBFBFC;}
	.st230{fill:#011836;}
	.st231{fill:#132A45;}
	.st232{fill:#011A38;}
	.st233{fill:#182A38;}
</style>
<g>
	<polygon class="st0" points="292.5,127.1 127,292.6 127,596 458,596 458,292.6 	"/>
	<polygon class="st1" points="71.8,651.2 513.2,651.2 513.2,596 71.8,596 	"/>
	<path d="M361.4,334c0-38.1-30.9-69-69-69s-69,30.9-69,69s30.9,69,69,69S361.4,372,361.4,334"/>
	<path class="st2" d="M347.6,527.1H237.3c-7.6,0-13.8-6.2-13.8-13.8c0-7.6,6.2-13.8,13.8-13.8h110.3c7.6,0,13.8,6.2,13.8,13.8
		C361.4,520.9,355.3,527.1,347.6,527.1"/>
	<polygon class="st3" points="292.5,44.3 44.2,292.6 85.6,334 292.5,127.1 499.4,334 540.8,292.6 	"/>
</g>
<g>
	<g>
		<polygon class="st0" points="111.5,611.5 111.5,286.2 292.5,105.2 473.5,286.2 473.5,611.5 		"/>
		<path d="M292.5,127.1L458,292.6V596H127V292.6L292.5,127.1 M292.5,83.2l-21.9,21.9L105.1,270.7l-9.1,9.1v12.8V596v31h31h331h31
			v-31V292.6v-12.8l-9.1-9.1L314.4,105.2L292.5,83.2L292.5,83.2z"/>
	</g>
	<g>
		<rect x="56.3" y="580.5" class="st1" width="472.4" height="86.2"/>
		<path d="M513.2,596v55.2H71.8V596H513.2 M544.2,565h-31H71.8h-31v31v55.2v31h31h441.4h31v-31V596V565L544.2,565z"/>
	</g>
	<path class="st4" d="M361.4,334c0-38.1-30.9-69-69-69s-69,30.9-69,69s30.9,69,69,69S361.4,372,361.4,334"/>
	<path class="st5" d="M347.6,527.1H237.3c-7.6,0-13.8-6.2-13.8-13.8c0-7.6,6.2-13.8,13.8-13.8h110.3c7.6,0,13.8,6.2,13.8,13.8
		C361.4,520.9,355.3,527.1,347.6,527.1"/>
	<g>
		<polygon class="st3" points="292.5,149 85.6,355.9 22.3,292.6 292.5,22.4 562.7,292.6 499.4,355.9 		"/>
		<path d="M292.5,44.3l248.3,248.3L499.4,334L292.5,127.1L85.6,334l-41.4-41.4L292.5,44.3 M292.5,0.4l-21.9,21.9L22.3,270.7
			L0.4,292.6l21.9,21.9l41.4,41.4l21.9,21.9l21.9-21.9l185-185l185,185l21.9,21.9l21.9-21.9l41.4-41.4l21.9-21.9l-21.9-21.9
			L314.4,22.4L292.5,0.4L292.5,0.4z"/>
	</g>
</g>
<g>
	<g>
		<polygon class="st6" points="292.5,127.1 127,292.6 127,596 458,596 458,292.6 		"/>
	</g>
	<g>
		<rect x="71.8" y="596" class="st1" width="441.4" height="55.2"/>
	</g>
	<path d="M361.4,334c0-38.1-30.9-69-69-69s-69,30.9-69,69s30.9,69,69,69S361.4,372,361.4,334"/>
	<path class="st2" d="M347.6,527.1H237.3c-7.6,0-13.8-6.2-13.8-13.8c0-7.6,6.2-13.8,13.8-13.8h110.3c7.6,0,13.8,6.2,13.8,13.8
		C361.4,520.9,355.3,527.1,347.6,527.1"/>
	<g>
		<polygon class="st3" points="292.5,44.3 44.2,292.6 85.6,334 292.5,127.1 499.4,334 540.8,292.6 		"/>
	</g>
</g>
<g>
	<defs>
		<circle id="SVGID_1_" cx="292.5" cy="335" r="61.3"/>
	</defs>
	<clipPath id="SVGID_00000102528535808189181760000005080913689638281893_">
		<use xlink:href="#SVGID_1_"  style="overflow:visible;"/>
	</clipPath>
	<g style="clip-path:url(#SVGID_00000102528535808189181760000005080913689638281893_);">
		<path d="M252.9,321.9c-2.2-6.6-2.8-12.8,0.8-18.3c4.8-7.5,11.9-12,21.6-10.4c9,1.4,16.2,6.3,22.9,11.9
			c14.5,12.1,27.9,25.5,41.3,38.9c1.7,1.7,3.1,3.7,4.6,5.6c3.2,3.9,0.3,8.1-3.2,9.3c-7.4,2.6-15.1,3.8-22.9,3.6
			c-9.5-0.2-18.4-3.2-27-6.8c-9.5-4-19.5-6.3-29.7-7.5c-1.1-0.1-2.1-0.8-3.5-0.4c3,4.2,6,8.3,8.6,12.8c1.4,2.4,2.6,4.9,4.1,7.3
			c1.9,3,1.8,6.2,1.5,9.4c-0.6,5.7-1.3,11.4-2.1,17c-1.3,9.5-2.8,19-4.2,28.5c-1,6.8-2.3,13.5-4.8,19.9c-2.1,5.5-4.5,10.9-9.4,14.8
			c-5.9,4.7-12.8,1.4-15.8-3.8c-2.1-3.5-2.2-7.4-2.5-11.3c-0.1-1,0-2,0-3.3c-2.9,2.1-5.3,4.4-8.5,5.4c-4.3,1.4-8.3,0.8-11.8-2.1
			c-3.8-3.1-5.1-7.3-3.9-12c0.7-2.6-0.3-2.6-2.3-2.6c-6.8,0.1-11.4-4.4-10.8-10.5c0.3-2.9,1.9-5.2,3.7-7.3c0.9-1.1,1.2-1.7-0.2-2.9
			c-3.4-3.1-3.7-7.1-2.4-11.2c0.4-1.2,0.2-1.4-0.8-1.9c-5-2.2-8.3-5.6-7.2-11.6c0.2-1.2-0.7-1.1-1.2-1.5c-2.9-2.6-6.1-5-5.8-9.6
			c0.1-1.4,0.7-2.7,1.2-4c-14.1-1.8-26.9-6.6-38.3-14.9c-4.7-3.5-9.1-7.5-11.9-12.7c-1.6-3-3.8-2.9-6.4-2.6c-11.3,1.3-22.4,0-33-4.2
			c-2.5-1-4.5-3.1-5.6-5.6c-0.7-1.5-1.7-2.3-3.1-2.8c-3.8-1.2-6.9-3.7-9.3-6.8c-2.6-3.3-3.2-8.6,2.6-12.4c0.7-0.4,1.3-0.6,1.4-1.7
			c0.4-7.6,4.6-11,12.1-10c7.8,1,15.6,1.8,23.3,3.3c10.1,1.9,20.2,3.4,30.3,5.3c3.5,0.7,6.8-0.2,10.5-0.3c-2.9-2.5-5.7-4.8-7.6-8
			c-2.8-4.6-1.2-9.4,3.7-11.5c1.3-0.5,2.5-0.5,3.8-0.1c1.3,0.4,2.2,0.2,2.8-1.5c1.7-5.1,5.9-7.2,11-5.9c13.4,3.6,26.4,8.3,38.3,15.5
			c4,2.4,7.9,5.2,11.2,8.6c3.5,3.6,5.5,7.9,5.9,12.8c0.1,0.9,0.2,1.5,1.2,1.8C234.6,316.2,243.5,319,252.9,321.9z"/>
		<path class="st8" d="M170.3,290c-1.8-1.3-3.8-2.3-5.4-4c-1.3-1.4-2.6-2.9-1.5-4.9c1.1-1.9,3.2-1.4,4.8-1c4,1.1,8,2.2,12,3.6
			c9.7,3.4,19.3,7.2,27.7,13.3c1.7,1.2,3.6,2.4,5.2,3.7c4.3,3.6,6.2,8.2,5.7,13.8c-0.1,1.1-0.5,2.3,1.3,2.8
			c11.7,3.6,23.3,7.4,35.1,10.7c0.7,0.2,1.4,0.4,2.2,0.4c3.5,0.2,3.9-0.6,2.5-3.6c-2.3-4.7-4-9.7-3-15c1.6-8.2,10.2-13.2,18.6-11.2
			c7.8,1.8,14.2,6.3,20.2,11.3c7.8,6.4,15,13.5,22.3,20.5c6,5.6,11.7,11.4,17.5,17.1c1.6,1.6,4.2,3.4,3.7,5.5
			c-0.4,1.9-3.7,1.6-5.7,2.1c-12.7,3.3-25,1.9-36.9-3.1c-12.5-5.2-25.4-8.6-38.8-10.1c-3.3-0.4-6.7-0.2-10,0.5
			c-2.2,0.5-0.6,1.4-0.1,2c4.3,4.9,8.4,10.1,11.9,15.7c2.3,3.6,4.2,7.4,6.1,11.2c0.9,1.8,0.4,3.7,0.2,5.4c-2.4,19.6-4.4,39.3-9,58.5
			c-1.3,5.6-3.5,10.9-7,15.6c-1.7,2.2-3.8,3.3-6.5,2.9c-2.6-0.4-3.8-2.4-4.5-4.8c-1.2-4.3-1.1-8.7-0.7-13c0.5-5.6,1.2-11.2,2.1-16.9
			c-1.7,2.6-3.4,5.2-5.2,7.8c-3,4.5-6,9-11.1,11.4c-3,1.5-6,1.7-8.6-0.3c-2.8-2.2-2.2-5.4-1.4-8.2c1-3.9,2.8-7.5,5.1-10.7
			c0.4-0.6,1.3-1.3,0.5-2.2c-0.7-0.7-1.4,0.1-2,0.4c-1.8,1-3.5,2.1-5.2,3.2c-2.2,1.3-4.6,1.8-7.2,1.7c-4.2-0.2-6-3.2-3.8-6.8
			c1.9-3.2,4.3-6,6.8-8.8c0.6-0.6,1.1-1.2,2.1-2.3c-1.5,0-2.6-0.1-3.6,0c-2.4,0.2-4.4-0.5-5.4-2.9c-1-2.4,0.1-4.3,1.5-6.1
			c1.8-2.1,4-3.8,6-5.7c-3.2,0.1-6.2,0.7-9.3-0.2c-2.4-0.7-5.1-1-5.9-4c-0.8-3.1,1.4-4.7,3.3-6.6c0.4-0.4,1.2-0.5,1.3-1.3
			c-2.5-0.4-5.1-0.3-7.6-1.2c-4.3-1.6-5.2-5.3-2.1-8.7c1.6-1.8,3.4-3.3,5.6-4.8c-2.5-0.3-5-0.6-7.5-0.8
			c-15.8-1.3-30.2-6.2-42.5-16.5c-4.3-3.7-7.6-8.1-10.1-13.1c-0.5-1.1-0.9-1.3-2.2-1.2c-11.9,1.2-23.7,1.4-35.1-2.6
			c-3.9-1.4-4.4-1.8-4.6-6c0-1.1-0.7-1.1-1.4-1.3c-3.7-1.3-7.4-2.6-10.4-5.1c-1.3-1.1-2.4-2.4-2-4.3c0.5-2.2,2.4-2.4,4.1-2.7
			c2-0.3,4.1-0.3,6.1,0.1c1.2,0.3,2.3,0.4,4-0.1c-1.9-1.1-3.6-2.1-5.2-3.1c-0.9-0.5-1.8-1.1-2.4-1.9c-0.7-1-1.8-2.1-1-3.5
			c0.7-1.4,1.9-1.8,3.5-1.8c7.5,0.1,14.9,1.2,22.3,2.5c12.1,2.1,24.2,4.4,36.3,6.3c2.9,0.5,6.1-0.2,9.1-0.4
			c3.7-0.3,7.3,0.7,11.2,0.5c-1.2-1-2.2-1.8-3.2-2.6c-0.6-0.6-1.2-1.3-0.8-2.2c0.3-0.9,1.2-0.6,1.9-0.7c0.9-0.1,1.9,0.3,2.7-0.8
			c-3.6-1.5-7.2-2.9-10.3-5.3c-2-1.5-3.8-3.3-4.9-5.6c-0.4-0.8-0.9-1.7,0-2.6c0.8-0.8,1.6-0.8,2.6-0.5c4.9,1.1,9.7,2.1,14.6,3.2
			C169.8,290.8,170.5,291.3,170.3,290z"/>
		<path class="st9" d="M170.3,290c0.4,0.2,1,0.5,0.7,0.9c-0.5,0.5-1.3,0.3-1.8-0.3C169.7,290.5,170.1,290.5,170.3,290z"/>
		<path class="st10" d="M96.8,302.2c0.5,0,1.1,0.1,1.6,0.1c0.2,0.1,0.4,0.1,0.7,0.2c0.8,0.3,1.6,0.2,2.4,0.2c0.1,0,0.2,0,0.3,0
			c0.4,0.2,0.9,0.1,1.2,0.6c0.9,0.6,1.8,0.3,2.8,0.1c0.4-0.1,0.8-0.1,1.2-0.2c0.1,0.1,0.1,0.2,0.2,0.3c0.8,0.7,1.6,0.1,2.4,0.1
			c0.3,0,0.5,0.1,0.7,0.2c1.2,1,2.6,0.6,3.9,0.6c1.2-0.3,2.3,0,3.3,0.5c0.2,0.2,0.4,0.4,0.6,0.6c0.9,0.6,1.8,0.4,2.7,0.2
			c0.4,0,0.7,0,1.1,0c1,0,1.9-0.2,2.8,0.3c0.9,0.4,2,0,2.8,0.7c1.1,0.2,2.2,0.5,3.4,0.7c0.5,0.2,1,0.7,1.7,0.4c0.4,0,0.7,0,1.1-0.1
			c0.9,0,1.8,0,2.6,0.3c0.6,0.8,1.4,1.3,2.4,0.8c3-0.3,5.8,1.7,8.9,1.1c0.2-0.1,0.5-0.2,0.8-0.2c1,0.1,1.9,0.2,2.9,0.4
			c2.1,0.3,4.3,0.4,6.4-0.1c1.3-0.2,2.6-0.3,3.9,0c1.1,0.5,2.2,1.1,3.5,0.6c1.2,0.1,2.4,0.4,3.7,0c0.4,0,0.7,0,1.1,0
			c0.2,0.1,0.4,0.1,0.7,0.2c0.7,0.2,1.4,0.1,2.1,0c0.2,0,0.5,0.1,0.7,0.2c0.2,0.1,0.4,0.1,0.6,0.2c0.9,0.5,1.7,0.9,2.8,0.6
			c0.4,0,0.7,0,1.1,0c1,0,2-0.4,2.8,0.6c1,1,2.3,0.2,3.3,0.6c0.6,0.9,1.4,0.8,2.3,0.6l0-0.2c1.1,0.1,2.3-0.1,3.4,0.6
			c3.4,1.5,7.3,1.1,10.8,2.3c0.5,0.2,1,0.4,1.5,0.6c2.2,1.4,4.8,1.1,7.3,1.7c2.2-0.7,4,1.3,6.1,1.1c0.5,0.6,0.6,1.2,0.4,1.9
			c-0.1,0.5-0.4,1-0.7,1.4c-0.4,0.4-0.8,0.7-1.2,1c-2.5,0.7-3,3.2-4.2,5c-0.1,0.2-0.3,0.4-0.4,0.6c-0.6,0.9-0.3,2-0.5,2.9
			c-1.1,2.1-1.3,4.2-0.2,6.4c0.4,1.1,0.1,2.4,0.7,3.5c0.2,0.4,0.4,0.8,0.5,1.2c0.1,0.5,0,0.9-0.2,1.3c-2.2,2.8-5.2,4.2-8.6,5.1
			c-2.6,0.7-5.2,1.2-7.8,1.4c-3.5,0-7.1,0-10.6,0c-13-1.5-24.5-6.1-33.7-15.8c-2.3-2.4-4.5-5-5.8-8.1c-1.6-3.8-4.2-5.7-8.3-5.3
			c-1-0.4-1.7-1.4-2.9-1.2c-1-0.4-1.9-0.9-2.7-1.7c-1.4-1.3-3.3-1.4-5-2.1c-0.8-0.3-2.4-0.3-1.6-2c1.1-0.5,2.2-0.5,3.3-0.2
			c1,0.4,1.9,0.9,3,0.6c1.5,0.1,3.1,0.5,4.6,0.1c0.4,0,0.7,0,1.1,0c0.2,0.1,0.5,0.1,0.7,0.2c0.7,0.2,1.4,0.1,2-0.4
			c0.2-0.1,0.5-0.2,0.7-0.2c1.3-1.8-0.4-2-1.4-2.6c-1,0.3-2.1,0.2-3,0.8c-0.3,0.1-0.5,0-0.6-0.2c-0.7-1-2.1-0.1-2.8-1.1
			c-1.3-1.7-3-2.7-5.1-3.1c-11-2.5-22.1-4.1-33.3-4.8c-0.5,0-0.9,0-1.4,0.1c-0.5-0.4-1-0.7-1.6-1.1c0.1-2.6,1.9-1.5,3.3-1.4
			c0.6,0,1.1,0,1.7-0.1c0.2,0.1,0.4,0.1,0.6,0.2c0.8,0.3,1.6,0.2,2.4,0.2C96.5,302.2,96.6,302.2,96.8,302.2z"/>
		<path class="st11" d="M261.1,400.2c-0.6,0.7-0.5,1.6-0.4,2.4c0.2,0.4,0.3,0.7-0.1,1c-1.3,6.5-2.6,12.9-3.8,19.4
			c-0.2,1-0.5,2-0.7,2.9c-1.2,1-2.3,0.3-3.4-0.2c-4.3-2-6.9-5.3-7.2-10.2c0.2-1.5,0.4-3.1,0.6-4.6c-0.2-0.4-0.3-0.7,0.1-1
			c0.6-2.3,1.3-4.5,0.3-6.9c-2.4-0.5-4.6,0.9-7,0.4c-2.1-0.4-4.1-0.7-6-1.7c-0.6-0.2-1.2-0.3-1.7-0.4c-0.4-0.1-0.9-0.3-1.3-0.4
			c-4.7-1.8-5.7-4.2-3.9-9.1c1.6-1.1,2.4-3,3.7-4.3c0.3-0.3,0.5-0.6,0.2-0.9c-0.3-0.4-0.9-0.4-1.3-0.2c-1,0.7-1.8,1.5-2.7,2.2
			c-1.6,0.5-2-0.6-2.2-1.7c-0.5-2.1-0.2-4,1.2-5.7c1.9-1.8,4.4-3.1,6.4-5.4c-3.7-0.2-6,2.4-8.8,3.4c-2.8,1-4.7,0.6-5.9-1.2
			c-1.4-2.1-0.8-4.6,1.6-7.1c2.4-1.1,4.8-2.2,7.3-3.3c1.1-0.5,2-0.9,1.7-2.4c0.1-0.3,0.2-0.6,0.5-0.6c4-1.4,7-4.3,10-7.1
			c1-0.3,1.8,0.1,2.6,0.5c2.9,1.4,5,0.4,5.9-2.7c0.2-0.7-0.2-1.8,1-2c1.2-0.2,2.3,0.3,3.2,1.3c2.6,2.8,3.9,6.5,6.9,8.9
			c1.6,2.2,3.3,4.4,4.9,6.6c1.2,1.7,1.3,3.6,1,5.5c-0.3,2-0.3,4-0.5,6.1c-0.5,1.3-0.1,2.6-0.2,4c-0.1,0.6,0.2,1.2-0.3,1.7
			c-0.5,0.9-0.5,1.9-0.4,2.9c0.2,0.5,0.4,1.1-0.1,1.5c-0.7,2.4-0.9,4.9-1,7.4C261.5,399.6,261.6,399.9,261.1,400.2z"/>
		<path class="st12" d="M297,321.8c0.7,2.4,1.5,4.9,2.2,7.3c0.6,1,0,1.8-0.2,2.8c-0.3,1.5-1,2.7-2.2,3.7c-2,1.8-3.4,3.9-4.6,6.3
			c-1,0.7-2,0.3-2.9-0.1c-15.2-5.5-30.9-6.8-46.9-6.3c-1.2,0-2.4,0.2-3.6-0.3c-0.2-0.2-0.3-0.3-0.5-0.5c-0.5-0.5-0.9-1.1-1.7-1.1
			c-3.1-3.1-7-5-10.6-7.4c-0.9-0.6-1.8-1.2-2.9-1.3c-0.3,0-0.5-0.1-0.7-0.3c-0.6-1.7-0.2-2.5,1.7-2.1c1,0.2,2,0.3,3,0.5
			c9.8,2.1,19.4,5.3,29,8.3c0.9,0.4,1.8,0.6,2.8,0c2.2-0.6,4.4-2.4,6.9-0.2c0.4,0.3,2,1.5,2.7-0.2c0.1-4.2-2.5-7.2-4.5-10.5
			c-3.1-4.8-2.4-13.3,1.3-17.4c1.2-1.2,2.6-1.6,4.3-1.6c2.4,0.5,4.8,0.6,7.2-0.4c0.4-0.1,0.8-0.1,1.2,0.2c2.2,1,4.5,2,6.7,3
			c0.6,1.1,1.9,1.5,2.8,2.1c3.5,2.2,6.3,5.1,9.3,7.9c1.2,1.2-0.5,2.2,0.2,3.3c0,0.1-0.1,0.2-0.1,0.4c-1.2,1.2-0.8,2.3,0.1,3.3
			C297.1,321.3,297.1,321.5,297,321.8z"/>
		<path class="st13" d="M193.2,350.8c5.6-0.9,11.3-1.8,15.6-6.1c0.9-0.3,0.9,0.4,1.2,1c0.5,3.1,1.3,6.2,3,8.9c1,1.7,0.6,2.8-1.2,3.4
			c-2.5,0.8-4.8,1.9-7.4,2.3c-0.3,0-0.6,0-0.9-0.1c-2.7-0.4-5.5-0.2-8.2-0.1c-0.3,0-0.6-0.1-0.8-0.2c-0.4,0-0.8,0-1.1,0
			c-1.1,0.3-2.2,0.5-3.3-0.1c-1.3-1-3.1-0.3-4.5-1c-0.9,0.2-1.9,0.5-2.7-0.2c-5.3-1.9-10.9-2.9-16.3-4.9
			c-11.2-4.3-20.8-11-28.3-20.4c-0.5-0.6-0.9-1.4-1.2-2.2c-0.8-2.1-2.1-3.2-4.5-2.5c-1.3,1.3-2.9,0.7-4.4,0.5c-0.2,0-0.4,0-0.6,0
			c-1.1,0.6-2.4,0.3-3.6,0.7c-1.9,0-3.7,0-5.6,0c-1.2-0.5-2.5,0.1-3.6-0.7c-0.4,0-0.7,0-1.1,0c-1.4,0.4-2.7,0.4-3.9-0.5
			c-4.6,0-8.8-1.6-13.1-2.9c-1.4-0.4-1.6-1-0.7-2.1c0.6-0.7,1.4-0.4,2.1-0.2c0.6,0,1.1,0,1.7,0c2-0.9,4.1-0.3,6.2-0.5
			c4.5,0,9.1,0,13.6,0c4.5,0.1,8.9-0.2,13.4,0.3c0.6-0.3,0.8-1,1.3-1.3c4.2-0.8,6.6,0.7,8.7,4.7c6.8,12.9,18.2,19.8,32.1,23
			c2.2,0.5,4.4,0.8,6.5,1.2C185.4,351.2,189.3,351.2,193.2,350.8z"/>
		<path class="st14" d="M301.9,328.5c-0.4-3-1.9-5.7-2.7-8.5c-0.6-1-0.5-2.1,0-3.1c0.5-0.5,0.9-0.3,1.4,0.2
			c11.7,11.6,24.1,22.5,36,33.9c0.4,0.4,0.7,0.8,1.2,1.4c-4.8,1.9-9.6,2.4-14.5,1.4c-7.2-1.5-14.3-3.2-20.8-6.8
			c-1.8-1-3.6-2-5.2-3.2c-2.5-1.7-2.4-3,0.1-4.6c2.3-1.5,4.2-3.4,4.6-6.3C301.6,331.4,302,329.9,301.9,328.5z"/>
		<path class="st11" d="M257.9,363.5c-2.3-0.1-3.2-2-3.8-3.5c-1-2.2-3-3.4-4.1-5.4c-0.2-0.4-2.2-2.2-2.4,0.9
			c-0.3,3.6-3.9,5.1-7.1,3.2c-0.7-0.4-1.3-0.7-2.1-0.6c-0.6-0.9,0-1.3,0.8-1.5c0.4,0,0.7,0,1.1,0.2c1.6,0.8,3.3,1.6,4.8-0.3
			c1.4-1.8,1.3-3.7,0.4-5.7c-1.1,0.8-0.6,1.8-0.8,2.6c-0.2,1.1-0.6,2-1.7,2.3c-1.1,0.3-2-0.1-2.7-0.9c-1-1-1.5-2.3-2.4-3.4
			c-1.6-2-2.1-1.9-3.6,0.3c-1.6,1.8-3.5,2.9-6.1,2.4c-1.5-0.6-1.9-2.1-2.9-3.2c-0.5-0.5-1.2-0.4-1.8-0.5c-1.7,0-2.7-1-3.5-2.3
			c-2.7-3.9-4.6-8.2-5.5-12.9c-0.1-1-0.1-2.1,0.1-3.1c0.7-2.3,1.1-4.7,3.4-6.1c2-0.2,3.9,0,5.1,2c3.1,2.1,6.1,4.2,9.2,6.2
			c0.8,0.5,1.3,1.2,2.1,1.7c0.9,0.2,1.4,0.9,1.9,1.5c2.8,2.5,5.4,5.1,7.9,7.9c1,0.9,2.2,1.6,2.6,3
			C250.6,353.1,254.6,358.1,257.9,363.5z"/>
		<path class="st15" d="M233.9,401c3.3,2,6.9,2.1,10.6,1.3c0.9-0.2,1.9-0.8,2,0.8c-1.6,0.8-2.3,2.4-3.1,3.8
			c-4.5,7.5-7.7,15.6-12.8,22.8c-0.6,0.8-1.2,1.6-1.8,2.3c-0.4,1.2-1.2,1.9-2.4,2.4c-1.4,0.7-2.5,2.1-4.2,2.3
			c-1.4,0.8-2.7,0.7-4.1,0.1c-1-0.3-1.9-0.6-2.1-1.8c-0.2-0.2-0.3-0.5-0.4-0.8c-0.1-0.9-0.2-1.8,0.4-2.5c0.7-4,3-7.3,4.6-10.9
			c0.4-0.9,0.8-1.8,1.6-2.5l0-0.1c0.5-0.7,0.5-1.6,1.2-2.1c3.4-3.7,6-8,8.9-12C232.8,403,232.9,401.8,233.9,401z"/>
		<path class="st15" d="M239.3,356.7c-0.7,0.2-0.9,0.6-1,1.3c-2.7,3.6-6.1,6.2-10.6,7.3c-1-1-2.1-0.3-3.1,0.1
			c-4.7,1.7-9.4,3.8-13.9,5.9c-1.9,0.9-3.9,1.5-5.9,2.2c-1.8,0.8-3.7,0.2-5.6,0.4c-0.6,0-1.2-0.2-1.8-0.3c-0.9-0.2-1.8-0.1-2.6-0.7
			c-1-1-3.4,0.3-3.6-1.7c-0.2-1.9,1.7-2.6,3.1-3.4c3.4-2,6.8-3.9,10.5-5.5c3.6-2.8,7.5-4.8,12.3-3.7c1.5,0.4,3.1,0.3,4.7-0.1
			c1.2-0.3,1.9-1.2,2.7-2.1c0.2-0.2,0.4-0.4,0.6-0.5c1-0.3,1.7,0.5,2.6,0.8c3,1.5,5.9,1.2,8.5-0.9c0.8-0.5,1.7-0.8,2.6-0.2
			C239.2,356,239.5,356.2,239.3,356.7z"/>
		<path class="st11" d="M201.7,297.2c-1.6-1.6-3.6-1.2-5.5-1c-4.3,1.5-8.6,2.9-13.1,3.1c-5.9,0.3-11.6-0.7-16.5-4.5
			c-1.1-0.8-2.3-1.7-1.9-3.4c3.7,0.6,7.4,1.3,11.7,2.1c-1.5-2.3-3.3-3.3-4.8-4.6c-1.7-1.7-3.5-3.3-5.3-5c-0.4-0.4-0.8-0.9-0.5-1.5
			c0.3-0.6,1-0.4,1.5-0.4c1,0.1,2,0.2,3,0.5c11.4,3.1,22.2,7.5,32.4,13.6C203.1,297.3,202.8,297.6,201.7,297.2z"/>
		<path class="st15" d="M164.7,291.5c2.8,4.6,7.5,6,12.4,6.9c5.6,1,10.8-0.2,16-1.9c1-0.3,2-1.3,3-0.2c-1.3,1.2-2.2,2.5-1.8,4.3
			c0.2,0.8-0.1,1.3-0.9,1.7c-3.8,2.4-4,2.8-3.2,7.1c-0.2,0.9-0.8,1.1-1.6,0.7c-3.8-0.5-7.6-0.6-11.2-1.6c0.2-0.3,0.4-0.5,0.7-0.1
			c-0.1-0.4-0.4-0.3-0.6-0.3c-0.5,0-1.1-0.1-1.6,0.2c-2.4-0.1-4.5-1-6.6-1.9c-0.6-0.3-1.3-0.6-1.2-1.3c0.2-0.9,1.1-0.4,1.6-0.6
			c0.5-0.3,1-0.2,1.5-0.2c0.2,0.1,0.4,0.3,0.4,0.5c0,0.2-0.2,0.5-0.1,0.5c0.8-0.2,1.5-0.3,2.3-0.3c0.1,0,0.3,0,0.4,0
			c1.3,0,3.3,0.8,3.7-0.8c0.4-1.7-1.8-1.8-3-2.1c-6.6-1.8-12.6-4.7-17.8-9.1c-1.1-0.9-2.5-1.7-2.4-3.5c0.3-0.3,0.7-0.4,1,0.1
			C158.7,290.2,161.7,290.8,164.7,291.5z"/>
		<path class="st16" d="M222.7,359.1c-1.4,1.1-3.1,1-4.5,0.6c-4-1.3-7.4-0.3-10.8,1.7c-0.8,0.5-1.7,0.7-2.5,1
			c-0.7-0.5-1.5-1.1-2.2-1.6c0.2-0.5,0.6-0.8,1.1-1c3.1-1.1,6.2-2.1,9.4-3.2c-2.1-3.3-3.7-6.8-3.8-10.8c0.5-1.2-0.1-2.2-0.5-3.2
			c-0.6-1.7,0-3.6-0.6-5.3c-0.2-1.4-0.3-2.7,0-4.1c0.5-1.4,0.2-2.9,0.5-4.3c0.8-2.4,1.4-5,4.5-5.5c1.1-0.4,2.3-0.8,3.5-0.7
			c2.2-0.2,4.4-0.2,6,1.8c0.2,0.1,0.3,0.1,0.5,0.1c0.2,0.1,0.3,0.2,0.3,0.3c0,0.1-0.1,0.2-0.2,0.2c-0.2,0.9,0.3,1.9-0.4,2.8
			c-1.7-0.4-3.3-1.6-5.1-1.6c-4.6,0.5-4.6,0.5-5.4,3.9c-1.1,2.9,0.1,5.7,0,8.6c0,0.4-0.1,0.8-0.2,1.2c-0.1,0.3-0.2,0.5-0.3,0.7
			c-0.2,0.4-0.7,0.8-0.3,1.3c-0.2-0.5-0.1-0.8,0.6-0.8c1.5,1.9,1,4.4,1.7,6.5c0.1,0.4,0.2,0.8,0.3,1.2c0.4,2,1.2,3.9,2.3,5.6
			c1,1.6,2.5,2.5,4.4,2.2c1.8-0.3,1.9-2,2.3-3.4c0.2-0.8,0.1-1.7,0.6-2.4c1.2,1.3,1.2-0.8,1.9-0.7c0.8,1.1,1.6,2.3,2.3,3.4
			c0.8,0.5,1.6,1,2.3,1.6c0.3,0.2,0.5,0.5,0.7,0.8c0.7,0.5,1.2,0.2,1.7-0.4c0.2-0.3,0.4-0.6,0.6-0.9c0.9-1,0-2.3,0.7-3.4
			c0.2-1.1,0.2-2.3,1.5-2.8c1.4-0.5,1.5,1.1,2.3,1.6c1.4,0.9,1.7,2.6,2.7,3.8c0.7,0.8,1.5,1.5,2.6,1.2c1.2-0.4,0.9-1.5,1-2.4
			c0.1-1.2-0.7-3.1,1-3.3c1.8-0.1,1.5,1.9,1.7,3.2c0.3,2.2-0.4,4.1-2.3,5.2c-1.9,1.1-3.5-0.1-5.1-1.2c-0.1-0.2-0.2-0.4-0.4-0.5
			c-0.8-0.9-1.6-1-2.3,0.1c-2.6,2.6-5.8,3-9.5,1.1c-0.7-0.5-1-1.9-2.2-0.8c0,0.1,0,0.3-0.1,0.4C224,357.5,223.3,358.2,222.7,359.1z"
			/>
		<path class="st15" d="M245.4,415.5c1.8,5.3,4.4,9.6,10.6,10.4c-1.3,6.1-3.1,12.2-5.7,17.9c-0.6,1.4-1.5,2.8-2.4,4.1
			c-0.8,1.1-1.7,2.5-3.3,2c-1.6-0.4-1.7-2-1.8-3.4c-0.2-3.7,0.3-7.4,0-11.1c-0.1-0.2-0.1-0.4-0.2-0.6c-0.3-1.1-0.1-2.1-0.2-3.2
			c0.1-0.7-0.3-1.6,0.4-2.2C243.5,424.8,243.8,420,245.4,415.5z"/>
		<path class="st17" d="M226.6,391.9c-1,4.8,0.9,7.9,5.6,9.1c0.2,1-0.9,0.6-1.2,1c-5,2.7-9,6.7-13.6,9.9c-3.4,2.3-7,4.4-10.5,6.5
			c-0.8,0.5-1.3,0.2-1.9-0.4c-0.7-0.7-0.8-1.2-0.5-2.2c1.1-3,3.1-5.4,5.3-7.5c0.5-1.3,1.7-2.1,2.6-3c0.8-0.8,1.6-1.6,2.3-2.3
			c1.7-1.7,3-3.7,5.2-4.9C222.3,396.1,224.5,394,226.6,391.9z"/>
		<path class="st18" d="M238.9,335.1c0.8-0.2,1.6-0.4,2.4-0.5c13.7-0.4,27.3,0.2,40.7,3.9c3.5,1,6.9,2.2,10.3,3.3
			c-0.2,0.7-0.6,1.5-0.4,2.3c0.4,1,0,1.9-0.5,2.8c-1.5,1.2-2.5-0.3-3.7-0.7c-6.7-2.5-13.4-5.1-20.4-6.5c-1.3,0.5-2.5-0.1-3.8-0.4
			c-0.4,0-0.9,0-1.3-0.1c-1-0.3-2.1-0.1-3.1-0.4c-2.6-0.1-5.2,0-7.8,0.4c-0.5,0.2-0.9,0.2-1.3-0.1c-0.4,0-0.8-0.2-1.1,0
			C244.2,341.2,241.5,338.4,238.9,335.1z"/>
		<path class="st19" d="M225.5,381.3c-0.3,1.4-0.7,2.8-0.7,4.2c0,1.2-0.1,2.9,1.7,3.2c-0.6,1.2-1.6,2-2.6,2.8
			c-0.5,0.6-1,1.3-1.9,1.5c-3.9,3.1-7.9,6-12.6,7.8c-1.7,0.6-3.3,0.6-5,0c-0.1-0.2-0.2-0.3-0.3-0.5c-1.1-0.8-0.4-1.5,0.2-2.2
			c0.4-1,1.1-1.8,1.8-2.6c0.8-1.6,1.9-2.7,3.5-3.5c0.5-0.4,1-0.9,1.4-1.3c0.6-0.6,1-1.3,1.9-1.5
			C216.9,386.2,221.2,383.8,225.5,381.3z"/>
		<path class="st15" d="M218.8,371c-0.4,0.8-0.8,1.6-1.2,2.4c-1.4,3.3,0,5.6,3.5,5.8c0.6,0,1.3,0,1.9,0.1c-0.1,0.2-0.2,0.3-0.3,0.5
			c-0.7,0.8-1.6,1.2-2.5,1.6c-3.2,2.2-6.7,3.6-10.4,4.6c-0.3,0.2-0.5,0.2-0.8,0.2c-2.3-0.2-4.6-0.3-6.9,0.1c-1,0-2.1,0.1-2.8-0.8
			c-2.5-0.9-2.8-1.5-0.8-3.2c3.6-3.2,7.9-5.2,12-7.4C213.2,373.4,216,372.3,218.8,371z"/>
		<path class="st20" d="M129.1,319.1c0.7,0.5,1.5,1,2.2,1.5c-0.7,0.9-1.6,1.2-2.7,0.6c-0.6-0.9-1.5-0.5-2.3-0.5
			c-3.4,0.4-6.8,0.2-10.1,0.1c-3-0.8-6.1-0.3-9.1-0.4c-1-0.1-2,0.2-3-0.2c-6.3-1.2-12.7-2.2-18.5-5.4c0.6-1.8,2.2-0.9,3.3-1.2
			c1.7-0.5,3.5-0.4,5.2-0.1c2.2,0.6,4.5,0,6.7,0.4c1.3,0.4,2.5,0.5,3.8,0.1c0.6-0.1,1.2-0.2,1.8-0.2c1.2,0,2.4-0.1,3.6,0.2
			c1.3,0.4,2.6,0.5,4,0.6C119.2,315.5,124.3,316.9,129.1,319.1z"/>
		<path class="st21" d="M90,304.4c0.6-0.9,1.5-1,2.5-0.9c11.1,0.9,22.2,2.4,33,5c1.9,0.5,4.5,0.6,4.2,3.7c-2.5,0.5-4.9-0.4-7.3-0.4
			c-0.5,0.3-1.1,0.2-1.6,0.1c-0.9-0.4-2,0-2.8-0.7c-0.2,0-0.4,0-0.6,0c-1.5,0.3-3,0.5-4.4-0.1c-3.1-1.2-6.4-0.7-9.6-1.6
			C98.8,308.1,94.2,306.8,90,304.4z"/>
		<path class="st22" d="M216.5,313.9c0.1,1.5-0.6,2-2,1.6c-5.2-1.3-10.4-2.5-15.6-3.8c-1.9-0.5-3.6-1.5-4.4-3.4
			c-0.2-1.3,0.5-2,1.8-2.1c1.4-0.1,2.9-0.1,4.3,0.2c1.3-0.1,2.5,0.2,3.7,0.8c3.7,1.7,5.7,0.8,7.3-3c0.1-0.3,0.3-0.7,0.6-0.9
			c2.1,1.9,3.8,3.9,4.3,6.8C216.2,311.4,216.2,312.7,216.5,313.9z"/>
		<path class="st23" d="M212.2,303.3c-0.3,4.7-3.8,6.7-8.1,4.7c-1-0.5-2-0.9-3-1.3c-0.2-0.1-0.3-0.1-0.2-0.3c0-0.1,0.1-0.2,0.1-0.2
			c0.8-0.2,1.8-0.3,1.7-1.4c0-1-0.9-1.2-1.7-1.6c-1.2-0.5-2.4-1.1-3.5-1.7c-0.8-0.5-1.4-1.3-1.1-2.4c0.3-1.2,1.3-1.4,2.4-1.4
			c0.9,0,2,0.7,2.8-0.5c0.7,0,1-0.4,1-1.1C206.2,298,209.7,300.1,212.2,303.3z"/>
		<path class="st24" d="M265.3,302.8c-1.1,2.5-2,5-2.4,7.7c-0.6,4.2,0.3,7.9,3,11.4c1.9,2.5,4.3,5.1,2.6,8.8c-3.6-3-5.7-7-7.3-11.3
			c-0.3-0.7-0.2-1.7-1-2.2c-0.3-0.2-0.3-0.4-0.1-0.7c0.8-2.1,0.3-4.4,0.7-6.5C261.5,307.2,261.9,304.1,265.3,302.8z"/>
		<path class="st25" d="M305.2,351.9c-2.8-0.2-5.5-1.3-8.2-2.1c-2.1-0.6-1.6-2.4-2.2-3.7c-0.4-0.3-0.4-0.6-0.1-1
			c0.2-0.5,0.6-0.4,0.9-0.1c3.5,3,7.8,4.4,11.9,6.4C306.9,352.8,306,352,305.2,351.9z"/>
		<path class="st26" d="M222.8,324.5c-1.8-0.5-3.5-1.8-5.5-1c-0.2-0.1-0.4-0.3-0.5-0.5c-0.5-0.5-1.3-0.6-1.8-1.2c0-0.7,0-1.4,0-2.1
			c3.8,0.7,7.7,1.4,11.4,2.7c0.3,0.1,0.6,0.3,0.9,0.5c-1,0.4-2.2,0.4-3.1,0.1C222.2,322.2,222.9,323.7,222.8,324.5z"/>
		<path class="st27" d="M99.6,322.9c0.5-0.7,1.3-0.6,2-0.6c9.2,0,18.5,0,27.7,0c0.7,0,1.5-0.1,2,0.6c-3.9,0.6-7.8,0.1-11.7,0.3
			c-4.6,0-9.2,0-13.8,0C103.8,323,101.6,323.5,99.6,322.9z"/>
		<path class="st28" d="M129.1,319.1c-5-1.3-10-2.6-15.1-3.9c1.4-1.3,3.2-0.5,4.8-0.9c0.3,0,0.6,0.1,0.9,0.2
			c0.6,0.1,1.1,0.1,1.7,0.2c0.4,0.3,0.6,0.6,0.6,1c1.9,1.5,4.4,1.5,6.5,2.5C128.9,318.4,129.1,318.6,129.1,319.1z"/>
		<path class="st29" d="M276.8,301.2c-1.6,1.5-5.6,1.5-7.3,0c0.6-0.3,1.1-0.5,1.7-0.8c1.2-0.4,2.4-0.1,3.6-0.2
			C275.5,300.6,276.4,300.5,276.8,301.2z"/>
		<path class="st30" d="M94,314c-2.8,0.1-5.6-0.1-8.4,0.8c-0.5-0.1-0.9-0.3-1.1-0.8c0.1-1.5,1.4-1.2,2.3-1.3
			c1.9-0.1,3.9,0.1,5.8-0.2c0.5-0.1,1,0,1.4,0.3c0.6,0,1.1,0,1.7,0c0.4-0.2,0.8-0.2,1.1,0c0.1,0.2,0.1,0.5,0,0.8
			c-0.5,0.5-1.2,0.4-1.8,0.7C94.7,314.2,94.3,314.3,94,314z"/>
		<path class="st31" d="M157.5,310.6c-2.2,0.9-4.5,0.9-6.7,0c-0.2-0.1-0.3-0.3-0.3-0.5c0-0.2,0.2-0.4,0.3-0.5c0.4,0,0.7-0.1,1.1-0.1
			c1-0.4,2.1-0.1,3.2-0.2c0.3,0,0.5,0,0.8,0c0.4,0,0.7,0.2,1.1,0.4C157.3,309.9,157.5,310.2,157.5,310.6z"/>
		<path class="st32" d="M242.9,435.5c0.8,3.7,0.8,7.4,0,11.1C242,442.9,242.5,439.2,242.9,435.5z"/>
		<path class="st33" d="M208.8,318.5c-2.7,0.5-5.2,0.4-7.3-1.7C204,317.2,206.6,317.2,208.8,318.5z"/>
		<path class="st34" d="M119.6,322.9c3.9,0,7.8,0,11.7,0c0.6,0,1.1,0,1.7,0c0.2-0.2,0.4-0.2,0.6,0c-1.1,1.2-2.6,0.5-3.9,0.5
			c-3.4,0.1-6.8,0-10.1-0.1c-0.2-0.1-0.2-0.2-0.2-0.3C119.5,323,119.6,322.9,119.6,322.9z"/>
		<path class="st35" d="M201,306.2c0,0.2,0.1,0.3,0.1,0.5c-1.4,0-2.8,0.1-4.2,0c-1.4-0.1-2,0.5-2.5,1.7c-1.1-1.5-0.4-2.2,1.1-2.5
			C197.4,305.6,199.2,305.6,201,306.2z"/>
		<path class="st36" d="M96.8,312.9c-0.4-0.1-0.7-0.1-1.1-0.2c3-0.7,5.9-0.8,8.9,0.1c0,0.3-0.2,0.5-0.4,0.7
			c-0.2,0.2-0.5,0.3-0.8,0.4c-1.4,0.3-2.8,0-4.2-0.3C98.4,313.6,97.5,313.5,96.8,312.9z"/>
		<path class="st37" d="M104,320.2c4.1,0.1,8.3-0.7,12.3,0.4c-0.6,0.4-1.1,0.4-1.7,0C111.1,320.4,107.5,321.2,104,320.2z"/>
		<path class="st38" d="M94,312.8c-0.4,0.1-0.7,0.1-1.1,0.2c-0.1,0-0.3,0-0.4-0.1c-1.8-0.1-3.6,0-5.4,0c-1.2-0.1-2.5,0.4-3.6-0.5
			C87,311.7,90.6,310.8,94,312.8z"/>
		<path class="st39" d="M114.6,320.7c0.6,0,1.2,0,1.7,0c3.3,0,6.6,0.1,9.9,0.1C122.4,321.5,118.5,321.6,114.6,320.7z"/>
		<path class="st40" d="M118.2,329.5c1.9,0,3.8,0,5.7,0c1-0.2,2-0.4,3,0.1c-4.1,0.9-8.2,0.9-12.3,0
			C115.8,329.1,117,329.2,118.2,329.5z"/>
		<path class="st41" d="M119.1,314.6c-1.6,1-3.4,0.2-5.1,0.5c-1.3-0.2-2.7,0.3-3.9-0.6c0.3-0.5,0.7-0.8,1.3-1c0.6-0.2,1.1,0,1.6,0.3
			c0.4,0,0.8,0,1.1,0C115.7,314.3,117.6,313.4,119.1,314.6z"/>
		<path class="st42" d="M92.9,312.9c-1.7,0.9-3.5,0.2-5.3,0.5c-1,0.1-2.2-0.4-3.1,0.6c-1.7-0.2-1.7-0.2-1.1-1.2
			c1.3-0.4,2.6-0.1,4-0.2c1.8,0.1,3.7-0.2,5.5,0.2L92.9,312.9z"/>
		<path class="st43" d="M112.9,313.9c-0.6,0.1-1.1,0.1-1.7,0.2c-1.3,0.3-2.5,0.2-3.8,0.1c-0.4-0.4-0.4-0.8-0.1-1.3
			C109.2,313.4,111.4,311.7,112.9,313.9z"/>
		<path class="st27" d="M133.6,322.9c-0.2,0-0.4,0-0.6,0c-1-2.3-3.1-0.5-4.4-1.3c-0.1,0-0.1-0.1-0.1-0.2c0-0.1,0.1-0.2,0.1-0.2
			c1,0.3,1.8-0.5,2.7-0.6c1.1,0,2.3,0.1,2.9,1.3C134.1,322.3,134.1,322.7,133.6,322.9z"/>
		<path class="st44" d="M209.3,385.8c0.2,0.1,0.4,0.1,0.6,0.2c-0.2,0.3-0.4,0.8-0.6,0.8c-2.8,0.1-5.6,0.7-8.3-0.4
			c0.4-0.3,0.8-0.3,1.3-0.4c1.9-0.4,3.9,0.1,5.8-0.3C208.5,385.6,208.9,385.6,209.3,385.8z"/>
		<path class="st45" d="M119.1,314.6c-1.6-0.4-3.5,0.5-5-0.7c1.9-0.4,3.9-1.4,5.5,0.6C119.5,314.5,119.3,314.6,119.1,314.6z"/>
		<path class="st46" d="M203.8,359.8c0,0.7-0.4,1-1.1,1c-2.8-0.3-5.6,0.7-8.4-0.6c1.1-0.7,2.4-0.5,3.7-0.5c1.6,0,3.3,0.1,4.9-0.1
			c0.3-0.1,0.6-0.1,0.9,0L203.8,359.8z"/>
		<path class="st47" d="M220.2,398.2c-1.6,1.7-3.1,3.6-5.2,4.9C216.1,400.8,217.6,398.9,220.2,398.2z"/>
		<path class="st48" d="M136.4,312.3c1.3,0.3,2.1,1.3,2.5,2.4c0.2,0.7-0.7,0.9-1.4,0.9c-0.2-0.1-0.2-0.2-0.2-0.4
			c0-0.1,0.1-0.2,0.1-0.2c0.5-1.1-0.8-1-1.1-1.6C136,313.1,136,312.7,136.4,312.3z"/>
		<path class="st49" d="M251.1,339c2.8-1,5.6-0.4,8.5-0.4c0.1,0.1,0.1,0.2,0.2,0.2c-0.1,0.1-0.1,0.2-0.2,0.2c-1.9,0-3.7,0-5.6,0
			C253,339.4,252,339.5,251.1,339z"/>
		<path class="st50" d="M159.2,309c1.3,0.4,3-0.9,3.9,1c-0.2,0.2-0.4,0.4-0.7,0.4c-1-0.3-2.3,0.3-3.2-0.7
			C159.1,309.5,159.1,309.2,159.2,309z"/>
		<path class="st51" d="M260.2,316.8c-0.1,0.2-0.1,0.4,0,0.5c-1.3-2.1-0.5-4.4-0.5-6.6c0,0,0.1-0.1,0.2-0.1c0.1,0,0.2,0.1,0.2,0.1
			c0.9,1.7,0.4,3.4,0.4,5.2C260.5,316.2,260.4,316.5,260.2,316.8z"/>
		<path class="st52" d="M260.2,316.8c0-0.2,0-0.4,0-0.6c0.5-1.8-0.2-3.8,0.4-5.6c0-0.2,0.1-0.4,0.2-0.5
			C261.2,312.4,262.2,314.7,260.2,316.8z"/>
		<path class="st53" d="M301.9,328.5c0.7,1.5,0.6,3,0,4.4C301.1,331.4,301,329.9,301.9,328.5z"/>
		<path class="st54" d="M121.9,314.4c1.4-0.6,2.8-1.2,3.9,0.6c-0.1,0.1-0.2,0.2-0.3,0.3C124.2,315.1,122.7,316.1,121.9,314.4z"/>
		<path class="st55" d="M162.5,310.2c0.2-0.1,0.4-0.1,0.6-0.2c0.6,0.1,1.1,0.1,1.7,0.2c0.3,0.3,0.3,0.7,0,1c-1.2,1-2.1,0.6-2.8-0.6
			C162.1,310.4,162.3,310.2,162.5,310.2z"/>
		<path class="st56" d="M169.8,311.1c0-0.2-0.1-0.3-0.1-0.5c1.3-0.8,2.5-1.3,3.4,0.4c-0.2,0.1-0.4,0.1-0.6,0.2
			C171.6,311.5,170.7,311.7,169.8,311.1z"/>
		<path class="st57" d="M91.7,301.8c-0.8,1.1-2.8-0.5-3.3,1.4c-0.2,0.1-0.3,0.1-0.5,0.1c-0.6-0.5-1.9-0.7-1-1.9
			c1.3-0.5,2.7-0.2,4-0.2c0.3,0.1,0.6,0.2,0.8,0.4L91.7,301.8z"/>
		<path class="st58" d="M98.5,302.8c0-0.1,0-0.3-0.1-0.4c1.2-0.7,2.5-1.4,3.4,0.4c0,0,0,0.2,0,0.2
			C100.7,303.1,99.6,303.3,98.5,302.8z"/>
		<path class="st59" d="M242.9,429.5c0,0.7-0.1,1.4-0.1,2.1c-0.2,0.3-0.4,0.3-0.6,0c0-2,0-4.1,0-6.1c0.1,0,0.3,0,0.4,0
			C242.7,426.8,242.8,428.1,242.9,429.5z"/>
		<path class="st60" d="M93.5,302.2c0-0.1,0-0.3-0.1-0.4c1.2-0.7,2.5-1.4,3.4,0.4c0,0,0,0.2,0,0.2C95.7,302.6,94.5,302.8,93.5,302.2
			z"/>
		<path class="st61" d="M231.1,402c0.4-0.3,0.8-0.7,1.2-1c0.5,0,1.1,0,1.6,0c-0.1,1.2-0.8,2.1-1.6,2.9
			C232.2,403.1,233,401.8,231.1,402z"/>
		<path class="st28" d="M128,316.2c-1.1,1.3-1.6-0.2-2.3-0.6c-0.2-0.1-0.2-0.2-0.2-0.3c0.1-0.1,0.1-0.1,0.2-0.1c0,0-0.1-0.2-0.1-0.2
			c1.1,0.1,2.2,0.1,3.3,0.2C129.3,316.2,128.2,315.7,128,316.2z"/>
		<path class="st43" d="M189.3,313.9c-1.2,0.1-2.3,0.3-3.4-0.6C187.2,312.8,188.5,312.1,189.3,313.9z"/>
		<path class="st62" d="M99.6,322.9c2,0,4.1,0,6.1,0c0.2,0.1,0.2,0.2,0.2,0.3c-0.1,0.1-0.1,0.1-0.2,0.1c-2,0-4.1,0-6.1,0
			C99.6,323.2,99.6,323.1,99.6,322.9z"/>
		<path class="st63" d="M209.6,392.1c-1.2,1.2-2.3,2.3-3.5,3.5C206.4,393.5,207.6,392.4,209.6,392.1z"/>
		<path class="st64" d="M150.9,309.6c0,0.2-0.1,0.3-0.1,0.5c-0.9,0.4-1.8,0.2-2.7,0.1c-0.2-0.1-0.4-0.1-0.6-0.2
			C148.4,308.2,149.7,308.8,150.9,309.6z"/>
		<path class="st65" d="M136.4,308.5c-0.9-0.1-2,0-2.8-0.8c1.2-0.5,2.5-1.2,3.3,0.6C136.8,308.5,136.6,308.6,136.4,308.5z"/>
		<path class="st66" d="M110.2,303.9c-0.2,0.1-0.4,0.1-0.6,0.2c-1,0.3-2,0.4-2.8-0.6c0,0,0.1-0.2,0.1-0.2
			C108.1,302.8,109.3,302,110.2,303.9z"/>
		<path class="st67" d="M136.4,312.3c0,0.4,0,0.8,0,1.1c0,0-0.3,0-0.3,0l-0.3,0.1c-0.9-0.2-1.9,0.7-2.8-0.2
			C133.7,311.5,135.2,312.6,136.4,312.3z"/>
		<path class="st68" d="M198.8,373.5c2,0,4.1,0,6.1-0.1c-1.9,1.4-4.1,0.4-6.1,0.7c-0.2-0.1-0.3-0.3-0.2-0.4
			C198.6,373.6,198.7,373.5,198.8,373.5z"/>
		<path class="st69" d="M136.4,308.5c0.2-0.1,0.4-0.1,0.6-0.2c0.5,0.3,1.3-0.2,1.7,0.6C137.5,310.6,136.8,310.2,136.4,308.5z"/>
		<path class="st70" d="M91.8,301.6c-0.2,0-0.4,0-0.6,0c-1.3-0.4-2.7,0-4.1-0.2c-0.1-0.1-0.2-0.2-0.3-0.3
			C88.5,300.6,90.3,299.7,91.8,301.6z"/>
		<path class="st71" d="M125.8,315.2c0,0.2,0,0.3,0,0.5c-1.3,0-2.6,0-3.9,0c-0.4-0.2-0.5-0.6-0.6-1c0.2-0.1,0.4-0.1,0.6-0.2
			C123,315.5,124.5,314.9,125.8,315.2z"/>
		<path class="st72" d="M117.4,305c-1.2,0.4-2.2-0.3-3.3-0.5C115.3,303.9,116.6,303.2,117.4,305z"/>
		<path class="st73" d="M124.6,306.2c-0.9-0.3-2,0.4-2.8-0.6c0.9-0.9,1.9-0.9,2.8-0.1c0.1,0.1,0.2,0.3,0.1,0.4
			C124.7,306.2,124.7,306.2,124.6,306.2z"/>
		<path class="st74" d="M137.4,315.1c0.1,0.2,0.1,0.4,0,0.5c-0.2,0-0.3,0.1-0.5,0.1c-0.8,0.9-1.7,1-2.8,0.4c0-0.2-0.1-0.3-0.1-0.5
			C135,314.6,136.3,315.3,137.4,315.1z"/>
		<path class="st75" d="M260.6,310.6c-0.1,1.9,0.5,3.8-0.4,5.6c0-1.8,0-3.7-0.1-5.5C260.3,310.7,260.4,310.6,260.6,310.6z"/>
		<path class="st76" d="M124.6,306.2c0-0.2,0-0.4,0-0.6c1,0.2,2.4-0.7,2.8,1C126.5,306.6,125.4,307.2,124.6,306.2z"/>
		<path class="st77" d="M128,316.2c0.4-0.3,0.7-0.6,1.1-1c1.2,0.6,2.6,0.3,3.9,0.5C131.4,316.7,129.7,316,128,316.2z"/>
		<path class="st78" d="M276.8,301.2c-0.6-0.2-1.3,0.2-1.7-0.6c-0.3-0.2-0.3-0.4,0-0.6c1,0.2,2.4-0.7,2.8,1
			C277.6,301.1,277.2,301.2,276.8,301.2z"/>
		<path class="st79" d="M180.4,312.4c-0.9-0.4-2,0.4-2.8-0.6C178.7,311,179.8,310.5,180.4,312.4z"/>
		<path class="st80" d="M171.4,304.6c-0.5,0-1-0.1-1.6-0.1c1.4-0.9,2.9-0.4,4.4-0.4c0,0,0.1,0.1,0.1,0.2c0,0.1-0.1,0.2-0.1,0.2
			C173.3,305.2,172.4,305.1,171.4,304.6z"/>
		<path class="st81" d="M246.6,348.2c-1-0.9-2.1-1.7-2.6-3C245.6,345.6,246.6,346.5,246.6,348.2z"/>
		<path class="st82" d="M128,329.1c1.5-0.4,3,0.3,4.4-0.5C131.2,330.5,129.6,329.6,128,329.1z"/>
		<path class="st83" d="M164.8,311.2c0-0.3,0-0.7,0-1c1.3,0.2,2.6,0.4,3.9,0.6C167.5,311.6,166.1,311,164.8,311.2z"/>
		<path class="st84" d="M204.4,400.8c1.7,0,3.3,0,5,0C207.7,401.9,206,401.9,204.4,400.8z"/>
		<path class="st85" d="M212.6,405.4c-0.5,1.3-1.6,2.1-2.6,3C210.1,406.7,211.1,405.8,212.6,405.4z"/>
		<path class="st86" d="M223.3,325.1c0-0.2-0.1-0.3-0.1-0.5c1.2,0,2.4,0,2.8,1.5C225,326.3,224.2,325.4,223.3,325.1z"/>
		<path class="st59" d="M291.4,346.9c-0.3-1,0.2-1.9,0.5-2.8C292.3,345.1,293.4,346.3,291.4,346.9z"/>
		<path class="st87" d="M263.4,339.1c1.3,0.2,2.6,0.4,3.9,0.6c-1.3,0.9-2.6,0.5-3.9-0.1c-0.2-0.1-0.2-0.2-0.2-0.3
			C263.3,339.2,263.4,339.1,263.4,339.1z"/>
		<path class="st88" d="M299.1,316.8c0,1,0,2.1,0,3.1c-0.1,0.3-0.5,0.8-0.5,0.6c-0.1-1.2,0-2.5,0-3.8c0,0,0.2-0.1,0.2-0.1
			C299,316.7,299.1,316.8,299.1,316.8z"/>
		<path class="st89" d="M109.6,328.5c1.3,0.2,2.6,0.4,3.9,0.5C112.1,329.7,110.7,330.3,109.6,328.5z"/>
		<path class="st90" d="M305.2,351.9c0.7-0.2,1.6,0.2,2.2-0.5c0.5,0.1,1,0.2,1.4,1C307.5,352.5,306.3,352.5,305.2,351.9z"/>
		<path class="st91" d="M113,311.1c1.5,0,3,0.1,4.4,0.1C115.9,311.9,114.4,312.1,113,311.1z"/>
		<path class="st92" d="M176.5,311.9c-1.1,0.6-2.1,1.1-2.8-0.6C174.8,310.8,175.5,311.8,176.5,311.9z"/>
		<path class="st93" d="M299,331.8c-1.2-1,0.3-1.8,0.2-2.8c0.1,0,0.3,0,0.4,0c0.6,0.9,0.5,1.8,0,2.8
			C299.4,331.8,299.2,331.8,299,331.8z"/>
		<path class="st94" d="M287.5,306.2c-1.3-0.3-2.6-0.5-2.8-2.1C285.6,304.7,286.8,305.1,287.5,306.2z"/>
		<path class="st95" d="M120.7,311.7c0.6,0,1.1,0.1,1.7,0.1c-1.5,0.7-3,0.8-4.4-0.1C118.9,311.3,119.8,311.4,120.7,311.7z"/>
		<path class="st96" d="M107.4,312.9c0,0.3,0,0.7,0,1c-0.3,0.4-0.7,0.3-1.1,0.3c-0.7-0.3-1.7,0-2.3-0.8c0.2-0.2,0.4-0.3,0.6-0.5
			C105.5,312.8,106.4,312.9,107.4,312.9z"/>
		<path class="st97" d="M297,321.8c-0.1-0.2-0.1-0.4-0.2-0.6c-0.8-1.3-0.7-2.6,0-3.9c0,0,0.2,0.1,0.2,0.1
			C297.7,318.8,297.7,320.3,297,321.8z"/>
		<path class="st98" d="M155.8,309.4c-1.3,0-2.6,0-3.8,0c1.2-0.9,2.6-0.3,3.9-0.5c0.2,0.1,0.3,0.2,0.2,0.3
			C156,309.4,155.9,309.4,155.8,309.4z"/>
		<path class="st99" d="M216.5,313.9c-0.7-1.3-0.7-2.6,0-3.8C216.8,311.4,216.8,312.7,216.5,313.9z"/>
		<path class="st100" d="M236.6,333.5c1.5-1,1.5,0.3,1.7,1.1C237.5,334.6,237,334.2,236.6,333.5z"/>
		<path class="st51" d="M263.4,339.1c0,0.2,0,0.3,0,0.5c-1.3-0.2-2.7,0.5-3.9-0.5c0,0,0,0,0,0c0.9-0.4,1.9-0.4,2.8,0
			C262.7,339,263.1,339.1,263.4,339.1z"/>
		<path class="st101" d="M226.5,434.3c0.8-0.8,1.6-1.6,2.4-2.4C228.8,433.5,228,434.3,226.5,434.3z"/>
		<path class="st69" d="M132.5,307.8c-0.2,0.3-0.3,0.8-0.5,0.9c-0.8,0.1-0.8-0.8-1.2-1.3C131.4,307.4,132.1,307.1,132.5,307.8z"/>
		<path class="st102" d="M275.1,300c0,0.2,0,0.4,0,0.6c-1.3,0-2.6-0.1-3.9-0.1C272.5,299.6,273.9,300.2,275.1,300z"/>
		<path class="st103" d="M262.9,385.9c-0.1-1.4-0.1-2.8,0.4-4.1c0,1.4,0,2.7,0.1,4.1C263.3,386.1,263.1,386.1,262.9,385.9z"/>
		<path class="st43" d="M133,313.3c0.9,0.5,1.9-0.7,2.8,0.2c-1.1,0.7-2.3,0.8-3.3-0.2C132.7,313.4,132.8,313.4,133,313.3z"/>
		<path class="st104" d="M222.1,436.9c-1.2,1.3-2.5,1-3.8,0.2C219.6,436.7,220.8,436.9,222.1,436.9z"/>
		<path class="st105" d="M87.3,312.8c-1.3,0-2.6,0-3.9,0c0-0.2,0-0.3,0-0.5c1.3,0,2.6,0,3.9,0.1C87.3,312.5,87.3,312.6,87.3,312.8z"
			/>
		<path class="st106" d="M262.3,391.9c0-0.5,0.1-1,0.1-1.5c0.8,1.1,0.5,2.2,0.2,4.2C262.4,393.1,262.3,392.5,262.3,391.9z"/>
		<path class="st107" d="M262.9,385.9c0.2,0,0.3,0,0.5,0c0,1.1,0,2.2,0,3.3c-0.1,0-0.3,0-0.4,0c-0.1-0.6-0.2-1.2-0.2-1.8
			C262.8,386.9,262.9,386.4,262.9,385.9z"/>
		<path class="st108" d="M222.1,436.9c-1.3,0.1-2.6,0.1-3.8,0.2c-0.1-0.1-0.1-0.3-0.2-0.4c1.4,0,2.7,0,4.1-0.1
			C222.2,436.7,222.2,436.8,222.1,436.9z"/>
		<path class="st109" d="M259,331.2c0.2,0.1,0.8,0.4,0.4,0.5c-1.1,0.1-2.3,0.6-3.2-0.5C257.1,331.2,258,331.2,259,331.2z"/>
		<path class="st110" d="M198.2,360.2c-1.3,0-2.6,0-3.9,0c0-0.2,0-0.3,0-0.4c0.2-0.1,0.4-0.1,0.6-0.2c1-0.3,2.1-0.2,3.2-0.1
			C198.4,359.7,198.4,359.9,198.2,360.2z"/>
		<path class="st59" d="M216,434.4c0.1,0.2,0.1,0.3,0,0.5c-1.8-0.9-1.2-2.1-0.4-3.3C216,432.5,215.5,433.5,216,434.4z"/>
		<path class="st39" d="M251.1,339c1,0,1.9,0,2.9,0.1c-1.3,0.9-2.6,0.8-3.9,0C250.4,339.1,250.7,339,251.1,339z"/>
		<path class="st42" d="M105.7,303.5c-0.9,0.5-1.9,0.9-2.8-0.1C103.8,303.4,104.8,303.4,105.7,303.5z"/>
		<path class="st82" d="M189.9,359.6c1.1,0,2.2,0.1,3.3,0.1C192.1,360.4,191,360.6,189.9,359.6z"/>
		<path class="st111" d="M126.9,329.6c-1,0-2-0.1-3-0.1c1.1-0.9,2.3-0.3,3.5-0.4C127.2,329.3,127.1,329.4,126.9,329.6z"/>
		<path class="st112" d="M118.2,329.5c-1.2,0-2.4,0-3.5,0.1c0-0.2,0-0.3,0-0.5C115.8,329.1,117.1,328.6,118.2,329.5z"/>
		<path class="st113" d="M87,301.7c-0.2,0.8,0.8,1,1,1.7c-1.4-0.2-2.4-0.6-1.2-2.2c0,0,0,0.1,0,0.1c0.1,0.1,0.2,0.1,0.2,0.3
			C87,301.6,87,301.7,87,301.7z"/>
		<path class="st114" d="M155.8,309.4c0-0.2,0-0.3,0-0.5c1.1,0,2.2,0,3.4,0c0,0.2,0,0.3,0,0.5c-0.1,0.1-0.2,0.2-0.3,0.3
			c-0.9,0.5-1.7,0.1-2.5-0.1C156.2,309.6,156,309.5,155.8,309.4z"/>
		<path class="st82" d="M198.8,373.5c0,0.2,0,0.4,0,0.6c-0.9-0.1-2,0.4-2.8-0.5c0.4-0.5,1-0.2,1.5-0.3
			C198,373.4,198.4,373.5,198.8,373.5z"/>
		<path class="st115" d="M242.3,431.6c0.2,0,0.4,0,0.6,0c0,1.1-0.1,2.2-0.1,3.3C241.9,433.9,242.4,432.7,242.3,431.6z"/>
		<path class="st116" d="M220.3,381.4c0.7-0.7,1.5-1.3,2.5-1.6C222.5,381.1,221.4,381.3,220.3,381.4z"/>
		<path class="st117" d="M188.7,310.2c0.5-0.2,1-0.5,1.6-0.7c0.5,0.2,0.7,0.6,0.7,1.1c-0.7,0.6-1.4,0.5-2.2,0.1
			C188.8,310.5,188.7,310.3,188.7,310.2z"/>
		<path class="st118" d="M186,313.5c-0.9,0.2-2,1.6-2.3-0.6C184.4,313.2,185.2,313.3,186,313.5z"/>
		<path class="st119" d="M222.2,418.2c-0.4,0.9-0.8,1.8-1.6,2.5C220.6,419.5,220.8,418.5,222.2,418.2z"/>
		<path class="st120" d="M202.2,386.4c-0.4,0-0.8,0-1.2,0c-0.7,0-1.6,0.1-1.7-1c0.9,0.2,1.8,0.7,2.8,0.4c0.1,0.1,0.1,0.2,0.2,0.3
			C202.3,386.2,202.2,386.3,202.2,386.4z"/>
		<path class="st121" d="M197.6,373.3c-0.5,0.1-1,0.2-1.5,0.3c-0.5,0-0.9-0.1-1.1-0.7C195.8,373.1,196.7,373.2,197.6,373.3z"/>
		<path class="st91" d="M182.6,358.5c0.9,0.1,1.8,0.1,2.7,0.2C184.4,359.3,183.5,359.5,182.6,358.5z"/>
		<path class="st122" d="M212.9,389.3c-0.5,0.6-1,1.3-1.9,1.5C211.2,389.6,211.9,389.2,212.9,389.3z"/>
		<path class="st123" d="M294.6,345.2c0,0.3,0.1,0.6,0.1,1c-0.1,0.4-0.1,0.8-0.3,1.8C294,346.6,293.8,345.9,294.6,345.2z"/>
		<path class="st124" d="M222,393.1c0.5-0.6,1-1.3,1.9-1.5C223.7,392.7,223.1,393.1,222,393.1z"/>
		<path class="st125" d="M204.2,398.1c-0.2,0.7-0.5,1.4-0.2,2.2C202.8,399.5,202.8,398.7,204.2,398.1z"/>
		<path class="st126" d="M236.1,337.3c-0.9-0.2-1.4-0.8-1.9-1.5C235.3,335.7,236,336.1,236.1,337.3z"/>
		<path class="st107" d="M261.1,400.2c0-0.3,0.1-0.6,0.1-1c0.7,0.6,0.6,1.4,0.3,2.6C261.3,401,261.2,400.6,261.1,400.2z"/>
		<path class="st127" d="M299.6,331.8c0-0.9,0-1.9,0-2.8C300.5,329.9,300.5,330.9,299.6,331.8z"/>
		<path class="st80" d="M155.7,289.5c-0.3,0-0.6,0-1-0.1c0.6-0.8,1.3-0.6,2.2-0.5C156.7,289.7,156.1,289.3,155.7,289.5z"/>
		<path class="st128" d="M260.6,403.6c0-0.3,0.1-0.7,0.1-1c0.7,0.7,0.6,1.5,0.2,2.7C260.7,404.5,260.7,404,260.6,403.6z"/>
		<path class="st51" d="M97.9,323.4c-0.7,0.1-1.4,0.1-2.1,0.2C96.4,322.2,97.2,323,97.9,323.4z"/>
		<path class="st129" d="M246.2,409.9c0,0.3-0.1,0.7-0.1,1c-0.7-0.7-0.6-1.5-0.1-2.6C246.1,409.1,246.1,409.5,246.2,409.9z"/>
		<path class="st130" d="M223.4,416c-0.1,0.9-0.5,1.6-1.2,2.1C222.2,417.2,222.3,416.3,223.4,416z"/>
		<path class="st131" d="M120.7,311.7c-0.9,0-1.8,0-2.8,0c0-0.2,0-0.3,0-0.5C118.9,311.2,119.9,310.9,120.7,311.7z"/>
		<path class="st59" d="M188.8,310.6c0.7,0,1.5-0.1,2.2-0.1C190.3,311.3,189.5,311.7,188.8,310.6z"/>
		<path class="st132" d="M216,434.4c-0.8-0.8-0.4-1.8-0.3-2.8c0.1,0,0.3,0,0.4,0C216,432.5,216,433.4,216,434.4z"/>
		<path class="st133" d="M176,308.3c0.4-0.6,1.1-0.5,1.7-0.5c0.2,0,0.6,0,0.4,0.3c-0.1,0.2-0.4,0.2-0.7,0.3
			C176.9,308.4,176.5,308.4,176,308.3z"/>
		<path class="st134" d="M120.7,305.7c-1,0.6-1.9,0.8-2.7-0.2C118.9,305.6,119.8,305.7,120.7,305.7z"/>
		<path class="st135" d="M171.4,304.6c0.9,0,1.9,0,2.8,0c0,0.1,0,0.3,0,0.4c0,0,0,0.2,0,0.2c-0.9,0.1-1.8,0.4-2.7-0.2
			C171.5,304.8,171.5,304.7,171.4,304.6z"/>
		<path class="st136" d="M177.1,327.3c0.5,0,1,0,1.5,0c2,0.7,4.2,0.9,5.6,2.8c-0.4,1.1-0.7,1.6-2.3,1.2c-4.1-0.9-8.2-2-12.1-3.5
			c-0.7-0.4-1.2-0.8-0.7-1.7c1.4-2.2,2.7-0.2,4,0.1C174.4,326.8,175.8,327,177.1,327.3z"/>
		<path class="st137" d="M192.6,321.8c0.2,0,0.4,0,0.6,0c1.1,1,2.6,1,4,1.6c0.7,0,1.4,0.2,2.1,0.5c1,0.4,2.8,0.3,2.2,2
			c-0.3,0.8-1.9,1-3,0.7c-2.4-0.7-4.9-1.3-7.4-1.5c-1.2,0-2.3-0.6-3.3-1.2c-1.4-0.8-1.4-1.7,0-2.6c0.6,0.1,1.3-0.3,1.6,0.5
			C190.4,322,191.5,321.8,192.6,321.8z"/>
		<path class="st138" d="M159.8,330c2,0.6,4,1.2,5.9,1.8c0.9,0.3,2,0.5,2.4,1.6c-0.3,1.8-1.4,1.7-2.8,1.2c-1.3-1.1-3-0.4-4.4-0.7
			c-1.3,0.2-2.2-0.8-3.3-1c-1.2-1-2.2-1.9-0.1-3C158.2,329.5,159,329.5,159.8,330z"/>
		<path class="st139" d="M197.7,336.4c-1.9-0.6-3.9-1.3-5.9-1.6c-2-0.3-1.5-1.2-0.9-2.4c1.1-1,2.4-0.4,3.6-0.6
			c0.9,0.2,1.9,0.1,2.5,1c1.1,0.4,2.1,0.8,3.2,1.1c0.6,0.2,1.3,0.1,1.2,1c0,0.9,0.3,1.9-1.1,2C199.4,337.3,198.6,336.7,197.7,336.4z
			"/>
		<path class="st140" d="M177.6,339c-0.7,0-1.5,0-2.2,0.1c-1-0.5-2.4-0.6-2.4-2.2c0.3-0.5,0.5-1,1.2-1c1.3,0.5,2.7,0.1,4.1,0.2
			c1,0.1,2,0.8,3.1,0.3c2-0.1,3.5,1.1,5.1,2.1c0.6,1.8-0.8,1.6-1.8,1.8c-0.2,0-0.4-0.1-0.5-0.2c-0.9-0.3-2-0.3-2.8-0.8
			C180.2,339,178.9,339.2,177.6,339z"/>
		<path class="st141" d="M162.5,319.6c-2.1,0-2-1-1-2.3c1.5-0.6,3-0.8,4.5,0c1.3,0.2,2.7-0.2,4,0.3c1.1,0.5,2.6,0.7,2.5,2
			c-0.1,1.5-1.7,0.9-2.7,1.1c-0.9,0.2-1.9,0.4-2.7-0.1c-0.2-0.2-0.4-0.4-0.6-0.6C165.2,319.3,163.8,319.9,162.5,319.6z"/>
		<path class="st142" d="M207.7,339c-2-2.2-1.2-4.5,0-6.7c0.2-0.2,0.5-0.2,0.7,0c0.1,0.2,0.1,0.5,0.1,0.8c0,1.3,0,2.6,0,3.9
			c0,0.3,0,0.5,0,0.8C208.4,338.4,208.2,338.8,207.7,339z"/>
		<path class="st143" d="M184.3,330.2c-1.9-0.9-3.7-1.9-5.6-2.8c2.5-1.1,4.2,1.1,6.2,1.7C185.4,329.2,184.7,329.9,184.3,330.2z"/>
		<path class="st144" d="M187.7,321.2c-1,1.2-0.8,2.1,0.7,2.7c0.9,0.4,1.7,0.8,2.6,1.2c-1.9,0.4-5-1-5.2-2.5
			C185.6,321.3,186.9,321.4,187.7,321.2z"/>
		<path class="st145" d="M193.2,350.8c-3.9,0.8-7.8,0.9-11.7,0C185.4,350.8,189.3,350.8,193.2,350.8z"/>
		<path class="st146" d="M208.8,337.4c1.1,1.8,0.3,3.7,0.5,5.6c0.3,0.5,0,0.6-0.5,0.5c-0.2-0.2-0.4-0.4-0.6-0.6
			c-0.7-1.7-0.3-3.3-0.2-5l0.2,0C208.4,337.7,208.6,337.5,208.8,337.4z"/>
		<path class="st147" d="M194.9,332.2c-1.3,0-2.6,0.1-3.9,0.1c-1.2-0.4-0.8-0.9,0.1-1c1.3-0.2,2.6-0.1,3.9-0.1
			C195.2,331.6,195.2,331.9,194.9,332.2z"/>
		<path class="st148" d="M208.3,332.9c-0.1-0.2-0.1-0.4-0.2-0.6c-0.2-1.1-0.4-2.2,0.2-3.3c0.1,0,0.3,0,0.4-0.1c1,1.3,0.9,2.6,0,3.9
			C208.6,333.2,208.5,333.2,208.3,332.9z"/>
		<path class="st149" d="M162.5,319.6c1.4-0.8,2.8-1.3,4,0.4c-0.2,0.1-0.4,0.1-0.6,0.2c-1.1,0.4-2.2,0.1-3.3-0.2
			C162.6,319.9,162.5,319.8,162.5,319.6z"/>
		<path class="st150" d="M177.6,339c1.3-0.7,2.6-0.8,3.9,0.1c0.1,0.1,0.2,0.3,0.1,0.4c-0.1,0.1-0.1,0.2-0.2,0.2c-0.4,0-0.7,0-1.1,0
			c-0.7,0.2-1.5,0.4-2.2-0.1C178,339.4,177.8,339.2,177.6,339z"/>
		<path class="st151" d="M157.6,333c1.3-0.2,2.4,0,3.3,1C159.2,335.6,158.6,333.6,157.6,333z"/>
		<path class="st83" d="M162.5,310.2c-0.2,0.2-0.4,0.3-0.5,0.5c-1.5,0-3,0-4.5,0c-0.2-0.2-0.4-0.4-0.5-0.5c0.6-0.6,1.5,0,2.2-0.5
			c0,0,0-0.2,0-0.2C160.2,310.4,161.4,309.9,162.5,310.2z"/>
		<path class="st152" d="M197.2,323.4c-1.5-0.1-3.1,0.2-4-1.6C194.7,322,196.1,322.4,197.2,323.4z"/>
		<path class="st153" d="M165.3,334.7c1.1,0,2.2,0,2.8-1.2c1,0.9,0.2,1.2-0.5,1.7C166.8,335.7,165.9,335.8,165.3,334.7z"/>
		<path class="st154" d="M184.8,340.2c0.4-0.8,1.9-0.5,1.8-1.8c0.5,0.3,1.4,0.9,0.9,1.3C186.8,340.3,185.9,341.5,184.8,340.2z"/>
		<path class="st155" d="M159.8,330c-0.8,0-1.6,0-2.4,0c0.5-2.1,1.9-0.6,2.9-0.8C160.2,329.5,160,329.7,159.8,330z"/>
		<path class="st156" d="M173,336.8c0.4,1.1,1.6,1.5,2.4,2.2C172.9,338.8,172.3,338.3,173,336.8z"/>
		<path class="st155" d="M214.9,321.8c0.9,0.1,2.1-0.4,2.2,1.2c-0.9,0.3-1.9,0.5-2.8-0.1C214.4,322.4,214.5,322,214.9,321.8z"/>
		<path class="st157" d="M181.5,339.7c0-0.2,0-0.4,0-0.6c1,0.2,2.4-0.7,2.8,1c0,0,0,0.2,0,0.2c-0.9,0.2-1.9,0.4-2.8-0.2
			C181.5,340,181.5,339.8,181.5,339.7z"/>
		<path class="st158" d="M208.2,337.9c0.1,1.7,0.1,3.3,0.2,5c-1.2-1.1-0.4-2.6-0.6-3.9C207.8,338.7,208,338.3,208.2,337.9z"/>
		<path class="st159" d="M177.1,327.3c-1.4,0.1-2.9,0.2-4-1C174.7,326,175.9,326.5,177.1,327.3z"/>
		<path class="st160" d="M189.9,321.7c0.2-1.2,1.1-1,1.9-1c0.7,0,0.5,0.6,0.3,1C191.4,322.2,190.6,322.2,189.9,321.7z"/>
		<path class="st161" d="M169.1,326.2c0.2,0.6,0.5,1.1,0.7,1.7c-0.7,0-1.6,0.2-1.9-0.6C167.7,326.4,168.5,326.3,169.1,326.2z"/>
		<path class="st162" d="M178.7,336.3c-1.5-0.2-3.1,0.5-4.5-0.5c1.5,0,3,0,4.5,0c0.1,0.1,0.2,0.2,0.1,0.3
			C178.8,336.2,178.8,336.3,178.7,336.3z"/>
		<path class="st163" d="M178.7,336.3c0-0.2,0-0.3,0-0.5c1-0.4,1.8,0.5,2.8,0.5C180.5,337,179.6,337.1,178.7,336.3z"/>
		<path class="st164" d="M166,317.3c-1.5,0-3,0-4.5,0c0-0.8,0.7-0.5,1.1-0.7c0.9-0.3,1.8-0.3,2.8,0
			C165.6,316.9,165.8,317.1,166,317.3z"/>
		<path class="st165" d="M214.4,322.8c0.9,0,1.8,0.1,2.8,0.1c0,0.2,0.1,0.3,0.1,0.5c-1.3,0-2.7,0-4,0
			C213.4,322.8,214,322.9,214.4,322.8z"/>
		<path class="st166" d="M162.6,320c1.1-0.5,2.2,0.3,3.3,0.2C164.7,320.9,163.6,321,162.6,320z"/>
		<path class="st167" d="M106.8,303.5c0.9,0.2,1.9,0.4,2.8,0.6C108.5,304.4,107.4,305.4,106.8,303.5z"/>
		<path class="st168" d="M208.9,343.5c0.2-0.2,0.3-0.4,0.5-0.5c0.8,0.9,0.8,1.8,0,2.8c-0.2-0.4-0.4-0.7-0.6-1.1
			C208.8,344.3,208.9,343.9,208.9,343.5z"/>
		<path class="st169" d="M197.7,336.4c1-0.4,1.8,0.5,2.8,0.6C199.3,337.8,198.4,337.5,197.7,336.4z"/>
		<path class="st83" d="M93.5,302.2c1.1,0.1,2.2,0.1,3.4,0.2C95.7,303,94.5,303.2,93.5,302.2z"/>
		<path class="st170" d="M98.5,302.8c1.1,0.1,2.2,0.1,3.3,0.2C100.7,303.6,99.5,303.8,98.5,302.8z"/>
		<path class="st171" d="M194.9,332.2c0-0.3,0-0.6,0-1c0.7,0.6,2.1,0.2,2.3,1.5C196.4,332.6,195.6,332.4,194.9,332.2z"/>
		<path class="st172" d="M208.3,329c-0.1,1.1-0.1,2.2-0.2,3.3c-0.2,0-0.3,0-0.5,0C207.9,331.2,207.2,330,208.3,329z"/>
		<path class="st173" d="M189.9,321.7c0.7,0,1.5,0,2.2,0c0.2,0.1,0.4,0.1,0.5,0.2c-1.1,0.7-2.3,0.9-3.3-0.2
			C189.5,321.7,189.7,321.7,189.9,321.7z"/>
		<path class="st174" d="M148.1,310.2c0.9-0.5,1.8-0.4,2.7-0.1c0,0.2,0,0.4,0,0.6C149.9,310.5,148.9,311,148.1,310.2z"/>
		<path class="st41" d="M134.2,316.2c1,0.2,1.9,0,2.8-0.4C136.2,317.3,135.2,317,134.2,316.2z"/>
		<path class="st77" d="M181.5,340.1c0.9,0.1,1.9,0.1,2.8,0.2C183.3,340.9,182.4,341.1,181.5,340.1z"/>
		<path class="st175" d="M178.2,339.6c0.7,0,1.4,0.1,2.2,0.1C179.6,340.2,178.9,340.7,178.2,339.6z"/>
		<path class="st83" d="M167,320.6c0.9,0,1.8,0.1,2.7,0.1C168.8,321.4,167.9,321.5,167,320.6z"/>
		<path class="st176" d="M165.3,316.7c-0.9,0-1.8,0-2.8,0C163.5,315.9,164.4,316,165.3,316.7z"/>
		<path class="st177" d="M169.8,311.1c0.9,0,1.8,0.1,2.8,0.1C171.6,311.9,170.7,312.1,169.8,311.1z"/>
		<path class="st178" d="M258.9,384.7c-0.1,0.6-0.3,1.3-0.5,1.9c-0.2,0.6-0.6,1.3-1.3,1.2c-0.8-0.1-1.3-0.7-1.4-1.5
			c-0.1-3.9,1.2-7.5,2.1-11.1c0.1-0.6,0.9-1,1.6-0.8c0.7,0.2,0.9,0.9,0.9,1.6c-0.1,1.5-0.1,3-0.7,4.4c-0.4,0.3-0.3,0.9-0.4,1.3
			C258.9,382.6,258.4,383.6,258.9,384.7z"/>
		<path class="st179" d="M240,367.3c2.1-2.5,5.1-3.3,8-4.4c1-0.4,2-0.7,2.6,0.5c0.5,1.2-0.5,1.6-1.3,2c-2.7,1.4-5.4,2.7-8.1,4.1
			C239.7,369.4,239.5,368.5,240,367.3z"/>
		<path class="st179" d="M237.8,386.4c-0.8-0.4-0.7-1.1-0.3-1.6c1.9-2.5,4.5-4.3,7.1-6c0.5-0.4,1.1,0,1.5,0.4
			c0.6,0.7,0.3,1.4-0.3,1.9c-1.9,2-3.7,4.1-6.4,5.2C238.9,386.1,238.4,386.5,237.8,386.4z"/>
		<path class="st178" d="M244.5,393.1c0.9-3.5,4.2-5.2,5.8-8.2c0.3-0.5,1-0.5,1.5-0.1c0.5,0.4,0.6,1,0.3,1.5
			c-2.3,2.8-3.5,6.2-6.1,8.7c-0.5,0.5-1.1,0.7-1.6-0.1C244.4,394.3,244.9,393.7,244.5,393.1z"/>
		<path class="st180" d="M249.4,378c-1.1-0.2-1.3-0.9-1-1.8c0.9-3.1,3.3-5.2,5-7.8c0.2-0.4,0.6-0.4,1-0.2c0.5,0.3,0.9,0.8,0.8,1.4
			c-0.9,3.3-3,5.8-5.2,8.2C249.8,377.9,249.6,377.9,249.4,378z"/>
		<path class="st181" d="M252.9,398.1c-0.1-1.7,0.8-3.2,1.3-4.8c0.2-0.7,0.8-1.4,1.6-1.1c0.9,0.2,1.1,0.9,1,1.7
			c-0.4,2.5-0.7,5-1.3,7.4c-0.3,1.1-0.9,2.7-2.6,1.3C252.6,401.1,253.2,399.6,252.9,398.1z"/>
		<path class="st182" d="M252.9,398.1c0.8,1.5,0.8,3,0,4.4C251.8,401.1,252.5,399.6,252.9,398.1z"/>
		<path class="st183" d="M240,367.3c-0.1,1,0.3,1.7,1.1,2.2c-0.6,0.3-1.3,0.5-1.7-0.3C239.1,368.5,239.3,367.8,240,367.3z"/>
		<path class="st184" d="M258.9,384.7c-0.7-1.1-0.8-2.2,0.1-3.3c0.4,0.6,0.3,1.3,0.1,1.9C259,383.8,258.9,384.3,258.9,384.7z"/>
		<path class="st185" d="M259.1,383.3c0-0.6-0.1-1.3-0.1-1.9c0-0.5,0.1-0.9,0.6-1.1C259.5,381.3,259.7,382.4,259.1,383.3z"/>
		<path class="st186" d="M237.8,386.4c0.5-0.7,1.1-0.7,1.6-0.1C238.9,386.5,238.4,387.3,237.8,386.4z"/>
		<path class="st187" d="M244.5,393.1c0.8,0.6,0.7,1.2-0.1,1.7C243.7,394.2,244.1,393.7,244.5,393.1z"/>
		<path class="st188" d="M286.8,315.7c1.1,2.1,2.6,4.1,2.8,6.6c0.7,2.7,1.1,5.4-0.6,8c0.6,2-0.8,2.1-2.2,2.2c-1,0.9-2.3,0.7-3.5,0.7
			c-1.1-0.1-1.9-0.5-2.8-1.1c-1.5-1.1-2.9-2.3-3.7-4.1c-1.2-2.9-2.9-5.7-3.3-8.9c0.1-0.2,0.2-0.3,0.4-0.5c0.2-0.2,0.4-0.4,0.6-0.7
			c0.3-0.4,0.5-0.8,1.1-0.6c1.4,2.6,2,5.5,3.7,7.9c1.2,1.9,2.6,3.6,4.7,4.4c1,0.4,2,0.7,2.4-0.7c-0.5-0.5-1.2-0.1-1.7-0.2
			c-2.7-1-3.7-3.1-3.9-5.8c0.3-1.3,0.3-2.7,0-4c-0.1-2.3,1.4-3.1,3.2-3.7c0.5-0.2,1-0.5,1.5-0.5
			C286.3,314.8,286.6,315.2,286.8,315.7z"/>
		<path class="st189" d="M285.8,315.1c-0.4,0.2-0.8,0.4-1.2,0.6c-1.3-0.2-1.9-1.3-2.9-2c-3.1-2-5.1-1.3-6,2.2
			c-0.1,0.4-0.2,0.9-0.5,1.2c-0.1,0.5-0.1,1-0.7,1.3c-1.2-1.3-0.5-2.9-0.9-4.4c0-0.5,0.1-0.9,0.4-1.3c1.1-2,4.2-3.2,6.3-2.3
			c0.9,0.4,1.8,0.9,2.6,1.3C284.4,312.4,285.7,313.2,285.8,315.1z"/>
		<path class="st190" d="M281.8,336.2c-1.4-1.4-3.6-0.9-5-2.2c-0.2-0.2-0.3-0.4-0.3-0.6c0.3-1,1.4-0.7,2.1-1.2c0.5,0,1,0.2,1.4,0.4
			c2.2,1.2,4.5,0.9,6.9,0.9c0.5,1,0.5,1-1.1,2.7C284.4,336.7,283.1,336.7,281.8,336.2z"/>
		<path class="st191" d="M279.6,333c-0.4-0.2-0.7-0.4-1.1-0.5c-0.6,0.2-1-0.1-1.4-0.4c-0.7-1.3-2.6-1.7-2.5-3.5
			c0.4-0.6,0.8-0.5,1.3-0.1c0.7,0.6,0.9,0.1,1-0.5c1.3,1.2,2.6,2.3,3.9,3.5C281.4,332.6,280.4,332.7,279.6,333z"/>
		<path class="st192" d="M279.6,333c0.3-0.6,1.2-0.8,1.1-1.6c0.9,0.1,1.2,1.3,2.2,1.1c1.3,0.5,2.7-0.1,3.9,0.4c0,0.2,0,0.4,0,0.7
			C284.3,335,281.9,334.3,279.6,333z"/>
		<path class="st193" d="M274.5,328.5c0.7,1.3,2.4,1.7,2.9,3.3c-1.1,1-1.9-0.6-2.9-0.3c-0.2,0-0.4-0.1-0.5-0.3
			c-0.6-1.2-1.4-2.3-1.6-3.6C273.6,327,273.8,328.3,274.5,328.5z"/>
		<path class="st194" d="M285.8,315.1c-1-1.1-1.9-2.2-2.9-3.3c2-0.1,3.5,1.4,3.9,3.9C286.5,315.5,286.1,315.3,285.8,315.1z"/>
		<path class="st195" d="M274,312.8c0,0.4,0,0.8,0,1.2c0.4,1.7,0.4,3.3,0,5c-0.2,0-0.3,0-0.5,0c-0.2-0.4-0.5-0.7-0.7-1.1
			c-0.1-1.1-0.1-2.2,0-3.3C272.9,313.7,273.3,313.1,274,312.8z"/>
		<path class="st196" d="M289.1,330.2c0.8-2.6,0.4-5.3,0.6-8c0.6,0.2,0.5,0.7,0.6,1.1c0.6,1.5-0.1,3.1,0.4,4.5
			C290,328.6,290.7,330.2,289.1,330.2z"/>
		<path class="st55" d="M296.8,317.3c0,1.3,0,2.6,0,3.9C294.5,319.6,294.5,319,296.8,317.3z"/>
		<path class="st197" d="M274,331.2c0.2,0,0.3,0.1,0.5,0.2c1.3,0.2,1.8,1.1,2.2,2.2c0,0.1,0.1,0.3,0.1,0.4
			C275.1,333.9,274.4,332.7,274,331.2z"/>
		<path class="st198" d="M272.8,314.5c0.6,1.1,0.6,2.2,0,3.3C272.1,316.8,272.1,315.6,272.8,314.5z"/>
		<path class="st199" d="M290.7,327.9c-0.9-1.4-0.3-3-0.4-4.5C291.3,324.8,290.6,326.4,290.7,327.9z"/>
		<path class="st200" d="M286.8,332.9c-1.3-0.1-2.7,0.6-3.9-0.4c1.3,0,2.7,0,4-0.1C286.9,332.5,286.8,332.7,286.8,332.9z"/>
		<path class="st172" d="M281.8,336.2c1.3,0,2.6,0,3.9,0C284.4,337.2,283.1,337.2,281.8,336.2z"/>
		<path class="st201" d="M272,326.4c0.1,0,0.1,0,0.2,0c0,0,0.1,0.1,0.1,0.2c-0.1,0-0.2,0-0.3,0C271.9,326.5,272,326.4,272,326.4z"/>
		<path class="st202" d="M105.7,323.4c0-0.2,0-0.3,0-0.5c4.6,0,9.3,0,13.9,0c0,0.2,0,0.3,0,0.5C115,323.4,110.3,323.4,105.7,323.4z"
			/>
		<path class="st203" d="M198.1,359.8c-1.1-0.1-2.1-0.1-3.2-0.2c3-0.8,5.9-0.7,8.9,0c-0.2,0.1-0.3,0.1-0.5,0.2
			C201.6,360.1,199.8,360,198.1,359.8z"/>
		<path class="st204" d="M313.6,338.6c2.7,0.9,4.4,3,6.2,4.9c0.5,0.5,0.8,1.1,0.4,1.8c-0.4,0.7-1.1,0.7-1.7,0.5c-2.7-1-5.4-2-7.6-4
			c-1.1-1-2-2.1-0.1-3.3C311.7,338.4,312.7,338.8,313.6,338.6z"/>
		<path class="st205" d="M313.6,338.6c-0.9,0.7-1.9,0.8-2.8-0.1C311.8,337.7,312.7,338,313.6,338.6z"/>
		<path class="st22" d="M224,350.8c-0.2,1.2-0.2,2.4-0.5,3.6c-0.9,3.5-3.7,4.3-6.5,2c-2.2-1.9-3.2-4.5-3.6-7.3
			c0.2-0.3,0.2-0.7,0.2-1c0-0.2,0.1-0.4,0.1-0.5c-0.2,0.1-0.2,0.5-0.4,0.6c-0.5-2.3-1-4.6-1.6-6.9c-0.4-0.3-0.4-0.6-0.1-1
			c0-0.4,0.1-0.8,0.1-1.2c0.4-3.1-0.2-6.3,0-9.4c0.9-3.9,2.3-4.7,6.1-3.4c-1.4,1.6-2.1,3.6-2.8,5.6c-0.5,1.1-0.5,2.2,0,3.3
			c1.3,4.6,2.9,8.9,5.7,12.9c0.9,1.2,1.8,1.8,3.2,1.7C224.2,350.1,224.2,350.4,224,350.8z"/>
		<path class="st206" d="M233.9,351.4c0.5,1.3,1,2.7-0.3,3.9c-1.1,0.5-2.3,0.6-3.5,0.4c-1-0.4-1.7-1.1-2.1-2.1
			C230.3,353.8,232.1,352.6,233.9,351.4z"/>
		<path class="st207" d="M224,350.8c0-0.3-0.1-0.7-0.1-1c0.6-0.1,1.3-0.6,1.7,0.4c-0.3,0.6-0.6,1.2-0.9,1.8
			C224.4,351.5,224.2,351.1,224,350.8z"/>
		<path class="st208" d="M215,335.2c-0.8-1.1-0.9-2.2,0-3.3C215,332.9,215,334,215,335.2z"/>
		<path class="st209" d="M222.7,359.1c0.2-1.3,0.9-2,2.2-2.2C224.5,358,223.8,358.7,222.7,359.1z"/>
		<path class="st210" d="M225,356.5c1.3-1.4,1.9-0.5,2.2,0.8C226.4,357.3,226,356.1,225,356.5z"/>
		<path class="st211" d="M236.7,356.3c0.7-1.5,1.5-1.5,2.3-0.1C238.2,355.6,237.4,356.1,236.7,356.3z"/>
		<path class="st212" d="M171.6,305c0.9,0.1,1.8,0.1,2.7,0.2c-1,0.7-2.2,0.5-3.2,0.3C170.7,305.4,171.4,305.1,171.6,305z"/>
		<path class="st213" d="M211.7,329.6c0.7,3.1,0.8,6.3,0,9.4C211.3,335.9,211,332.7,211.7,329.6z"/>
		<path class="st214" d="M208.3,332.9c0.2,0,0.3,0,0.5,0c0,1.5,0,3,0,4.5c-0.2,0.2-0.3,0.4-0.5,0.6
			C208.4,336.3,208.4,334.6,208.3,332.9z"/>
		<path class="st95" d="M232.8,355.9c-0.1,2-1.5,0.6-2.2,0.9c0,0-0.1-0.2-0.1-0.2c0-0.1,0.1-0.2,0.1-0.2
			C231.2,355.8,231.9,355.1,232.8,355.9z"/>
		<path class="st215" d="M232.8,355.9c-0.8-0.4-1.4,0.7-2.2,0.4c-0.2-0.2-0.4-0.4-0.6-0.6c1.1-0.8,2.4-0.3,3.5-0.4
			C233.3,355.5,233,355.7,232.8,355.9z"/>
		<path class="st216" d="M213.2,348.1c0.1-0.4,0.1-0.9,0.2-1.6c0.5,1.1,0.6,1.9-0.1,2.6C213.3,348.7,213.3,348.4,213.2,348.1z"/>
		<path class="st217" d="M211.6,340.2c0,0.3,0.1,0.7,0.1,1c-0.1,0.4-0.1,0.8-0.2,1.9C211,341.6,210.8,340.9,211.6,340.2z"/>
		<path class="st218" d="M262.3,339c-0.9,0-1.9,0-2.8,0c0-0.2,0-0.3,0-0.5C260.5,338.5,261.5,338.2,262.3,339z"/>
		<path class="st212" d="M209.3,385.8c-0.3,0.1-0.6,0.1-1,0.2c-2.1,0.3-4.2,0.3-6.3,0c0,0,0.1-0.1,0.1-0.1
			C204.5,385,206.9,385,209.3,385.8z"/>
		<path class="st219" d="M104,313.3c0.7,0.3,1.7-0.3,2.3,0.6c0.2,0.1,0.2,0.2,0.2,0.4c-0.1,0.1-0.1,0.2-0.2,0.2
			c-0.6,0-1.2,0.1-1.7,0.1c-1.1,0.3-2.2,0.4-3.3-0.1c-2.4-0.4-4.9,0.5-7.3-0.5c0.4,0,0.8,0,1.2-0.1c2.9-1.2,5.9,0.3,8.9-0.4
			L104,313.3z"/>
		<path class="st220" d="M106.3,314.5c0-0.2,0-0.4,0-0.5c0.4,0,0.7,0,1.1-0.1c1.3,0.1,2.6,0.1,3.9,0.2c-0.4,0.2-0.8,0.3-1.2,0.5
			C108.8,314.5,107.6,314.5,106.3,314.5z"/>
		<path class="st221" d="M101.2,314.5c1.1,0,2.2,0,3.3,0.1C103.4,315.3,102.3,315.4,101.2,314.5z"/>
		<path class="st222" d="M104.1,313.5c-2.9,1-5.9,0.2-8.9,0.4c0.4-0.7,1.1-0.4,1.7-0.5c0.8-0.6,1.8,0,2.7-0.4
			C101,313.7,102.6,313.2,104.1,313.5z"/>
		<path class="st223" d="M99.5,313c-0.8,0.8-1.8,0.3-2.7,0.4c0-0.1,0-0.3-0.1-0.4C97.7,313,98.6,313,99.5,313z"/>
		<path class="st224" d="M159.2,309.6c-0.6,0.7-1.5,0.4-2.2,0.5c-0.2-0.2-0.4-0.3-0.6-0.5C157.4,309.6,158.3,309.6,159.2,309.6z"/>
		<path class="st225" d="M87.3,312.8c0-0.1,0-0.3,0-0.4c1.9,0.1,3.8-0.5,5.6,0.4C91,312.8,89.2,312.8,87.3,312.8z"/>
		<path class="st226" d="M202.1,385.9c2.1,0,4.2,0,6.3,0c-2,1-4.1,0.2-6.2,0.4C202.1,386.3,202.1,386.1,202.1,385.9z"/>
		<path class="st227" d="M198.1,359.8c1.7,0,3.4,0,5.2-0.1c-1.6,1.1-3.4,0.2-5.1,0.5C198.2,360.1,198.1,359.9,198.1,359.8z"/>
		<path class="st228" d="M87,301.7c-0.1-0.1-0.1-0.3-0.1-0.4c1.5,0.1,3-0.5,4.4,0.4C89.8,301.6,88.4,301.6,87,301.7z"/>
		<path class="st229" d="M275.2,317.1c0-2-0.3-4,2-5c2.2-0.9,4,0.2,5.6,1.5c0.7,0.5,1.2,1.4,1.8,2.1c-1.5,0.7-3.4,1.1-3.3,3.3
			c0.1,1.3,0,2.6,0,3.9c0.4,2.5,1.4,4.5,3.9,5.5c0.7-0.4,1.5,0.1,2.2,0c-0.5,2.2-1.4,2.8-3.3,2c-2.4-0.9-4-2.8-5.4-4.9
			C276.9,322.9,276.1,320,275.2,317.1z"/>
		<path class="st230" d="M281.3,322.9c-0.5-1.3-0.6-2.6,0-3.9C282.2,320.3,282.1,321.6,281.3,322.9z"/>
		<path class="st231" d="M274,319c0-1.7,0-3.3,0-5c1.1,1.4,0.3,3,0.5,4.5C274.4,318.6,274.2,318.8,274,319z"/>
		<path class="st232" d="M287.4,328.4c-0.7,0.5-1.5,0.5-2.2,0C285.9,327.7,286.6,327.7,287.4,328.4z"/>
		<path class="st233" d="M276.8,333.6c-0.7-0.7-1.5-1.5-2.2-2.2c0.1-0.5,0.1-1.2,0.9-0.6c0.6,0.5,1.1,1.1,2,1c0.3,0.2,0.7,0.4,1,0.6
			C278.5,333.8,276.9,332.5,276.8,333.6z"/>
	</g>
</g>
</svg>
