<?xml version="1.0" encoding="utf-8"?>
<!-- Generator: Adobe Illustrator 28.1.0, SVG Export Plug-In . SVG Version: 6.00 Build 0)  -->
<svg version="1.1" id="Layer_1" xmlns="http://www.w3.org/2000/svg" xmlns:xlink="http://www.w3.org/1999/xlink" x="0px" y="0px"
	 viewBox="0 0 585 684.3" style="enable-background:new 0 0 585 684.3;" xml:space="preserve">
<style type="text/css">
	.st0{fill:#E86C59;}
	.st1{fill:#B49377;}
	.st2{fill:#FFCC5D;}
	.st3{fill:#C2493D;}
	.st4{stroke:#000000;stroke-width:31;stroke-miterlimit:10;}
	.st5{fill:#FFCC5D;stroke:#000000;stroke-width:31;stroke-miterlimit:10;}
	.st6{clip-path:url(#SVGID_00000108277694935744775030000004349366584860538303_);}
	.st7{fill:#FEB31D;}
	.st8{fill:#FEDC55;}
	.st9{fill:#FE8400;}
	.st10{fill:#F94B8D;}
	.st11{fill:#FCFCFB;}
	.st12{fill:#FCFBF8;}
	.st13{fill:#FBFAF7;}
	.st14{fill:#FCFBF7;}
	.st15{fill:#FBFBF7;}
	.st16{fill:#FBF9F2;}
	.st17{fill:#FBF9F3;}
	.st18{fill:#FBF8F3;}
	.st19{fill:#FBF9F4;}
	.st20{fill:#FBF9F1;}
	.st21{fill:#FCFAF7;}
	.st22{fill:#FCEED1;}
	.st23{fill:#FCF9F1;}
	.st24{fill:#FBFCF9;}
	.st25{fill:#FDAF11;}
	.st26{fill:#FBF8EE;}
	.st27{fill:#FCFAF4;}
	.st28{fill:#FBF7EF;}
	.st29{fill:#FCF8F1;}
	.st30{fill:#FCFAF5;}
	.st31{fill:#FCF7ED;}
	.st32{fill:#FBF4E5;}
	.st33{fill:#FAF7EE;}
	.st34{fill:#FBF4EB;}
	.st35{fill:#FCF9F2;}
	.st36{fill:#FCFAF2;}
	.st37{fill:#FBF7F0;}
	.st38{fill:#FAF9F4;}
	.st39{fill:#FAF7EB;}
	.st40{fill:#FCF7EC;}
	.st41{fill:#FBF9F0;}
	.st42{fill:#FBF8F0;}
	.st43{fill:#FCF6EE;}
	.st44{fill:#FCF8EF;}
	.st45{fill:#FBF8EC;}
	.st46{fill:#0B0B0B;}
	.st47{fill:#FBF7E8;}
	.st48{fill:#FCF6ED;}
	.st49{fill:#FCF7EF;}
	.st50{fill:#FAF8F1;}
	.st51{fill:#F9FAF3;}
	.st52{fill:#FBF6EA;}
	.st53{fill:#FBF6EE;}
	.st54{fill:#FCF8F2;}
	.st55{fill:#FBF6E7;}
	.st56{fill:#FBF7E7;}
	.st57{fill:#FDB011;}
	.st58{fill:#FBF8EF;}
	.st59{fill:#F9DDA1;}
	.st60{fill:#FCF4E6;}
	.st61{fill:#FBF5E9;}
	.st62{fill:#FBF6ED;}
	.st63{fill:#FBFBF5;}
	.st64{fill:#FCF6EA;}
	.st65{fill:#FAF9F1;}
	.st66{fill:#FCFCFA;}
	.st67{fill:#FBF7EB;}
	.st68{fill:#FBF7ED;}
	.st69{fill:#FCF7EB;}
	.st70{fill:#FCBF40;}
	.st71{fill:#FCF4E1;}
	.st72{fill:#FBF7EC;}
	.st73{fill:#FCF5E4;}
	.st74{fill:#FBF9F5;}
	.st75{fill:#FCE99B;}
	.st76{fill:#FBFAF4;}
	.st77{fill:#F9F6E7;}
	.st78{fill:#FBF5E5;}
	.st79{fill:#FAFBFA;}
	.st80{fill:#FCF8EA;}
	.st81{fill:#FDF5ED;}
	.st82{fill:#FAFAF0;}
	.st83{fill:#FAF9F5;}
	.st84{fill:#FCBB34;}
	.st85{fill:#FAF6EA;}
	.st86{fill:#0A0A0A;}
	.st87{fill:#FABA2F;}
	.st88{fill:#FCF5EB;}
	.st89{fill:#FBF8F1;}
	.st90{fill:#FBF8ED;}
	.st91{fill:#10100F;}
	.st92{fill:#FAF9ED;}
	.st93{fill:#FCF6E2;}
	.st94{fill:#FBF2F8;}
	.st95{fill:#FAF3E5;}
	.st96{fill:#171716;}
	.st97{fill:#FCFCFC;}
	.st98{fill:#E3C97F;}
	.st99{fill:#FAF8EB;}
	.st100{fill:#FBC753;}
	.st101{fill:#131313;}
	.st102{fill:#FBFAF2;}
	.st103{fill:#FDF5E6;}
	.st104{fill:#F9F8EB;}
	.st105{fill:#0A0A0B;}
	.st106{fill:#F9F1E0;}
	.st107{fill:#FAF9F8;}
	.st108{fill:#FCF6E7;}
	.st109{fill:#FCF6EF;}
	.st110{fill:#F9F8EE;}
	.st111{fill:#F6EBCE;}
	.st112{fill:#111110;}
	.st113{fill:#FAF6E5;}
	.st114{fill:#FCEFD9;}
	.st115{fill:#FBF7D8;}
	.st116{fill:#FDF5D6;}
	.st117{fill:#FCF3EB;}
	.st118{fill:#FCF1DB;}
	.st119{fill:#FDE6BF;}
	.st120{fill:#0E0E0E;}
	.st121{fill:#FAF2DF;}
	.st122{fill:#FBF7E9;}
	.st123{fill:#FCF5E7;}
	.st124{fill:#E5C891;}
	.st125{fill:#F7CF86;}
	.st126{fill:#FBFDFE;}
	.st127{fill:#FCF4EB;}
	.st128{fill:#FDBD50;}
	.st129{fill:#FAF1DE;}
	.st130{fill:#FDF0E1;}
	.st131{fill:#FAF4E9;}
	.st132{fill:#FCEEDB;}
	.st133{fill:#FEF4EC;}
	.st134{fill:#FCF1D7;}
	.st135{fill:#FDF7E7;}
	.st136{fill:#FCF1DC;}
	.st137{fill:#FCEFCC;}
	.st138{fill:#FBFAF3;}
	.st139{fill:#DDC694;}
	.st140{fill:#FEF4E5;}
	.st141{fill:#F6CF6B;}
	.st142{fill:#FCF4D3;}
	.st143{fill:#0E0F0E;}
	.st144{fill:#FBF3E5;}
	.st145{fill:#FBF4CE;}
	.st146{fill:#FAF5E9;}
	.st147{fill:#FBF0D9;}
	.st148{fill:#F9F7F1;}
	.st149{fill:#FCF5EA;}
	.st150{fill:#FCFAF1;}
	.st151{fill:#FAEDD3;}
	.st152{fill:#FAEFDF;}
	.st153{fill:#FCF4DB;}
	.st154{fill:#FBF1DD;}
	.st155{fill:#FAEFD4;}
	.st156{fill:#FDCC74;}
	.st157{fill:#FCF3E4;}
	.st158{fill:#FA95BD;}
	.st159{fill:#FAF7E5;}
	.st160{fill:#121211;}
	.st161{fill:#FDF7F0;}
	.st162{fill:#EEDBC1;}
	.st163{fill:#FBEDCF;}
	.st164{fill:#0F100F;}
	.st165{fill:#D6C18A;}
	.st166{fill:#FECF84;}
	.st167{fill:#E2C384;}
	.st168{fill:#F9F3DA;}
	.st169{fill:#F9E4CC;}
	.st170{fill:#FDF6F7;}
	.st171{fill:#101010;}
	.st172{fill:#141413;}
	.st173{fill:#FCF2E4;}
	.st174{fill:#F2DE81;}
	.st175{fill:#FAB104;}
	.st176{fill:#0C0C0C;}
	.st177{fill:#FDDEB5;}
	.st178{fill:#FBEED6;}
	.st179{fill:#FBEDD4;}
	.st180{fill:#F1DF82;}
	.st181{fill:#151514;}
	.st182{fill:#F3E08A;}
	.st183{fill:#FBF4E4;}
	.st184{fill:#FCF3D1;}
	.st185{fill:#FCEFD6;}
	.st186{fill:#FCFDF8;}
	.st187{fill:#FBF2D7;}
	.st188{fill:#1A1B1A;}
	.st189{fill:#FCE7BD;}
	.st190{fill:#E8D7B6;}
	.st191{fill:#FEFB70;}
	.st192{fill:#FDAC0D;}
	.st193{fill:#FBA211;}
	.st194{fill:#FBB00C;}
	.st195{fill:#FEFB71;}
	.st196{fill:#5D3DA9;}
	.st197{fill:#FA9B0B;}
	.st198{fill:#FBF2D6;}
	.st199{fill:#FABF5B;}
</style>
<g>
	<polygon class="st0" points="292.5,127.1 127,292.6 127,596 458,596 458,292.6 	"/>
	<polygon class="st1" points="71.8,651.2 513.2,651.2 513.2,596 71.8,596 	"/>
	<path d="M361.4,334c0-38.1-30.9-69-69-69s-69,30.9-69,69s30.9,69,69,69S361.4,372,361.4,334"/>
	<path class="st2" d="M347.6,527.1H237.3c-7.6,0-13.8-6.2-13.8-13.8c0-7.6,6.2-13.8,13.8-13.8h110.3c7.6,0,13.8,6.2,13.8,13.8
		C361.4,520.9,355.3,527.1,347.6,527.1"/>
	<polygon class="st3" points="292.5,44.3 44.2,292.6 85.6,334 292.5,127.1 499.4,334 540.8,292.6 	"/>
</g>
<g>
	<g>
		<polygon class="st0" points="111.5,611.5 111.5,286.2 292.5,105.2 473.5,286.2 473.5,611.5 		"/>
		<path d="M292.5,127.1L458,292.6V596H127V292.6L292.5,127.1 M292.5,83.2l-21.9,21.9L105.1,270.7l-9.1,9.1v12.8V596v31h31h331h31
			v-31V292.6v-12.8l-9.1-9.1L314.4,105.2L292.5,83.2L292.5,83.2z"/>
	</g>
	<g>
		<rect x="56.3" y="580.5" class="st1" width="472.4" height="86.2"/>
		<path d="M513.2,596v55.2H71.8V596H513.2 M544.2,565h-31H71.8h-31v31v55.2v31h31h441.4h31v-31V596V565L544.2,565z"/>
	</g>
	<path class="st4" d="M361.4,334c0-38.1-30.9-69-69-69s-69,30.9-69,69s30.9,69,69,69S361.4,372,361.4,334"/>
	<path class="st5" d="M347.6,527.1H237.3c-7.6,0-13.8-6.2-13.8-13.8c0-7.6,6.2-13.8,13.8-13.8h110.3c7.6,0,13.8,6.2,13.8,13.8
		C361.4,520.9,355.3,527.1,347.6,527.1"/>
	<g>
		<polygon class="st3" points="292.5,149 85.6,355.9 22.3,292.6 292.5,22.4 562.7,292.6 499.4,355.9 		"/>
		<path d="M292.5,44.3l248.3,248.3L499.4,334L292.5,127.1L85.6,334l-41.4-41.4L292.5,44.3 M292.5,0.4l-21.9,21.9L22.3,270.7
			L0.4,292.6l21.9,21.9l41.4,41.4l21.9,21.9l21.9-21.9l185-185l185,185l21.9,21.9l21.9-21.9l41.4-41.4l21.9-21.9l-21.9-21.9
			L314.4,22.4L292.5,0.4L292.5,0.4z"/>
	</g>
</g>
<g>
	<g>
		<polygon class="st0" points="292.5,127.1 127,292.6 127,596 458,596 458,292.6 		"/>
	</g>
	<g>
		<rect x="71.8" y="596" class="st1" width="441.4" height="55.2"/>
	</g>
	<path d="M361.4,334c0-38.1-30.9-69-69-69s-69,30.9-69,69s30.9,69,69,69S361.4,372,361.4,334"/>
	<path class="st2" d="M347.6,527.1H237.3c-7.6,0-13.8-6.2-13.8-13.8c0-7.6,6.2-13.8,13.8-13.8h110.3c7.6,0,13.8,6.2,13.8,13.8
		C361.4,520.9,355.3,527.1,347.6,527.1"/>
	<g>
		<polygon class="st3" points="292.5,44.3 44.2,292.6 85.6,334 292.5,127.1 499.4,334 540.8,292.6 		"/>
	</g>
</g>
<g>
	<defs>
		<circle id="SVGID_1_" cx="292.5" cy="334.7" r="64.4"/>
	</defs>
	<clipPath id="SVGID_00000090265660689972750400000014358272697795250569_">
		<use xlink:href="#SVGID_1_"  style="overflow:visible;"/>
	</clipPath>
	<g style="clip-path:url(#SVGID_00000090265660689972750400000014358272697795250569_);">
		<path d="M195.9,406.8c-0.4-0.2-0.7-0.4-1-0.6c-2.6-1.9-5.3-3.3-8.4-4.2c-0.1,0-0.2,0-0.3-0.1c-1.9-1.8-4.7-2-6.6-3.7
			c-1.1-1-2.7-0.6-3.8-1.7c-0.6-0.6-1.3-1.1-1.9-1.8c-0.6-0.9-1.5-1.6-2.6-1.8c-1.4-0.2-2.5-0.9-3.4-1.8c-1.9-1.8-3.7-3.8-5.5-5.6
			c-2-2-4.1-3.8-5.9-5.9c-1.8-2.1-4.4-3.7-4.8-6.8c-0.1-0.8-0.7-1.4-1.3-1.8c-1.9-1.2-3-2.9-3.4-5.1c-0.1-0.4-0.2-0.8-0.4-1.1
			c-2.4-3.3-2.3-7-2.3-10.8c0-1.3,0.2-2.6,0-4c-0.3-2.3,0.1-4.6,1.3-6.7c0.2-0.3,0.5-0.5,0.2-1c-0.7-1.2-1.3-2.5-1.9-3.7
			c-1.6-3.4-4.1-6.4-4.1-10.4c0-0.2-0.1-0.5-0.2-0.7c-2.2-3.4-2.8-7.1-1.9-11c0.1-0.3,0.1-0.6,0-0.9c-0.5-1.6-0.4-3.2-0.3-4.9
			c0.2-2.1-0.2-4.3-0.1-6.4c0.1-1.9-0.1-3.9,0.5-5.8c0.5-1.4,1.1-2.6,2.3-3.4c2-1.4,3.7-3.5,6.3-4c0.2,0,0.6-0.1,0.4-0.4
			c-0.5-1.1,0.1-2.5-0.8-3.6c-1.4-1.7-1.6-3.9-1.8-6c-0.1-0.7,0-1.3-0.5-1.9c-1.7-2.2-2-4.9-1.8-7.5c0.1-1.3-0.1-2.3-0.8-3.4
			c-1-1.7-1.2-3.6-1.2-5.7c0-2.7,0.2-5.4,0-8.1c-0.2-2.8-0.5-5.5,0.1-8.2c0-0.1,0-0.2,0.1-0.3c1.6-2.5,1.8-5.7,3.6-7.9
			c2.3-2.8,4.8-5.6,8.8-5.7c3.5-0.1,7-0.6,10.4,0.7c0.9,0.3,1.8,0.9,2.4,1.6c1.7,2.1,4,3.7,5.7,5.9c0.8,0.9,1.9,1.5,2.5,2.6
			c0.1,0.2,0.3,0.3,0.3,0.5c0.3,2.6,2,4.2,3.8,5.8c0.9,0.8,1.3,2,1.5,3.2c0.4,2.2,2.1,3.4,3.7,4.6c1.6,1.3,2.8,2.7,3.2,4.8
			c0.2,1.2,1.1,2.2,2,3c1.3,1.2,2.3,2.4,2.7,4.2c0.2,1,1,1.6,1.7,2.3c1.5,1.5,3.4,2.6,4.5,4.5c0.1,0.2,0.3,0.3,0.3,0.5
			c0.7,4.6,4.7,6.5,7.6,9.3c1,1,1.9,2,2.1,3.4c0.3,1.4,1,2.5,2.2,3.3c1.3,0.9,1.9,2.4,3.1,3.4c2.8,2.2,5,5.1,7.5,7.7
			c1.8,1.9,4,3.6,6,5.4c1,0.9,1.7,2.2,2.8,3.1c2.3,2,4.4,4.1,6.6,6.2c0.3,0.3,0.6,0.5,0.8,0.9c0.7,1.2,1.7,1.9,3.1,2.1
			c1.7,0.3,2.9,1.3,3.9,2.6c1.7,2.2,3.8,4.2,5.9,6.1c0.6,0.6,1,1.3,1.7,1.7c0.6,0.3,0.9,0.7,1.1-0.4c0.4-2.1,0.9-4.2,2.4-5.8
			c0.2-0.2,0.3-0.5,0.3-0.8c0.3-3,1.7-5.7,2.9-8.3c1.1-2.5,1.8-5.4,3.8-7.7c1-1.2,1.9-3,2.3-4.7c0.5-2.1,1.6-3.6,3.2-5
			c1.7-1.5,3.1-3.4,4.9-4.8c0.2-0.1,0.4-0.4,0.6-0.4c2.5-0.4,4-2.2,5.8-3.8c1.9-1.7,4.3-2,6.9-1.8c2.3,0.2,4.7,0.1,7.1-0.3
			c3.2-0.5,6.3,0,9.4,0.2c1.2,0.1,2.4-0.2,3.6-0.1c3.5,0.2,6.5,1.9,9.9,2.6c2.1,0.4,3.6,1.7,5.2,3.2c2.8,2.6,5,5.8,8.3,8
			c1,0.7,1.8,1.7,2.1,2.9c0.7,2.8,1.5,5.5,2.4,8.3c0.3,1,0.6,1.9,0.5,3c0,0.3,0.1,0.7,0.2,0.8c1.5,1,2.7,2.3,3.8,3.7
			c0.7,0.9,1.4,0,1.7-0.5c0.9-1.5,2.4-2.4,3.5-3.8c0.8-1,2-1.8,3.5-1.9c0.9-0.1,1.6-0.6,2.1-1.2c1.8-2.1,3.8-3.9,5.8-5.7
			c1.7-1.6,3.5-3.2,5-4.9c0.9-1,2.1-1.7,3.5-1.8c0.7,0,1.3-0.6,1.7-1.1c1.7-2.3,4.4-3.7,5.9-6.1c0.6-1,1.7-1.3,2.5-2.2
			c2-2.3,3.9-4.8,6.6-6.1c2.2-1.1,4.2-2.3,5.8-4.2c1.5-1.7,3.8-1.9,5.9-2c2.5-0.1,5-0.2,7.4,0.6c6.1,1.8,10.3,6,9.7,12.7
			c-0.3,3.3,0.1,6.6,0,9.9c-0.1,2.2-0.4,4.3-1.8,6.2c-0.5,0.6-0.6,1.2-0.6,2.1c0,1.5-0.4,3-1.1,4.3c-0.3,0.5-0.3,0.8,0,1.3
			c1.5,3.4,3.4,6.7,3.1,10.5c-0.1,2.6,1,5.3-0.2,7.8c-0.2,0.4-0.2,0.9-0.4,1.2c-1.6,1.7-1.9,4-2.7,6c-0.1,0.1-0.1,0.3-0.2,0.4
			c-1.6,2.3-3.1,4.6-4.3,7.1c-1.6,3.2-4.4,5.8-7.2,8.2c-1.9,1.7-3.5,3.6-5.3,5.5c-0.5,0.5-0.5,1.1-0.4,1.9c0.4,3.2,0.3,6.3-1.8,9
			c-0.5,0.6-0.7,1.4-0.9,2.1c-0.3,1.9-1.4,3.3-2.9,4.5c-1,0.8-1.7,1.7-1.9,3c-0.3,1.6-1.3,2.7-2.5,3.8c-1.3,1.2-2.4,2.5-3.7,3.6
			c-2.2,2-3.8,4.6-7.1,5.1c-2,0.3-2.8,2.3-4,3.6c-1.3,1.5-2.6,2.8-4.7,3.2c-0.4,0.1-0.7,0.2-1,0.5c-1.3,1.1-2.9,1.5-4.4,2.1
			c-1.7,0.8-3.6,1.4-5.2,2.6c-1,0.8-2,1.6-3.4,1.7c-0.3,0-0.7,0.2-0.9,0.4c-2.2,1.9-4.8,2.5-7.7,2.4c-0.5,0-0.9,0.2-1.3,0.5
			c-1.9,1.4-3.9,1.9-6.2,1.7c-0.7-0.1-1.3,0.2-1.9,0.6c-0.5,0.4-1,1-1.6,1c-3.3,0.2-4.8,2.8-6.6,5c-0.5,0.6-1.2,1-1.8,1.5
			c-1.7,1.2-3.2,2.7-4.5,4.5c-1.3,1.8-2.8,3.1-5.1,3.5c-0.9,0.1-1.6,0.6-2.2,1.3c-1.1,1.5-2.5,2.4-4.2,3.2c-1.5,0.8-2.8,1.9-4.4,2.8
			c-2.1,1.1-4,2.4-5.9,3.7c-1.2,0.8-2.7,0.9-4.2,1.1c-0.7,0.1-1.3,0.2-1.8,0.7c-1.5,1.3-3.4,1.4-5.3,1.7c-0.4,0.1-0.8,0-1.2,0.3
			c-2.1,1.6-4.5,2.1-7.2,1.8c-2.8-0.2-5.5,0.2-8.2,1.4c-1.7,0.8-3.6,1.3-5.7,0.9c-3.2-0.6-5.7,0.6-7.5,3.3c-0.6,0.9-1.4,1.6-2.2,2.3
			c-0.8,0.7-1.5,1.6-1.7,2.8c-0.3,1.5-1.2,2.7-2.3,3.6c-1.5,1.2-2.8,2.5-4,4c-1,1.3-2.2,2.4-3.5,3.4c-1.1,0.9-2,2-3.3,2.9
			c-1,0.7-2.4,0.5-3.3,1.5c-1.2,1.2-2.5,2.3-3.6,3.5c-1.2,1.3-2.5,2.4-4.3,2.7c-0.1,0-0.2,0-0.3,0.1c-2,1.7-4.6,2.1-6.8,3.4
			c-2.1,1.3-4.4,1.7-6.9,1.6c-2.2,0-4.4-0.2-6.6,0c-4.3,0.3-8.8,0.6-12.6-2.2c-0.6-0.4-1.3-0.5-1.9-0.6c-1.5-0.3-2.6-1.3-3.7-2.4
			c-2.3-2.3-4.1-5.3-7-6.8c-2.1-1.1-4.3-2.9-7.2-2.3c-1.3,0.3-2.9-0.2-4.1-0.9c-1.7-0.9-3.3-1.9-5.1-2.6c-1.3-0.5-2.4-1.3-3.7-1.8
			c-2.2-0.8-3.7-2.7-5.4-4.3c-0.6-0.5-1.1-1.2-1.7-1.7c-1-0.9-1.9-2-2.2-3.5c-0.1-0.6-0.3-1.2-0.7-1.7c-2.2-2.7-2.5-5.8-2-9.1
			c0.1-0.8,0.1-1.6,0-2.4c-0.5-3.2,0-6.1,2-8.6c1.6-2,3.4-3.8,5.2-5.6c0.9-0.9,2.2-1.3,3.4-1.9c2.3-1.2,4.8-2.2,7.2-3.1
			c1-0.4,1.9-1,3-1.2c1.5-0.3,2.8-0.9,4.1-1.8c1.5-1,3.3-1.4,5.1-1.2c0.4,0,0.7,0.1,1-0.1c1.2-1.1,3-1.2,4.2-2.5
			c1.7-1.7,4-2.1,6.4-2.2c0.7,0,1.2-0.3,1.9-0.6c2.6-1.2,4.7-3.3,7.6-3.8C194.7,409.3,194.9,407.6,195.9,406.8z"/>
		<path class="st7" d="M266,321.4c0.2-1.1,0.8-2,1.3-2.9c0.2-0.6,0.3-1.3,0.8-1.7c0.7-1.3,1.4-2.5,2.1-3.8c0-0.4,0.2-0.8,0.5-1.1
			c0.2-0.7,0.9-1,1.2-1.6c0.1-0.3,0.2-0.5,0.5-0.7c1.7-2.4,3.5-4.8,5.9-6.5c0.3-0.4,0.6-0.9,1.2-1c0.4-0.2,0.5-0.7,1.1-0.6
			c0.9,0.5,0.1,0.9-0.2,1.1c-0.9,1-1.8,1.9-2.5,3c-4.4,6.5-5.9,13.5-3.9,21.2c1.7,6.6,5.7,11.6,11.7,14.8c0.6,0.3,1.6,0.5,1.6,1.3
			c0,0.9-1,0.9-1.6,1.3c-13.1,6.6-22.2,16.6-27,30.5c-1.3,3.9-1.9,7.9-2.2,12c-0.6,6.2-0.1,12.3,1.2,18.3c1.3,5.6,3.2,10.9,7,15.3
			c3.8,4.4,8.5,7,14.5,7.1c6.3,0.1,11.9-1.8,17.4-4.5c0.9-0.4,1.8-1.3,2.9-0.7c-0.9,1.1-2.2,1.6-3.2,2.6c-0.7,0.7-1.4,1.2-2.4,1.5
			c-1.3,1.1-2.7,1.9-4.2,2.6c-0.6,0.5-1.3,1-2.1,1.1c-1.1,0.2-1.8,1.2-2.8,1.5c-1,0.7-2.1,1-3.3,1.4c-1.3,0.8-2.9,1-4.3,1.6
			c-0.6,0.7-1.5,0.9-2.4,0.8c-1.7,0.5-3.5,1-5.2,1.5c-1.9,0.9-4.1,1.1-6.2,1.4c-1.6,0.2-3.2,0.7-4.8,0.6c-0.5,0.3-1.1,0-1.5,0.2
			c-0.5,0-0.9,0.1-1.4,0.1c-1.1-0.2-2.1-0.2-3.2,0c-0.2,0.1-0.5,0.1-0.7,0c-1.6-0.1-3.2-0.1-4.8,0c-0.2,0.1-0.5,0.1-0.7-0.1
			c-0.9,0-1.2,0.9-1.7,1.4c0,0.6-0.6,0.7-0.7,1.2c-0.2,0.6-0.7,0.8-1.2,1.1c0,0.1-0.1,0.2-0.1,0.2c-0.3,0.9-0.9,1.6-1.7,2.1
			c-0.2,0.2-0.4,0.5-0.7,0.7c-0.2,0.5-0.4,0.9-0.9,1.1c-0.4,0.5-0.8,0.9-1.2,1.4c-0.3,0.8-1,1.2-1.6,1.8c-0.4,0.5-0.8,1-1.3,1.5
			c-0.2,0.3-0.5,0.6-0.8,0.8c-0.5,0.6-1,1.2-1.5,1.8c-0.5,0.6-1,1.4-1.8,1.7c-0.2,0.4-0.5,0.7-0.9,0.9c-0.4,0.7-0.9,1.3-1.7,1.7
			c-0.4,0.4-0.8,0.8-1.3,1.3c-1.1,1.4-2.3,2.8-4,3.7c-0.6,0.5-1.2,1-1.8,1.6c-0.2,0.3-0.5,0.7-0.9,0.8c-0.6,0.5-1.1,0.9-1.7,1.4
			c-0.2,0.6-0.6,0.9-1.2,1c-0.5-0.1-0.4,0.5-0.7,0.6c-0.5,0.5-1.1,1-1.8,1.2c-0.7,0.7-1.6,1.2-2.6,1.5c-0.3,0.6-1,0.5-1.4,0.9
			c-1.9,0.9-3.8,1.7-5.8,2.2c-0.7,0.1-1.3,0.5-2,0.2c-2-0.1-4-0.3-6.1-0.1c-0.2,0.1-0.5,0.1-0.7-0.1c-2,0-3.8-0.7-5.5-1.5
			c-1.3-0.1-2.3-0.7-3.2-1.7c-2.3-1.4-4.3-3.1-5.9-5.3c-0.4-0.2-0.6-0.5-0.8-0.9c-0.3-0.4-0.5-0.7-0.8-1.1c-1.1-1.8-3.1-1.4-4.6-2.1
			c-2.2-0.5-4.4-0.9-6.5-1.7c-1,0-1.8-0.4-2.7-0.8c-0.7-0.3-1.4-0.6-2.1-1c-0.8-0.2-1.7-0.2-2.2-1c-1.8-0.5-3.1-1.8-4.7-2.7
			c-1.1-0.6-1.8-1.6-2.6-2.5c-0.1-0.1-0.2-0.2-0.3-0.3c-0.9-0.7-1.5-1.5-1.7-2.6c-0.3-0.6-0.7-1.1-0.7-1.8c-0.4-0.4-0.8-0.9-0.5-1.5
			c0-0.1,0-0.3,0-0.4c-0.2-1.1-0.2-2.3,0-3.4c0-0.4,0-0.7,0.1-1.1c0.4-0.8,0.6-1.7,1.4-2.4c0.1-0.1,0.2-0.2,0.3-0.3
			c0.3-0.5,0.7-0.9,1.2-1.1l0,0c0.3-0.5,0.7-0.7,1.1-1c0.5-0.7,1.2-1.2,2.1-1.3c0.6-0.3,1.1-0.6,1.7-0.9c0.7-0.6,1.5-1,2.4-1.1
			c1-0.4,2.1-0.8,3.1-1.2c0.4-0.3,0.8-0.4,1.3-0.5c0.3-0.1,0.5-0.2,0.8-0.4c0.5-0.3,1-0.3,1.5-0.5c0.9-0.3,1.7-0.6,2.6-0.9
			c0.4-0.4,1-0.3,1.5-0.5c0.3-0.1,0.5-0.2,0.8-0.3c0.5-0.5,1.1-0.7,1.8-0.6c1.2-0.5,2.6-0.7,3.7-1.5c0.3-0.3,0.7-0.4,1.1-0.4
			c0.6-0.4,1.2-0.5,1.9-0.7c0.3-0.2,0.7,0.1,0.9-0.3c0.8-0.7,1.8-0.9,2.8-1.1c1.5-0.6,2.9-1.2,4.4-1.8c0.7-1,1.8-1,2.8-1.3
			c0.8-0.4,1.6-0.8,2.4-1.2c0.4-0.3,0.7-0.6,1.3-0.5c0.9-0.4,1.7-0.8,2.6-1.3c0.3-0.7,1.1-0.8,1.7-1c1.7-1.1,3.5-2.2,5.2-3.3
			c0.4-0.4,1-0.5,1.5-0.9l0,0c0.3-0.4,0.8-0.7,1.3-0.8c1.4-1.1,2.9-2.1,4.3-3.2c0.4-0.8,1-1.2,1.8-1.5c0.6-0.5,1.1-1,1.7-1.5
			c0.7-1.1,1.9-1.7,2.6-2.7c4-3.6,7.6-7.6,10.9-11.9c9.3-12,16.9-25.1,23.5-38.7c0.6-1.2,1.1-2.5,1.7-3.7c0.2-0.4,0.5-0.8,0.8-1.2
			c0.7-1.7,1.3-3.4,2-5c0.7-1.7,1.4-3.4,2.1-5.1c0-0.3,0.1-0.7,0.2-1c0-0.3,0.1-0.6,0.4-0.8c0.1-1.3,0.5-2.5,1.1-3.6
			c0.1-0.5,0.2-1,0.4-1.5c0.2-0.5,0.1-1,0.5-1.5c0.1-0.3,0.2-0.6,0.4-0.9c0.2-0.8,0.2-1.6,0.8-2.2c0.3-0.9,0.6-1.8,1-2.6
			C265.4,322.5,265.3,321.8,266,321.4z"/>
		<path class="st7" d="M158.2,291.3c-0.3-0.6-0.5-1.3-0.8-1.9c-1-1.1-1.2-2.6-1.5-4c-0.4-1.1-0.8-2.2-1.2-3.4
			c-0.5-0.4-0.5-1.1-0.8-1.6c-0.1-0.5-0.3-1-0.4-1.5c0-0.1,0-0.3,0-0.4c-0.1-1.7-1.1-3.2-1.1-4.9c-0.5-0.4-0.3-1-0.5-1.5
			c-0.1-0.8-0.3-1.6-0.4-2.3c-0.3-0.4-0.5-0.8-0.3-1.3c-0.9-3.5-1.3-7.1-1.5-10.7c0-0.2,0-0.3,0-0.4c-0.1-1.6,0.2-3.2,0-4.8
			c0-0.1-0.1-0.3-0.1-0.5c0.1-1.1-0.2-2.3,0.7-3.3c0.1-0.8,0.3-1.6,0.7-2.3c0.2-0.4,0-0.9,0.5-1.1c0.3-1.4,1.3-2.4,2.4-3.2
			c0.1-0.1,0.2-0.1,0.4-0.1c0.4,0.1,0.7,0.3,1.1,0c0.3-0.1,0.6,0.1,0.9,0.1c0.5,0.1,1,0,1.4,0.4c0.5,0.1,0.9,0.3,1.2,0.7
			c0.2,0.1,0.4,0.3,0.6,0.4c1,0.4,1.6,1.3,2.4,2l0,0c0.6,0.8,1.5,1.2,1.9,2.2c0.3,0.5,0.9,0.8,1,1.4c0.9,1.2,1.5,2.6,2.7,3.7
			c0.8,0.2,0.8,1,1.1,1.6c0.1,0.2,0.3,0.5,0.4,0.7c0.4,0.3,0.7,0.6,0.8,1.1c1.3,1.9,2.6,3.7,3.9,5.6c1,0.7,1.6,1.7,2,2.8
			c0.3,0.4,0.4,1,0.9,1.3c0.6,0.4,1,0.9,1.2,1.7c0.4,0.3,0.3,1,0.9,1.2c0.9,0.4,1.1,1.2,1.4,2c0.1,0.2,0.3,0.4,0.4,0.6
			c1,0.8,1.8,1.8,2.2,3c0.3,0.6,0.6,1.3,1.2,1.7c0.8,0.2,0.8,0.9,1.1,1.4c0.1,0.2,0,0.5,0.3,0.6c0.8,0.3,1.2,1,1.5,1.8
			c0.1,0.8,1.2,0.8,1.3,1.7c0.5,0.2,0.6,0.8,0.9,1.1c0.4,0.3,0.7,0.6,0.7,1.1c0.9,1.4,1.8,2.8,3,3.9c1,0.4,1.3,1.5,2,2.3l0,0
			c0.3,0.3,0.3,0.7,0.7,0.8c0.8,0.5,1.2,1.3,1.6,2.1c0.1,0.7,0.8,1,1.1,1.4c0.6,0.1,0.6,0.7,0.9,1.1c1,1.5,2.2,2.9,3.5,4.2
			c0.4,0.2,0.7,0.4,0.8,0.9c0.7,0.2,0.5,1.2,1.2,1.4c0.9,0.3,1.2,1.1,1.8,1.7l0,0c1.1,1.1,2.3,2.2,3.2,3.6c0.3,0.3,0.5,0.6,0.8,0.8
			c0.6,0.2,1,0.7,1.2,1.2c0.1,0.1,0.2,0.2,0.2,0.2c1.2,0.5,1.9,1.4,2.6,2.4c0.2,0.5,0.9,0.5,1,1.1c0.7,0.2,0.9,1,1.4,1.4
			c0.8,0.2,1.1,0.9,1.5,1.4l0,0c0.8,0.4,1.4,1,1.8,1.8l0,0c0.3,0.2,0.7,0.4,0.8,0.8c0.2,0.7,0.9,0.8,1.3,1.2c0.9,3,1.8,6,1.1,9.3
			c-0.9,4.1-3.5,6.6-7.3,8c-5.1,1.9-9.9,0.7-14.7-1.3c-1.6-0.7-3.3-1.3-4.6-2.4c-0.1-0.1-0.2,0.2-0.1,0c0,0,0,0,0.1,0
			c3,2.7,5.5,5.8,8,9c4.6,5.9,8.7,12.1,11.9,18.9c0.6,1.2,1,2.5,1.4,3.8c1.7,6.4-2.8,10.4-8.9,9.6c-5-0.6-9.6-2.6-14.2-4.5
			c-5-2.1-9.7-4.8-14.3-7.7c-0.2-0.1-0.4-0.3-0.5-0.5c-0.1-0.1-0.1-0.1-0.2-0.2c0,0.1,0.1,0.2,0.1,0.2c2.2,3.8,5.1,6.9,8.1,10
			c3.6,3.7,6.8,7.7,8.2,12.8c0.8,3,1,6-0.2,8.9c-0.1,0.3-0.2,0.5-0.5,0.7c-0.9-0.2-1.8-0.8-2.6-1.2c-0.4-0.1-0.9-0.1-1.2-0.5
			c-1.2-0.6-2.3-1.1-3.5-1.7c-0.7-0.6-1.8-0.6-2.4-1.5c-0.5-0.3-1.1-0.6-1.6-1c-0.9-0.2-1.4-0.8-2.2-1.1c-0.6-0.5-1.3-1-1.9-1.5
			c-0.4-0.1-0.7-0.3-0.9-0.6c-0.5-0.4-1.1-0.8-1.6-1.1c-0.5-0.1-0.7-0.6-1.1-0.7c-1.5-1.2-3.3-2-4.4-3.7c-0.7-0.1-0.7-0.8-1.2-1.1
			c-0.4-0.2-0.7-0.4-0.9-0.8c-0.9-0.9-1.8-1.8-2.7-2.7c-0.3-0.2-0.6-0.5-0.8-0.8c-0.5-0.5-1-0.9-1.4-1.4c-1.3-1.5-2.8-2.9-3.7-4.7
			c-0.7-1.1-1.4-2.1-2.1-3.2c-0.4-0.1-0.3-0.6-0.5-0.9c-0.5-0.5-0.8-1-1-1.7c-0.6-0.5-0.9-1.2-1-2c-0.2-0.4-0.5-0.8-0.7-1.3
			c-0.9-1.1-1-2.5-1.5-3.7c-0.4-0.6-0.2-1.4-0.4-2c0-0.1,0-0.2,0-0.3c0.2-0.7,0.1-1.4,0.1-2.1c-0.2-1.2,0.5-1.8,1.6-2.1
			c0.3-0.3,0.6-0.4,1-0.4c0.7,0,1.3,0,2,0c2.6-0.2,4.7,1.2,7.1,1.9c-1.9-2-3.8-4-5.6-6.1c-0.4-0.5-0.8-1-1-1.6
			c-0.1-0.5-0.6-0.7-0.7-1.2c-0.3-0.5-0.7-0.9-1-1.4c-0.3-0.2-0.6-0.4-0.7-0.9c-0.4-0.3-0.5-0.7-0.7-1.1c-0.1-0.1-0.2-0.2-0.3-0.3
			c-0.4-0.7-1-1.3-1.1-2.1c0-0.1-0.1-0.2-0.1-0.3c-0.2-0.2-0.5-0.3-0.5-0.7c-1.2-2-2.3-4-3-6.2c-0.4-0.3-0.3-0.8-0.5-1.2
			c-1.4-3.1-2.3-6.3-2.9-9.6c-0.1-0.3-0.2-0.6-0.3-0.9c-0.2-0.5,0-1-0.2-1.4c-0.1-0.8-0.2-1.5-0.3-2.3c0.2-0.6,0.1-1.3,0.1-1.9
			c-0.1-1.1,0.1-2.3-0.1-3.4c-0.1-1.6-0.1-3.1,0.5-4.6c-0.2-0.6,0.1-0.9,0.5-1.2c0.3-0.9,0.9-1.7,1.8-2.1c0.2-0.1,0.4-0.2,0.5-0.2
			c0.1,0,0.3,0,0.4,0c0.5,0,0.9,0.5,1.4,0.2c0.4,0.1,0.7,0.4,1.1,0.3c0.7,0.1,1.3,0.3,1.7,0.9c0.1,0.3,0.3,0.2,0.5,0.3
			c0.9,0.3,1.6,0.8,2.1,1.7c0.1,0.3,0.3,0.3,0.5,0.4c0.8,0.3,1.4,0.9,1.8,1.6c0.2,0.6,0.8,0.7,1.2,1c1,0.4,1.8,1,2.3,1.9
			c0.1,0.5,0.7,0.3,0.9,0.7c2.1,1,3.7,2.7,5.6,4.1c1.5,1.2,3,2.4,4.3,3.5c-1.7-2.1-3.5-4.5-5.1-6.9c-1.3-1.9-2.6-3.8-3.6-5.9
			c-0.2-0.3-0.4-0.5-0.6-0.8c-0.7-0.7-1.2-1.6-1.4-2.6c-0.8-1.3-1.6-2.6-2.3-3.9c-0.2-0.1-0.3-0.3-0.3-0.6c-0.3-0.8-0.6-1.5-1-2.3
			C158.5,293.1,158.2,292.3,158.2,291.3z"/>
		<path class="st8" d="M299.6,422c-1.8,0.1-3.1,1.2-4.6,1.9c-5.7,2.7-11.6,4.2-17.8,3.5c-5.2-0.5-9.4-3.1-12.7-7.1
			c-4.9-6-7-13.1-8-20.6c-0.4-3.4-0.7-6.7-0.6-10.1c0.4-11.8,3.9-22.5,11.5-31.7c5.3-6.4,11.6-11.3,19.1-14.7
			c0.2-0.1,0.5-0.1,0.6-0.4c0-0.4-0.4-0.5-0.7-0.6c-2.7-1.2-5-2.9-7-5.1c-3.5-3.8-5.7-8.2-6.4-13.4c-1-7.4,1.1-13.9,5.4-19.8
			c0.7-0.9,1.9-1.4,2.1-2.6c1-1.3,2.5-1.6,3.8-2.3c0.4-0.2,0.8-0.4,1.1-0.5c0.5-0.4,1-0.6,1.6-0.6c1-0.1,1.8-0.7,2.8-0.6
			c0.4-0.3,1,0,1.5-0.3c0.4-0.1,0.8-0.1,1.1-0.2c1.5,0.2,2.9-0.1,4.4,0.2c0.5,0,1,0,1.4,0.1c0.5,0.3,1.1,0,1.6,0.2
			c3,0.4,5.8,1.4,8.6,2.5c0.6,0.2,1.1,0.5,1.7,0.7c1,0.2,1.9,0.8,2.6,1.5c0.3,0.2,0.6,0.4,0.8,0.6c0.6,0.1,1,0.4,1.2,0.9
			c0.2,0.6,1,0.5,1.2,1.1c0.4,0.3,1,0.6,1.2,1.1c0.1,0.5,0.5,0.7,0.8,0.9c0.1,0.1,0.2,0.2,0.3,0.3c0.6,0.3,0.9,0.9,1.1,1.5
			c0.2,0.7,0.7,1.2,1.2,1.7c0.3,0.6,0.9,1.1,0.9,1.9c0.4,1,0.8,1.9,1.1,2.9c0.3,0.3,0.6,0.7,0.4,1.2c0.7,1.6,0.8,3.4,1.1,5.1
			c0.3,0.5,0.1,1.1,0.2,1.6c-0.7,0.7-1.2-0.1-1.7-0.4c-2.3-1.1-4.6-1.5-6.8,0.2c-1.5,1.1-2.6,2.5-3.7,4.1c-1.7,2.6-1.6,5.2-0.6,7.9
			c1.1,3.3,3.2,4.5,6.6,3.9c0.8-0.1,1.5-0.4,2.3-0.5c0.5-0.1,1.1-0.3,1.5,0.3c0.2,0.5,0.1,1-0.2,1.4c-0.5,2.2-0.1,4.4,0.5,6.6
			c0.2,0.4,0.6,0.8,0.7,1.3c0.8,2.6,1.9,5,2.9,7.5c5,12.8,4.5,25.5-1.6,37.8c-2.4,5-5.4,9.6-8.8,14c-0.2,0.4-0.7,0.6-1.1,0.8
			c-0.4,0.8-1.1,1.4-1.7,2c-0.2,0.4-0.5,0.6-0.7,1c-0.1,0.2-0.2,0.4-0.5,0.5c-0.6,0.6-1.1,1.2-1.7,1.7c-0.3,0.5-0.8,0.8-1.1,1.3
			c-0.3,0.3-0.4,0.6-0.8,0.8c-0.2,0.2-0.4,0.4-0.7,0.7c-0.2,0.3-0.5,0.6-0.8,0.8c-0.3,0.3-0.6,0.6-1,0.9l0,0c-0.4,0.8-1,1.4-1.8,1.8
			l0,0c-0.4,0.3-0.8,0.6-1.1,1c-0.6,0.9-1.5,1.4-2.4,1.9C300,421.8,299.8,421.9,299.6,422z"/>
		<path class="st7" d="M398.7,296.6c0.2,0.8-0.3,1.5-0.3,2.3c-0.2,0.9,0,1.9-0.5,2.7c-1.2,2.6-2,5.4-3.5,7.8c-0.5,1-0.7,2.2-1.7,2.9
			c-1.1,1.6-2.2,3.1-3.3,4.7c-0.4,1.1-1.1,1.9-2,2.6c-0.2,0.6-0.7,1-1.1,1.4c-0.5,1.4-1.8,2.1-2.7,3.2c-0.3,0.4-0.8,0.7-1.1,1.1
			c-0.1,0.1-0.3,0.2-0.4,0.3c0.3-0.1,0.5-0.3,0.7-0.5c1.7-0.8,3.2-1.9,5.1-2.3c1.4-0.5,2.9-0.9,4.3-1.4c0.9,0.2,1.9,0,2.8,0.1
			c0.8,0,1.6,0.2,1.8,1.1c0.1,0.2,0.3,0.5,0.4,0.7c0.4,0.5,0.8,1.1,0.5,1.8c0.4,3.3-0.6,6.4-1.9,9.3c-0.5,1.1-1.2,2.1-1.6,3.3
			c-0.1,1.2-1,1.9-1.7,2.7c-0.3,0.3-0.2,0.8-0.6,1c-0.4,1.2-1.2,2-2,2.8l0,0c-1.3,1.7-2.5,3.5-4.4,4.6c-0.2,0.2-0.4,0.4-0.6,0.6
			c-1.1,1.3-2.1,2.7-3.6,3.6c-0.4,0.3-0.7,0.6-1,0.9c-0.7,0.5-1.4,1.1-2.1,1.6c0,0.4-0.5,0.4-0.7,0.6c-0.6,0.5-1.2,1-1.9,1.6
			c-0.3,0.6-0.8,0.9-1.4,1.1c-0.3,0.3-0.7,0.5-1,0.8c-0.2,0.8-1,1-1.7,1.3c-0.2,0.3-0.5,0.5-0.7,0.8c-0.2,0.5-0.7,0.4-1,0.5
			c0.4,0,0.8-0.1,1.2,0c1-0.4,2,1,3,0.2c0.3,0.4,0.9,0.4,1.2,0.9c0.6,0.5,1.1,1,1.2,1.8c0.2,0.7,0.2,1.4,0,2.2
			c-0.3,1.1-0.7,2.1-1.2,3c-0.1,1.1-0.9,1.8-1.4,2.6c-0.3,0.4-0.6,0.7-0.9,1.1c-0.2,0.4-0.4,0.9-0.9,1.1c-0.5,0.6-0.9,1.2-1.4,1.7
			c-0.2,0.6-0.6,0.9-1.1,1.2l0,0c-0.7,1.5-2,2.3-3,3.6c-0.2,0.3-0.4,0.6-0.8,0.8c-0.6,0.7-1.3,1.3-2,1.7c-0.2,0.2-0.4,0.4-0.7,0.6
			c-0.2,0.4-0.4,0.8-0.9,0.9c-1,0.9-2.1,1.8-3.1,2.7c-0.3,0.5-0.8,0.6-1.2,0.8c-0.2,0.1-0.4,0.3-0.6,0.4c-1.4,1.7-3.4,2.7-5.3,3.6
			c-0.6,0.4-1.3,0.8-1.9,1.2c-0.3,0.3-0.7,0.4-1,0.5c-0.1,0.1-0.3,0.2-0.4,0.3c-0.6,0.8-1.5,0.9-2.3,1.2c-0.6,0.3-1.2,0.6-1.8,1
			c-0.2,0.3-0.5,0.6-1,0.5c-1,0.6-1.9,1.1-3.1,1.2c-1-0.2-0.6-1-0.5-1.5c0.7-4,1.8-7.8,3.1-11.6c2.6-7.7,6.2-14.8,10.7-21.5
			c2.3-3.4,4.8-6.7,7.6-9.7c0.3-0.2,0.6-0.5,0.8-0.8c-0.3,0.3-0.6,0.6-1,0.8c-3.2,3.2-7,4.9-11.4,5.7c-3.6,0.6-7,0-10-1.9
			c-3.3-2.1-4.8-5.4-5.1-9.2c-0.4-5.2,1.1-10,3.3-14.7c0.7-0.6,1.4-1.2,2-1.8c0.2-0.5,0.5-0.7,1-0.8c0.3-0.2,0.5-0.4,0.8-0.7
			c0.4-0.9,1.4-1.1,2-1.7c0.1-0.1,0.2-0.2,0.3-0.3c0.3-0.3,0.7-0.3,0.9-0.6l0,0c0.4-0.7,0.9-1.2,1.7-1.5c0.5-0.5,1-1.1,1.7-1.4
			c0.4-0.2,0.6-0.6,1-0.8c0.6-0.5,1.1-1,1.7-1.4c0.2-0.7,0.9-0.8,1.4-1.2c0.3-0.3,0.6-0.6,0.9-0.9c0.4-0.6,0.9-0.9,1.5-1.1
			c0.5-0.4,1-0.8,1.4-1.3c0.2-0.3,0.6-0.5,0.8-0.8c0.3-0.6,1.1-0.7,1.5-1.2c0.3-0.7,0.9-1,1.4-1.4c0.1-0.1,0.1-0.2,0.2-0.2
			c1.3-1.2,2.6-2.5,4.1-3.6c0.2-0.2,0.3-0.3,0.5-0.5c0.7-0.4,1.1-1.2,1.9-1.4c1.7-1.6,3.4-3.2,5.2-4.6c0.1-0.5,0.4-0.8,0.9-0.9
			c0.4-0.4,0.9-0.8,1.3-1.2c0.3-0.8,1.1-1,1.7-1.4c0.3-0.3,0.6-0.6,0.9-0.9c0.3-0.3,0.5-0.7,1-0.8c0.1-0.2,0.2-0.4,0.4-0.6
			c0.4-0.1,0.7-0.4,1-0.6c0.4-0.4,0.7-0.7,1.1-1.1c1-0.6,1.6-1.7,2.6-2.2c0.9-1.1,2-1.9,3.3-2.5c0.8-0.6,1.6-1.1,2.4-1.7
			c0.5-0.9,1.5-1.1,2.3-1.6l0,0c1-0.8,2.1-1.5,3.5-1.2c2.2,0.1,3.5,1.3,4.3,4.1C398.5,294.1,398.5,295.4,398.7,296.6z"/>
		<path class="st9" d="M179.4,361.8c8,5.4,16.6,9.5,25.9,12.1c2.2,0.6,4.4,1,6.7,0.5c4-0.8,6.3-4.2,5.4-8.2c-1-4.3-3.2-8.1-5.4-11.8
			c-4.2-7.1-9.1-13.7-15-19.7c-0.5-0.5-0.8-1.3-1.5-1.7c2.7,1.2,5.3,2.5,8.1,3.5c4.2,1.4,8.4,1.8,12.6,0.1c5.1-2.1,7.4-7,6.2-12.9
			c-0.3-1.2-1.1-2.4-0.6-3.8c0.7-0.1,0.5,0.8,1,0.9c0.7,0.2,1.2,0.7,1.5,1.4c0.1,0.1,0.2,0.3,0.4,0.4c0.3,0.2,0.6,0.3,0.9,0.5l0,0
			c0.5,0.3,0.9,0.7,1.2,1.2c0.5,0.5,0.8,1.1,1.5,1.4c0.4,0,0.7,0.2,0.8,0.6c0,0.6,0.7,0.4,0.9,0.8c0.4,0.2,0.7,0.4,0.9,0.8
			c0.7,0.6,1.4,1.2,2.1,1.8c1.1,0.3,1.8,1,2.5,1.9c2.1,1.5,4,3,5.7,5c0.1,0,0.1,0,0.2,0.1c0.9,0.3,1.7,0.9,2.1,1.8
			c1.1,1.1,2.4,2,3.7,2.9c1.1,0.5,2.1,1,2.7,2.1c0.4,0.2,0.6,0.7,1.1,0.8c0.7,0.3,1.5,0.6,1.8,1.4c0.6,0.7,1.4,1.1,2.2,1.5
			c0.6,0.2,1.3,0.2,1.4,1.1c-1.3,3.5-3.1,6.8-4.8,10.1c-4.1,8-8.7,15.7-13.7,23.2c-4.8,7.3-10.3,14.1-16.6,20.2
			c-0.4,0.4-0.7,0.9-1.4,1c-1.2,0.6-2.3-0.1-3.4-0.5c-0.3-0.1-0.6-0.4-1-0.2c-1.9-0.7-3.8-1.3-5.7-2c-0.4,0.2-0.6-0.2-1-0.2
			c-0.6-0.1-1.2-0.3-1.7-0.7c-1-0.3-1.9-0.6-2.9-1c-1.3-0.4-2.8-0.5-3.8-1.6c-1.8-0.4-3.3-1.3-5-2.1c0.1-1.4,0.9-2.6,0.9-4
			c0.3-4.1-1-7.7-3.1-11.1c-1.8-3-4.2-5.5-6.6-8c-2.7-2.9-5.5-5.8-7.3-9.5C179,361.8,179.1,361.7,179.4,361.8z"/>
		<path class="st9" d="M337.9,334.7c-0.1,1.9-1.2,3.6-1.7,5.4c-1.1,3.9-1.8,7.7-0.8,11.7c1.1,4.7,4.3,7.3,8.9,8.3
			c4.8,1,9.2-0.5,13.2-2.9c1.3-0.8,2.4-1.7,3.6-2.6c0.3-0.1,0.4,0,0.3,0.3c-5.2,5.8-9.6,12.1-13.1,19c-3.5,6.9-6.2,14.2-7.8,21.8
			c-0.2,1.1-0.9,2.3-0.3,3.5c-1.6,0.9-3.2,1.7-4.9,2.2c-1.1,0.8-2.3,1-3.6,1.2c-2,0.7-3.9,1.4-6,1.8c-0.4,0.3-0.8,0.5-1.3,0.4
			c-0.5,0.4-1.2-0.2-1.7,0.4c-0.4,0.2-0.8,0.3-1.2,0.3c-1.8,0.4-3.7,0.8-5.5,1.1c-0.4,0.3-0.7,0.4-1.1,0.1
			c4.7-6.3,8.8-12.9,11.4-20.4c3.6-10.5,3-20.8-0.9-31.1c-0.8-2.1-1.7-4.1-2.5-6.2c-0.2-0.6-0.5-1.3-0.5-2c-0.1-0.7,0.6-0.5,0.9-0.8
			c0.2-0.1,0.4-0.3,0.6-0.4c0.3-0.6,0.8-0.9,1.3-1c0.7-0.6,1.4-1.1,2.2-1.7c0.3-0.7,1-1,1.6-1.3c0.2-0.2,0.4-0.4,0.6-0.6
			c0.8-0.8,1.6-1.6,2.6-2.1c0.6-0.7,1.3-1.4,2.2-1.6c0.5-0.3,0.9-0.7,1.4-1c0.4-0.6,0.9-1.1,1.5-1.3
			C337.6,334.9,337.8,334.8,337.9,334.7z"/>
		<path class="st10" d="M321.7,337.8c-1.8,0.4-3.5,1-5.4,1.1c-2,0-3.3-0.9-4.3-2.5c-1.2-2-1.6-4.1-1.6-6.4c0-1.5,1-2.7,1.7-4
			c0.6-1.2,1.6-2.2,2.6-3.1c2.3-2.2,4.7-2.6,7.6-1.3c0.7,0.3,1.4,0.7,2,1.1c0.2-0.1,0.3-0.1,0.3,0.1c0.2,0.2,0.4,0.4,0.6,0.5
			c0.8,0.2,1.3,0.8,1.8,1.4l0,0c0.4,0.2,0.7,0.5,0.9,0.9c0.4,0.7,1.3,0.9,1.5,1.7c0.4,0.2,0.6,0.5,0.8,0.9l0,0
			c0.3,0.2,0.5,0.5,0.5,0.9c0.6,1.1,0.4,1.6-0.9,1.8c-0.7,0.1-1.5,0.1-2.2,0.3c-0.6,0-1.2-0.1-1.7,0.1c-0.6,0.2-1.7-0.1-1.8,0.6
			c-0.1,1.1,1.1,0.4,1.7,0.8c0.6,0.4,1.4,0.3,2.2,0.4c0.5,0.1,1,0.3,1.1,0.9c-0.5,0.4-1,0.9-1.6,1.1c-1.4,0.7-2.7,1.3-4.1,2
			C322.7,337.6,322.3,338,321.7,337.8z"/>
		<path class="st11" d="M164.9,303.9c3.1,4.6,6.1,9.3,9.6,13.7c-3.7-2.7-7.3-5.4-10.7-8.4c0.8,0.1,1-0.4,1.5-0.9
			c1.4-1.4,0.6-2.4-0.4-3.5C164.5,304.5,165,304.2,164.9,303.9z"/>
		<path class="st12" d="M158.7,342.9c2.4,3,4.9,5.8,7.6,8.6c-2.6-0.9-5-2.1-7.7-2.6c0-0.1,0-0.1-0.1-0.2c0.2-0.1,0.4-0.2,0.6-0.3
			c0.6-0.3,1.6-0.2,1.6-1c0.1-1-0.6-2.1-1.2-2.3c-1.2-0.5-1.2-1.3-1.1-2.2C158.5,342.8,158.6,342.8,158.7,342.9z"/>
		<path class="st13" d="M387.7,322.8c-1.7,0.9-3.4,1.7-5.1,2.6c-0.4,0.2-0.6,0.2-0.5-0.3c1.4-1.4,2.7-2.8,4.1-4.2
			c0.1,0.2,0.2,0.6,0.2,0.6C387.5,321.3,387.4,322.3,387.7,322.8z"/>
		<path class="st14" d="M215.1,402.2c0.9-0.6,1.7,0.2,2.6,0.3c0.6,0,1.2,0.2,1.8,0.3c-0.5,1.2-1.6,1.9-2.6,2.5c0-0.2,0-0.5,0-0.6
			c-1.4-0.2-1.2-1.3-1.2-2.3C215.7,402.1,215.3,402.3,215.1,402.2z"/>
		<path class="st15" d="M385.3,349c1.5-1.5,2.7-3.3,4.4-4.6c0,0.5-0.4,0.9-0.3,1.5c0.1,0.8,0.2,1.7-1.1,1.5c-0.5-0.1-1,0.4-1.1,0.9
			C387,349.7,386.5,350,385.3,349z"/>
		<path class="st16" d="M351.8,393.2c1.8-1.2,3.5-2.4,5.3-3.6c0,1-0.2,1.6-1.3,1.8c-1.1,0.2-1.8,1.5-3,1.8
			C352.5,393.2,352.2,393.2,351.8,393.2z"/>
		<path class="st17" d="M160.8,368.5c1.4,1.5,2.7,3,3.7,4.7c-1.1-0.1-1.4-1.1-2-1.8c-0.2-0.2-0.4-0.8-0.7-0.8
			C160.5,370.4,160.6,369.5,160.8,368.5z"/>
		<path class="st18" d="M171.6,380c1.5,1.2,3.1,2.4,4.6,3.7c0.1,0.1,0.1,0.1,0.1,0.2c0,0.1-0.1,0.1-0.1,0.1c-0.7-0.2-1.3-0.5-1.8-1
			c-0.3-0.3-0.7-0.7-1-0.7C171.4,382.5,171.8,381,171.6,380z"/>
		<path class="st16" d="M364.4,312c-1.2,1.4-2.5,2.7-4.1,3.6c0.6-0.7,0.5-2,1.8-2.1c0.2,0,0.3-0.2,0.3-0.4
			C362.6,311.8,363.5,311.9,364.4,312z"/>
		<path class="st19" d="M209,307.5c-1.1-1.1-2.5-2.1-3.2-3.6c1.5-0.3,2.4,0.3,2.3,1.9C208.2,306.5,209.5,306.5,209,307.5z"/>
		<path class="st20" d="M223.7,463.3c1.2-1.3,2.6-2.5,4-3.7C227.6,461.2,225.3,463.3,223.7,463.3z"/>
		<path class="st21" d="M155.9,285.5c0.7,1.3,1.2,2.6,1.5,4c-0.1-0.1-0.3-0.2-0.4-0.2c-2.3,0.3-1.1-1.4-1.1-2.2
			C155.8,286.5,155.5,286,155.9,285.5z"/>
		<path class="st22" d="M203.8,474.3c0.6,0.2,1.2-0.4,1.8,0c-0.4,1.1-1.4,0.5-2,0.8c-1,0.4-2.1,0.1-3.1,0.2c-0.4,0-0.4-0.3-0.4-0.6
			C201.2,474.2,202.5,474.3,203.8,474.3z"/>
		<path class="st17" d="M381,353.1c1.3-1.2,2.5-2.3,3.8-3.5c-0.1,0.3,0.2,0.7-0.3,0.9c-0.8,0.4-1.3,1.2-1.6,1.9
			c-0.4,1-0.9,1.2-1.8,1c-0.1-0.1-0.1-0.1-0.1-0.2C380.9,353.1,381,353.1,381,353.1z"/>
		<path class="st23" d="M263.7,438c2.1-0.5,4.1-0.9,6.2-1.4c-0.4,1-1.7,1.3-2.2,1.3C266.3,437.8,265,438.3,263.7,438z"/>
		<path class="st17" d="M188.1,471.2c1.1,0.6,2.1,1.1,3.2,1.7C189.5,473.7,188.2,473,188.1,471.2z"/>
		<path class="st24" d="M213.8,312.3c-0.8-0.9-1.7-1.7-2.5-2.6c0.5-0.2,1.3,0.2,1.1-1c0.2,1.6,0.9,2.5,2.5,2.5
			c-0.6,0.2-1.1,0.3-0.8,1C214,312.5,213.9,312.5,213.8,312.3z"/>
		<path class="st25" d="M203.8,474.3c-1.3,0.1-2.5,0.2-3.8,0.3c-0.3,0-0.6,0-0.9-0.1c-0.5-0.3-1.2,0.2-1.7-0.3
			C199.6,473.9,201.7,473.9,203.8,474.3z"/>
		<path class="st26" d="M176.1,461.9c1.1,0.1,2.1,0.2,3.2,0.4c0.9,0.1,1,1.1,1.4,1.7C179.4,462.7,177.4,463,176.1,461.9z"/>
		<path class="st27" d="M153.3,449.1c0.6,0.9,1.1,1.7,1.7,2.6c-0.2,0-0.5-0.1-0.7,0c-0.8,0.7-1,0.3-1-0.5
			C153.2,450.6,153.2,449.8,153.3,449.1z"/>
		<path class="st28" d="M200,396.8c1.3,0.5,2.6,0.8,3.8,1.6c-0.6,0.2-1.2-0.2-1.8,0.3C201.6,397.8,199.9,398.2,200,396.8z"/>
		<path class="st18" d="M386.2,293.2c-1.1,0.9-2.1,1.7-3.2,2.6c-0.1,0.1-0.2,0.1-0.3,0C383.2,294.4,384.8,293.2,386.2,293.2z"/>
		<path class="st29" d="M394.4,288.8c-1.2,0.4-2.4,0.8-3.5,1.2C391.5,288.3,393.2,287.7,394.4,288.8z"/>
		<path class="st30" d="M163.4,248c-0.6-0.8-1.5-1.3-1.8-2.3c0.6,0.2,1.3,0.7,2.1-0.4c0,1.2,0,2,0,2.7
			C163.6,248.2,163.5,248.2,163.4,248z"/>
		<path class="st31" d="M161.7,245.7c-1.1-0.3-1.6-1.3-2.4-2C161.6,243.6,161.6,243.6,161.7,245.7z"/>
		<path class="st20" d="M182.3,274.6c-0.9-0.9-1.5-1.9-2.2-3C181.6,272,182.8,272.7,182.3,274.6z"/>
		<path class="st16" d="M175.3,264.8c-0.8-0.9-1.4-1.8-2-2.8c0,0,0.1,0,0.1,0C175.4,262.1,175.4,263.4,175.3,264.8z"/>
		<path class="st32" d="M366.4,381.7c0.6-1.5,2-2.3,3-3.6C368.8,379.6,368.1,381,366.4,381.7z"/>
		<path class="st33" d="M373.7,373c0-1.1,1-1.7,1.4-2.6c0,0.3,1.3,0.1,0.3,0.8c-0.2,0.2-0.5,0.5-0.5,0.8
			C375.1,373.1,374.3,372.8,373.7,373z"/>
		<path class="st34" d="M331.8,402.5c1.2-0.5,2.3-1,3.6-1.2c-0.3,0.2,0.6,0.6-0.1,0.7C334.1,402.2,333,402.9,331.8,402.5z"/>
		<path class="st35" d="M294.1,426.1c0.7-0.6,1.4-1.3,2.4-1.5c0,0.6-0.1,1.2-0.1,1.9C295.7,425.7,294.8,426.4,294.1,426.1z"/>
		<path class="st36" d="M162.3,432.8c-0.7,0.5-1.5,0.9-2.4,1.1C160.2,432.2,160.9,431.8,162.3,432.8z"/>
		<path class="st37" d="M389.7,344.4c0.4-1.1,1.3-2,2-2.8C392,343.1,391.2,344,389.7,344.4z"/>
		<path class="st38" d="M196.5,293.2c-0.7-0.6-1.2-1.3-1.7-2.1c-0.1-0.1-0.1-0.2-0.1-0.2c0-0.1,0.1-0.1,0.1-0.1
			c0.5,0.1,0.9,0.1,1.5-0.3C196,291.5,196.7,292.3,196.5,293.2z"/>
		<path class="st35" d="M392.7,312.4c0.4-1,1-2,1.7-2.9c0.1,0.8-0.3,1.5-0.3,2.3C394,312.4,393.3,312.6,392.7,312.4z"/>
		<path class="st39" d="M155.2,452c0.9,0.8,1.9,1.5,2.6,2.5c-0.4,0-0.9,0-1.3,0C156.6,453.5,155.2,453.1,155.2,452z"/>
		<path class="st23" d="M185.5,389.8c0.8,0.4,1.8,0.6,2.4,1.5c-0.2,0-0.5-0.1-0.7,0C185.7,391.8,185.4,391,185.5,389.8z"/>
		<path class="st40" d="M193.3,420.6c-0.9,0.6-1.9,1-2.8,1.3c-0.2-0.5-0.2-1,0.4-1.1C191.7,420.8,192.4,420.2,193.3,420.6z"/>
		<path class="st41" d="M300.1,421.7c0.8-0.7,1.5-1.3,2.3-2c0.1-0.1,0.3-0.1,0.4,0c0,0.2,0,0.4,0,0.6c0,0.3-0.1,0.4-0.3,0.3
			C301.7,421,301.3,422.2,300.1,421.7z"/>
		<path class="st42" d="M158.2,291.3c0.5,0.7,0.8,1.5,1.1,2.4C157.7,293.5,157.4,293,158.2,291.3z"/>
		<path class="st43" d="M382.7,295.8c0.1,0,0.2,0,0.3,0c-0.9,0.7-1.5,1.8-2.7,2.1c0.2-0.3,0.6-0.6,0.6-0.9
			C381,295.7,381.8,295.7,382.7,295.8z"/>
		<path class="st44" d="M154.1,355.7c0.5,1.3,0.9,2.5,1.4,3.8c-1.1-0.9-1.6-2-1.4-3.5C154,355.9,154,355.8,154.1,355.7z"/>
		<path class="st45" d="M162.8,300.5c0.5,0.8,1.2,1.6,1.4,2.6C162.7,302.9,162.7,301.7,162.8,300.5z"/>
		<path class="st46" d="M153.5,278.6c0,0.1,0.1,0.2,0.1,0.3c0.2,0.5-0.1,1.2,0.5,1.5c0.2,0.6,0.4,1.1,0.5,1.7
			c-0.2,0-0.4,0.8-0.6-0.1c-0.1-0.6-0.4-1.1-1-1.6C152,279.8,153.2,279.2,153.5,278.6z"/>
		<path class="st36" d="M158.2,434.9c-0.6,0.4-1.2,1.1-2,1.2l0-0.1c0.3-0.3-0.8-1.1,0.5-1.2C157.2,434.7,157.6,434.8,158.2,434.9z"
			/>
		<path class="st47" d="M150.2,248.9c-0.2,1.2-0.4,2.3-0.6,3.5c0,0-0.1,0-0.1,0c0-1,0-2.1-0.1-3.1
			C149.3,248.4,149.9,249,150.2,248.9z"/>
		<path class="st48" d="M181.6,387.7c1-0.1,1.5,0.6,2.2,1.1c-0.3-0.1-0.6,0.8-1,0c-0.3-0.7-0.8,0.1-1.3,0
			C181.6,388.5,181.8,388.1,181.6,387.7z"/>
		<path class="st49" d="M390.9,289.9c-0.6,0.7-1.5,1.1-2.3,1.6c-0.1-0.4-0.2-0.8-0.3-1.2C389.2,290.4,390,290,390.9,289.9z"/>
		<path class="st50" d="M392.4,340.6c0.4-1,1-1.9,1.7-2.7c0.6,0.3,0.3,0.6,0,0.9C393.6,339.4,393.5,340.5,392.4,340.6z"/>
		<path class="st51" d="M215.2,406.9c-0.5,0.6-1.1,1.1-1.8,1.5c-0.1-0.5-0.1-1.1,0.2-1.5c0-0.5,0.3-0.5,0.6-0.3
			C214.6,406.7,214.9,406.8,215.2,406.9z"/>
		<path class="st52" d="M194.3,290.2c-0.9-0.5-1.3-1.5-2-2.3C194.1,287.8,193.8,289.3,194.3,290.2z"/>
		<path class="st30" d="M275.1,435.1c0.8-0.3,1.6-0.5,2.4-0.8c0,0.4,0.1,0.7,0.1,1.1C276.8,435.2,275.8,435.8,275.1,435.1z"/>
		<path class="st53" d="M387.3,319.6c0.7-0.9,1.4-1.7,2-2.6C389.4,318.3,388.6,319.3,387.3,319.6z"/>
		<path class="st54" d="M224.1,322.2c-0.5-0.5-1-0.9-1.5-1.4c0.6,0,1.2-0.2,1.7-0.6C224.3,320.9,224.2,321.5,224.1,322.2z"/>
		<path class="st55" d="M162.8,308.5c-0.8-0.6-1.5-1.3-2.3-1.9C161.7,306.7,162.8,306.9,162.8,308.5z"/>
		<path class="st17" d="M315,406.6c0.4,0,0.7,0,1.1-0.1c-0.2,0.5,0.5,0.5,0.4,0.9c-0.5-0.4-0.9,1.1-1.5,0.1c-0.1-0.1-0.4,0-0.7,0
			C314.5,407.2,314.7,406.9,315,406.6z"/>
		<path class="st56" d="M281.8,432.7c1-0.6,2.1-1.2,3.3-1.4C284.3,432.7,283,432.6,281.8,432.7z"/>
		<path class="st57" d="M247.2,438.8c1.6-0.4,3.3-0.4,4.9,0c-1,0.4-2.1-0.1-3.2,0.3c-0.3,0-0.6,0-0.9,0
			C247.8,438.9,247.4,439.2,247.2,438.8z"/>
		<path class="st58" d="M162.5,457.3c0.7,0.3,1.5,0.7,2.2,1c-0.6,0.4-1.3,0.1-1.9,0.1C161.9,458.5,162.8,457.7,162.5,457.3z"/>
		<path class="st59" d="M149.5,252.4c0,0,0.1,0,0.1,0c0,0,0.1,0,0.1,0c0.1,1.7,0.2,3.5,0,5.2c0,0.1-0.1,0.2-0.1,0.3
			c-0.1-0.3-0.1-0.6-0.2-0.8c-0.2-0.8-0.2-1.6,0-2.4C149.4,254,149.5,253.2,149.5,252.4z"/>
		<path class="st40" d="M397.9,301.6c-0.2-1,0.2-1.8,0.5-2.7c0.1,0.6,0,1.1,0.3,1.7C399,301.3,398.6,301.7,397.9,301.6z"/>
		<path class="st60" d="M363.6,384.2c0.6-0.7,1.1-1.5,2-1.7C365.5,383.7,364.8,384.2,363.6,384.2z"/>
		<path class="st61" d="M366.8,310c-0.6,0.6-1,1.4-1.9,1.4C364.9,310.2,365.6,309.9,366.8,310z"/>
		<path class="st17" d="M360,315.8c-0.2,0.7-0.9,1-1.4,1.4c-0.4-1.5-0.4-1.5,1-1.4C359.8,315.8,359.9,315.8,360,315.8z"/>
		<path class="st54" d="M241.1,445c0.4-0.8,1-1.5,1.7-2.1C243,444.2,242.4,444.9,241.1,445z"/>
		<path class="st41" d="M186.3,280.1c-0.5-0.6-1-1.2-1.5-1.8C186.8,278.4,186.8,278.5,186.3,280.1z"/>
		<path class="st62" d="M219.6,317.9c-0.7-0.5-1.3-1-1.8-1.8C218.9,316.2,219.8,316.4,219.6,317.9z"/>
		<path class="st63" d="M303.6,418.9c0.4-0.8,1.1-1.3,1.8-1.8C305.5,418.4,304.9,419,303.6,418.9z"/>
		<path class="st64" d="M179.6,271c-0.6-0.6-1-1.3-1.4-2C180,268.7,179.5,270.1,179.6,271z"/>
		<path class="st65" d="M159.3,305.6c-0.7-0.5-1.3-1-1.8-1.6C158.6,303.9,159.7,304,159.3,305.6z"/>
		<path class="st31" d="M215.4,469.7c0.5-0.5,1.1-1,1.8-1.2C217.1,469.9,216.7,470.2,215.4,469.7z"/>
		<path class="st13" d="M205.9,303.9c-0.9-0.3-1.2-1.1-1.8-1.7C206,301.5,205.5,303.1,205.9,303.9z"/>
		<path class="st66" d="M152,445.8c0.2,0.5,0.3,1,0.5,1.5c-0.4-0.3-0.8,0.7-1,0C151.4,446.9,150.9,446,152,445.8z"/>
		<path class="st67" d="M186,423.8c-0.9,0.5-1.8,0.9-2.8,1.1C183.7,423.5,185,423.8,186,423.8z"/>
		<path class="st68" d="M168.3,254.6c-0.4-0.5-0.7-1.1-1.1-1.6c0.3-0.1,0.5-0.6,0.9-0.1c0.2,0.3,0.6,0.4,0.3,0.9
			C168.2,254,168.3,254.3,168.3,254.6z"/>
		<path class="st54" d="M371.5,360.9c0.4-0.6,1-0.9,1.7-1.3C373.6,360.9,373.5,361,371.5,360.9z"/>
		<path class="st69" d="M154.1,336.2c0.5,0.6,1,1.2,1.1,2.1C154.4,337.9,153.3,337.6,154.1,336.2z"/>
		<path class="st70" d="M248.9,439.1c1-0.5,2.1-0.1,3.2-0.3c0.2,0,0.4,0,0.6,0c0.2-0.2,0.5-0.1,0.8-0.1c0.1,0.1,0.1,0.1,0.1,0.2
			c0,0.1,0,0.1,0,0.1C252,439.2,250.5,439.3,248.9,439.1z"/>
		<path class="st62" d="M376,301.9c-0.4,0.6-1,1.1-1.7,1.4C373.9,302.3,374.4,301.9,376,301.9z"/>
		<path class="st55" d="M157,303.6c-0.7-0.6-1.4-1.1-2.1-1.7C156.1,301.8,156.9,302.2,157,303.6z"/>
		<path class="st71" d="M228.9,458.4c0.5-0.7,1-1.2,1.7-1.7C230.7,457.9,230.2,458.5,228.9,458.4z"/>
		<path class="st72" d="M166.9,459.3c1,0,1.8,0.5,2.7,0.8C168.5,460.5,167.5,460.3,166.9,459.3z"/>
		<path class="st69" d="M153.5,438.6c-0.3,0.9-0.7,1.7-1.4,2.4C151.9,439.8,152.3,439,153.5,438.6z"/>
		<path class="st73" d="M346.2,396.4c0.7-0.5,1.4-1,2.3-1.2C348.2,396.6,347.2,396.4,346.2,396.4z"/>
		<path class="st74" d="M218,467.9c0.3-0.4,0.7-0.7,1.2-1c-0.2,0.6,0.8,0.6,0.6,1.3c-0.3,0.3-0.5,0.2-0.8,0.1
			C218.6,468.2,218.3,468.1,218,467.9z"/>
		<path class="st75" d="M296.9,296.9c-1.5-0.1-2.9,0.2-4.4-0.2C294,296.7,295.5,296.4,296.9,296.9z"/>
		<path class="st55" d="M287.8,429.8c0.6-0.5,1.3-0.9,2.1-1.1C289.8,430.1,288.8,430,287.8,429.8z"/>
		<path class="st76" d="M175.7,427.8c-0.6,0.3-1.2,0.6-1.8,0.6C173.8,426.3,175,427.8,175.7,427.8z"/>
		<path class="st77" d="M236.8,449.9c0.4-0.7,1-1.3,1.6-1.8C238.7,449.5,237.7,449.7,236.8,449.9z"/>
		<path class="st78" d="M156.2,360.7c0.3,0.7,0.7,1.3,1,2C156.3,362.5,155.8,361.6,156.2,360.7z"/>
		<path class="st55" d="M154.3,301.6c-0.6-0.3-1.2-0.6-1.7-0.9c0.1-0.2,0.3-0.6,0.3-0.5C153.1,300.9,154.7,300.3,154.3,301.6z"/>
		<path class="st79" d="M226.6,324.3c-0.5-0.3-1-0.6-1.2-1.2c0.5,0,1.1,0.3,1.3-0.5C227.2,323.2,226.4,323.8,226.6,324.3z"/>
		<path class="st57" d="M253.6,438.9c-0.3,0-0.6,0-0.9,0c1.1-0.4,2.2-0.6,3.2,0.1c-0.3,0.3-0.6,0.2-0.9,0.1
			C254.6,438.9,254,439.2,253.6,438.9z"/>
		<path class="st80" d="M317.5,305.7c-0.1,0.1-0.2,0.1-0.3,0c-0.4-0.4-0.7-0.8-1.1-1.2"/>
		<path class="st45" d="M242.9,442.7c0.3-0.4,0.6-0.8,1-1.2c0.1-0.1,0.3-0.1,0.4,0C244.6,442.9,243.7,442.7,242.9,442.7z"/>
		<path class="st40" d="M201.2,416.5c-0.6,0.3-1.1,0.7-1.7,1C199.2,415.8,200.4,416.4,201.2,416.5z"/>
		<path class="st81" d="M231.5,455.8c0.6-0.6,1-1.4,1.8-1.7C233,455,232.7,455.9,231.5,455.8z"/>
		<path class="st82" d="M396.7,322.6c-0.5-0.4-1-0.9-1.7-1c-0.1,0-0.2-0.1-0.1-0.3C396.7,321.2,396.7,321.2,396.7,322.6z"/>
		<path class="st83" d="M154.1,355.7c0,0.1,0,0.2,0,0.3c-1.3-0.5-0.5-1.5-0.5-2.3C154,354.3,154,355,154.1,355.7z"/>
		<path class="st84" d="M398.7,296.6c-0.4-1.3-0.4-2.5,0-3.8C398.7,294.1,398.7,295.4,398.7,296.6z"/>
		<path class="st85" d="M198.5,295.7c-0.4-0.3-0.7-0.7-0.9-1.1c0.4-0.1,0.8-0.6,1.1-0.2C198.9,294.7,198.6,295.3,198.5,295.7z"/>
		<path class="st86" d="M345.9,326c-0.1-0.6-0.3-1,0.2-1.3c0.2-0.1,0.4,0,0.5,0.2C346.8,325.3,346.4,325.6,345.9,326z"/>
		<path class="st87" d="M146.3,308.3c0.5,1.1,0.1,2.3,0.2,3.5c-0.1,0.1-0.2,0.1-0.2,0C146.3,310.6,146.3,309.4,146.3,308.3z"/>
		<path class="st21" d="M158.2,364.4c0.3,0.2,0.5,0.5,0.5,0.9c-0.5,0,0.1,1.2-0.8,0.8c-0.6-0.3,0-0.8,0.1-1.1
			C158.1,364.8,158.1,364.6,158.2,364.4z"/>
		<path class="st88" d="M177.3,267.8c-0.4-0.6-0.8-1.1-1.2-1.7c0.2,0,0.4,0,0.6,0l0,0c0,0.4,0.1,0.7,0.5,0.8
			C178.6,267,177.4,267.5,177.3,267.8z"/>
		<path class="st16" d="M184.6,277.8c-0.4-0.5-0.7-1-1.1-1.4C184.4,275.9,184.5,276,184.6,277.8z"/>
		<path class="st89" d="M217.8,316.1c-0.6-0.3-1.1-0.9-1.5-1.4C217.6,314.3,217.6,315.3,217.8,316.1z"/>
		<path class="st90" d="M147.3,302.5c-0.2,0.4-0.3,0.8-0.5,1.2c-0.6-0.3-0.8-0.8-0.5-1.3C146.5,302,146.9,302.7,147.3,302.5z"/>
		<path class="st91" d="M385.3,351.9c-0.1,0.3-0.2,0.5-0.6,0.5c-0.3,0-0.5-0.3-0.5-0.6c0-0.4,0.3-0.3,0.5-0.3
			C385.1,351.4,385.2,351.6,385.3,351.9z"/>
		<path class="st92" d="M191.3,393c0.5,0,0.8,0.2,1.2,0.5c-0.5,0.5-1.1,0.4-1.6,0.3C190.7,393.4,191.3,393.3,191.3,393z"/>
		<path class="st64" d="M189.2,284c-0.3-0.4-0.5-0.7-0.8-1.1c-0.1-0.1-0.1-0.1-0.1-0.2c0-0.1,0.1-0.1,0.1-0.1
			C188.6,283.2,190.5,282.6,189.2,284z"/>
		<path class="st93" d="M155,437.1c-0.3,0.5-0.6,0.9-1.2,1.1c-0.1-0.4-0.1-0.7-0.2-1.1C154,437.1,154.5,437.1,155,437.1z"/>
		<path class="st94" d="M326.9,324.9c-0.6-0.5-1.2-1-1.8-1.4"/>
		<path class="st95" d="M206.7,399.4c0.6,0,1.2,0.3,1.8,0.6c0.1,0.1,0.1,0.1,0.1,0.2c0,0.1-0.1,0.1-0.1,0.1
			C207.7,400.3,207,400.3,206.7,399.4z"/>
		<path class="st96" d="M324,344.4c0,0.2-0.1,0.4-0.1,0.6c-0.1,0-0.2-0.1-0.2-0.1c-0.3-0.3-0.9-0.2-0.9-0.7c0-0.1,0.2-0.3,0.3-0.3
			C323.6,343.5,323.5,344.4,324,344.4z"/>
		<path class="st97" d="M372.9,304.5c-0.2,0.4-0.6,0.7-0.9,0.9c-0.1-0.4-0.6-0.7-0.2-1.1C372.2,303.9,372.6,304.5,372.9,304.5z"/>
		<path class="st98" d="M152,442c0,1.1,0,2.3,0,3.4C151.6,444.3,151.6,443.2,152,442z"/>
		<path class="st99" d="M374.1,358.9c0.4-0.5,0.8-0.8,1.4-1.1C375.6,358.9,375,359.2,374.1,358.9z"/>
		<path class="st100" d="M394.9,321.4c0,0.1,0.1,0.2,0.1,0.3c-1-0.1-2,0.3-2.9-0.2C393,321.4,393.9,321.4,394.9,321.4z"/>
		<path class="st101" d="M378.8,297.4c-0.1-0.2-0.5-0.5,0.1-0.6c0.3,0,0.5,0.3,0.5,0.6c0,0.3-0.3,0.6-0.5,0.5
			C378.3,297.9,378.6,297.6,378.8,297.4z"/>
		<path class="st46" d="M207.8,475c0.2,0,0.6,0.1,0.5,0.4c-0.1,0.2-0.4,0.3-0.6,0.4c-0.2,0.1-0.4,0-0.4-0.2
			C207.3,475.3,207.4,475,207.8,475z"/>
		<path class="st90" d="M357.7,389.1c0.3-0.4,0.7-0.8,1.2-0.8c0,0.4-0.1,0.8-0.1,1.2C358.4,389.3,358,389.2,357.7,389.1z"/>
		<path class="st102" d="M371.9,375.1c0.2-0.5,0.4-0.9,0.9-1.1C373.1,374.9,373,375.5,371.9,375.1z"/>
		<path class="st103" d="M211.4,472.1c0.3-0.6,0.9-0.6,1.4-0.9C213,472.7,211.9,471.8,211.4,472.1z"/>
		<path class="st104" d="M211.1,309.5c-0.5-0.3-0.9-0.8-1.2-1.2C210.7,308.3,211.3,308.5,211.1,309.5z"/>
		<path class="st105" d="M162.3,373.6c-0.5-0.6-0.5-1-0.2-1.4c0,0,0.3,0,0.4,0.1C162.7,372.7,162.2,373,162.3,373.6z"/>
		<path class="st95" d="M207.9,412.4c-0.4,0.5-0.8,0.9-1.5,0.9C206.6,412.4,207.2,412.4,207.9,412.4z"/>
		<path class="st106" d="M369.3,378.1c0.4-0.4,0.7-0.8,1.1-1.2C370.7,377.9,370.2,378.2,369.3,378.1z"/>
		<path class="st26" d="M196.9,418.8c-0.4,0.3-0.7,0.6-1.3,0.5C195.8,418.5,196.2,418.2,196.9,418.8z"/>
		<path class="st107" d="M149.7,300.4c-0.2,0-0.4,0-0.6,0c0.5-0.9,1.1-1.1,1.8-0.3C150.6,300.6,150.1,300.2,149.7,300.4z"/>
		<path class="st108" d="M244.2,441.5c-0.1,0-0.2,0-0.4,0c0.3-0.4,0.6-0.8,1-1.2C245.6,441.2,244.6,441.2,244.2,441.5z"/>
		<path class="st109" d="M228.8,326.4c-0.3-0.2-0.5-0.4-0.8-0.6c0.4-0.1,0-0.9,0.4-0.7C228.9,325.2,229.1,325.8,228.8,326.4z"/>
		<path class="st110" d="M220.9,465.6c0.2-0.4,0.5-0.6,0.9-0.8c-0.2,0.4,0.4,0.8,0.1,1.1C221.6,466.2,221.3,465.8,220.9,465.6z"/>
		<path class="st111" d="M182.3,425.3c-0.5,0.4-1.2,0.6-1.8,0.8c-0.1-0.1-0.1-0.1-0.1-0.2c0-0.1,0.1-0.1,0.1-0.1
			C181,425.2,181.7,425.1,182.3,425.3z"/>
		<path class="st112" d="M210,306.3c0.2,0,0.5,0.1,0.4,0.4c-0.1,0.2-0.2,0.3-0.4,0.2c-0.2-0.1-0.5-0.1-0.4-0.5
			C209.5,306.2,209.8,306.3,210,306.3z"/>
		<path class="st113" d="M209.2,411.6c-0.3,0.4-0.7,0.8-1.3,0.8C207.7,411.3,208.5,411.5,209.2,411.6z"/>
		<path class="st114" d="M169.4,256.4c-0.3-0.4-0.5-0.7-0.8-1.1C169.8,255,169.6,255.8,169.4,256.4z"/>
		<path class="st115" d="M307.7,414.7c0.2-0.4,0.5-0.7,0.9-0.8c0.1-0.1,0.1-0.1,0.2,0C308.4,414,308.8,415.4,307.7,414.7z"/>
		<path class="st116" d="M308.9,413.9l-0.1,0c0,0-0.1,0-0.1,0c0.1-0.6,0.6-0.9,1-1.2C310.2,413.6,309.1,413.4,308.9,413.9z"/>
		<path class="st117" d="M163.4,248c0.1,0,0.2,0,0.3,0c0.7,0.1,0.8,0.7,0.8,1.3C164,249,163.7,248.5,163.4,248z"/>
		<path class="st118" d="M151.8,272.2c0.4,0.4,0.4,1,0.5,1.5C151,273.6,151.9,272.7,151.8,272.2z"/>
		<path class="st119" d="M370.9,362.2c-0.4,0.3-0.8,0.2-1.3,0.1c0.2-0.6,0.7-0.5,1.2-0.6C370.8,361.9,370.9,362,370.9,362.2z"/>
		<path class="st120" d="M217.5,313.8c0,0.2,0,0.5-0.3,0.4c-0.2-0.1-0.3-0.3-0.4-0.5c0,0,0.2-0.2,0.3-0.3
			C217.4,313.3,217.5,313.5,217.5,313.8z"/>
		<path class="st121" d="M279.5,301.9c-0.3,0.4-0.7,0.8-1.2,1"/>
		<path class="st122" d="M397.6,325.2c-0.2-0.6-0.4-1.2-0.5-1.8C397.8,323.8,398.1,324.4,397.6,325.2z"/>
		<path class="st123" d="M178.8,385.6c0.4,0.1,0.7,0.3,0.9,0.6c-0.2,0.2-0.5,0.4-0.8,0.6C178.8,386.4,178.8,386,178.8,385.6z"/>
		<path class="st124" d="M158.4,348.8c0,0,0.1,0.1,0.1,0.2c-0.8,0-1.6,0-2.4,0c0-0.1,0-0.1,0-0.2
			C156.9,348.6,157.7,348.7,158.4,348.8z"/>
		<path class="st125" d="M197.4,474.3c0.6,0.1,1.2-0.1,1.7,0.3c-0.8,0-1.6,0.3-2.3-0.2C197,474.4,197.2,474.4,197.4,474.3z"/>
		<path class="st126" d="M149.4,254.7c0,0.8,0,1.6,0,2.4C149,256.3,149,255.5,149.4,254.7z"/>
		<path class="st127" d="M348.9,394.9c0.3-0.3,0.6-0.6,1-0.5c0.1,0.2,0.3,0.6,0.2,0.7C349.7,395.6,349.3,394.8,348.9,394.9z"/>
		<path class="st128" d="M156.1,242.2c-0.3,0.4-0.6-0.1-0.9,0c-0.3,0.2-0.6,0.2-0.9,0.1c-0.1-0.3,0-0.5,0.3-0.4
			C155.2,242,155.8,241.7,156.1,242.2z"/>
		<path class="st129" d="M155.5,338.6c0.4,0.3,0.6,0.7,0.8,1.1c-0.1,0.1-0.2,0.1-0.3,0C155.1,339.7,155.7,339,155.5,338.6z"/>
		<path class="st17" d="M343.4,397.9c0.3-0.3,0.6-0.4,1-0.5c0,0.3,0.2,0.6-0.2,0.8C343.9,398.3,343.5,398.2,343.4,397.9z"/>
		<path class="st130" d="M158.7,243.3c-0.4-0.2-0.8-0.5-1.2-0.7C158.1,242.6,158.9,242.1,158.7,243.3z"/>
		<path class="st131" d="M239.6,446.8c0.2-0.4,0.5-0.8,0.9-1.1C240.6,446.4,240.5,446.9,239.6,446.8z"/>
		<path class="st132" d="M156.1,436C156.1,436,156.1,436,156.1,436c-0.2,0.7-0.7,0.9-1.2,1.2C154.8,436.2,155.7,436.3,156.1,436z"/>
		<path class="st133" d="M362,385.6c0.2-0.4,0.5-0.7,0.9-0.9C362.9,385.4,363.1,386.2,362,385.6z"/>
		<path class="st134" d="M168.9,430.2c-0.4,0.3-0.9,0.6-1.5,0.5C167.7,430,168.4,430.1,168.9,430.2z"/>
		<path class="st135" d="M151.1,268.6c0.1,0.4,0.2,0.8,0.3,1.3C150.5,269.8,150.5,269.8,151.1,268.6z"/>
		<path class="st136" d="M188.4,282.6c0,0.1,0,0.2,0,0.3c-0.4-0.3-0.7-0.7-0.8-1.1C188.3,281.6,188.5,282,188.4,282.6z"/>
		<path class="st137" d="M173,428.7c-0.4,0.3-0.9,0.5-1.5,0.5C171.7,428.1,172.5,428.9,173,428.7z"/>
		<path class="st138" d="M154.7,241.9c-0.1,0.1-0.2,0.2-0.4,0.3c0,0.1-0.1,0.2-0.2,0.1c-0.1,0-0.2-0.1-0.3-0.1c0-0.3,0-0.7,0-1.2
			C154.1,241.4,154.4,241.7,154.7,241.9z"/>
		<path class="st139" d="M376.3,367.3c0-0.7,0-1.4,0-2.2C376.8,365.9,376.8,366.6,376.3,367.3z"/>
		<path class="st140" d="M375.1,363.3c-0.4-0.3-1.1-0.2-1.2-0.9C374.3,362.8,375.4,362.2,375.1,363.3z"/>
		<path class="st141" d="M153.6,351.3c0.2,0.7,0.4,1.4-0.1,2.1C153.5,352.7,153.4,352,153.6,351.3z"/>
		<path class="st142" d="M305.4,417.1c0.2-0.4,0.5-0.7,0.9-0.9c0.1-0.1,0.2-0.1,0.3,0C306.2,416.6,306,417.1,305.4,417.1z"/>
		<path class="st143" d="M219,468.3c0.3,0,0.6,0,0.8-0.1c0.2,0.1,0.3,0.3,0.1,0.4C219.5,468.9,219.2,468.6,219,468.3z"/>
		<path class="st144" d="M381,353.1c0,0.1,0,0.2,0,0.3c0.1,0.8-0.5,0.5-0.9,0.6C380.2,353.5,380.6,353.3,381,353.1z"/>
		<path class="st145" d="M302.8,419.7c-0.1,0-0.2,0-0.4,0c0.3-0.4,0.6-0.8,1.2-0.9C303.4,419.1,303.1,419.4,302.8,419.7z"/>
		<path class="st146" d="M156.1,348.8c0,0.1,0,0.1,0,0.2c-0.3,0.1-0.6,0.2-0.9,0.3C154.8,347.7,155.8,348.9,156.1,348.8z"/>
		<path class="st147" d="M181.5,465c0.3,0.3,0.5,0.6,0.8,0.9C181.3,466.2,181.4,465.6,181.5,465z"/>
		<path class="st148" d="M202.9,300.8c-0.3-0.3-0.6-0.6-0.8-0.9C202.9,299.7,203.1,300,202.9,300.8z"/>
		<path class="st149" d="M156.1,339.7c0.1,0,0.2,0,0.3,0c0.2,0.3,0.4,0.6,0.5,0.9C156.1,340.8,156.1,340.3,156.1,339.7z"/>
		<path class="st138" d="M377.9,300.2c-0.3,0.3-0.5,0.7-1,0.8C376.8,300.1,377.2,300,377.9,300.2z"/>
		<path class="st120" d="M160.2,296c0.3,0.1,0.2,0.4,0.3,0.6c-0.2,0.1-0.5,0.3-0.7,0C159.6,296.3,160,296.2,160.2,296z"/>
		<path class="st150" d="M180.5,425.7c0,0.1,0,0.2,0,0.3c-0.4,0.1-0.7,0.4-1.2,0.3C179.4,425.4,180.2,426,180.5,425.7z"/>
		<path class="st151" d="M166,374.7c0.4,0.1,0.6,0.5,0.8,0.8C166.1,375.6,165.9,375.3,166,374.7z"/>
		<path class="st152" d="M169.5,378.2c0.4,0.1,0.6,0.4,0.9,0.8C169.7,379.1,169.4,378.9,169.5,378.2z"/>
		<path class="st153" d="M234.7,452.3c0.1-0.4,0.4-0.7,0.8-0.8C235.6,452.1,235.5,452.5,234.7,452.3z"/>
		<path class="st154" d="M176.2,383.9c0-0.1,0-0.2,0-0.2c0.4,0.2,0.7,0.4,1,0.8C176.7,384.5,176.1,384.8,176.2,383.9z"/>
		<path class="st155" d="M166.7,431.1c-0.4,0.3-0.8,0.5-1.3,0.5C165.5,430.6,166.2,431.2,166.7,431.1z"/>
		<path class="st156" d="M146.3,311.8c0.1,0,0.2,0,0.2,0c-0.1,0.6,0.3,1.2-0.2,1.7C146.3,312.9,146.3,312.4,146.3,311.8z"/>
		<path class="st157" d="M153.5,335.2c0.2,0.2,0.3,0.4,0.5,0.7c-0.3,0-0.7,0-1,0C153,335.5,153.3,335.4,153.5,335.2z"/>
		<path class="st158" d="M325.7,331.5c0.6-0.4,1.1-0.3,1.7-0.1C326.9,331.6,326.3,331.5,325.7,331.5z"/>
		<path class="st159" d="M213.8,312.3c0.1,0,0.2,0,0.2,0c0.7,0,0.9,0.3,0.8,1C214.5,313,214.1,312.7,213.8,312.3z"/>
		<path class="st160" d="M214.3,406.6c-0.2,0.1-0.6,0-0.6,0.3c-0.2-0.2-0.6-0.4-0.4-0.6C213.6,406.1,214,406.3,214.3,406.6z"/>
		<path class="st161" d="M321.6,405.4c0.3-0.3,0.8-0.3,1.2-0.3C322.4,405.4,322.2,406.2,321.6,405.4z"/>
		<path class="st162" d="M324.4,404.7c0.4-0.3,0.8-0.5,1.3-0.4C325.6,405.3,325,404.9,324.4,404.7z"/>
		<path class="st163" d="M220.4,318.7c-0.4-0.2-0.7-0.5-0.8-0.8C220.2,317.8,220.6,317.9,220.4,318.7z"/>
		<path class="st164" d="M246,440c0.1,0.1,0.3,0.2,0.4,0.4c0.1,0.3-0.2,0.3-0.3,0.2c-0.1-0.1-0.3-0.2-0.4-0.3
			C245.7,440.2,245.8,440.1,246,440z"/>
		<path class="st165" d="M247.2,438.8c0.3,0.1,0.7,0,0.9,0.3c-0.5,0.1-1,0.2-1.5-0.2C246.7,438.9,247,438.9,247.2,438.8z"/>
		<path class="st166" d="M253.6,438.9c0.5,0.1,1-0.2,1.4,0.2c-0.5,0-1,0-1.4,0C253.6,439.1,253.6,439,253.6,438.9z"/>
		<path class="st167" d="M257.3,438.9c0.5-0.4,1-0.2,1.5-0.2C258.4,439.1,257.9,438.9,257.3,438.9z"/>
		<path class="st96" d="M391.5,320.2c0.3,0,0.7,0,0.7,0.1c0,0.4-0.3,0.2-0.4,0.2c-0.1,0-0.2-0.1-0.4-0.1
			C391.5,320.3,391.5,320.3,391.5,320.2z"/>
		<path class="st168" d="M357.1,318.4c-0.1,0.5-0.4,0.7-0.8,0.8C356.2,318.6,356.6,318.5,357.1,318.4z"/>
		<path class="st169" d="M225.4,323.1c-0.5,0.1-0.6-0.3-0.9-0.5C225,322.5,225.4,322.3,225.4,323.1z"/>
		<path class="st170" d="M146.6,315.9c0.5,0.4,0.3,0.9,0.2,1.4C146.2,316.9,146.6,316.3,146.6,315.9z"/>
		<path class="st171" d="M207.9,400.9c-0.1,0.1-0.1,0.3-0.2,0.4c-0.3,0.1-0.2-0.2-0.2-0.3c0-0.1-0.1-0.3,0.1-0.3
			C207.7,400.6,207.8,400.8,207.9,400.9z"/>
		<path class="st172" d="M288.5,431c-0.2,0.3-0.4,0.4-0.7,0.3c0,0,0-0.2,0-0.2C288,431.1,288.2,431.1,288.5,431z"/>
		<path class="st173" d="M208.5,400.2c0-0.1,0-0.2,0-0.2c0.3,0.1,0.6,0.2,0.9,0.3C209.1,401.1,208.8,400.4,208.5,400.2z"/>
		<path class="st174" d="M317.3,305.7c0.1,0,0.2,0,0.3,0c0.2,0.3,0.4,0.6,0.6,0.9C317.6,306.5,317.3,306.2,317.3,305.7z"/>
		<path class="st175" d="M151.4,300.4c-0.5,0.4-0.9,0.4-1.4,0c0.4-0.3,0.8-0.2,1.2-0.1C151.3,300.3,151.4,300.4,151.4,300.4z"/>
		<path class="st176" d="M258,339.5c0.4,0.5,0.2,0.8,0.2,1.2C257.8,340.3,258,340,258,339.5z"/>
		<path class="st177" d="M151.3,300.4c-0.4,0-0.8,0.1-1.2,0.1c-0.1,0-0.2-0.1-0.3-0.1c0.3-0.4,0.8-0.2,1.2-0.3
			C151,300.2,151.2,300.3,151.3,300.4z"/>
		<path class="st178" d="M158.7,342.9l-0.1,0c0,0-0.1,0-0.1,0c-0.5-0.2-0.7-0.5-0.5-1C158.2,342.3,158.4,342.6,158.7,342.9z"/>
		<path class="st179" d="M379.2,298.9c-0.2,0.4-0.3,0.9-1,0.6C378.5,299.2,378.7,298.9,379.2,298.9z"/>
		<path class="st180" d="M300,297.2c-0.5,0-1.1,0.2-1.6-0.2C298.9,297,299.5,296.7,300,297.2z"/>
		<path class="st181" d="M302.4,420.6c0.1-0.1,0.2-0.2,0.3-0.3c0.2,0,0.5,0.1,0.4,0.4C303,421,302.7,420.8,302.4,420.6z"/>
		<path class="st182" d="M291.4,297c-0.4,0.4-1,0.2-1.5,0.3C290.4,296.8,290.9,296.9,291.4,297z"/>
		<path class="st183" d="M377.3,356.2c0.2-0.2,0.5-0.4,0.7-0.6C378.6,356.7,377.7,356.2,377.3,356.2z"/>
		<path class="st184" d="M306.6,416.2c-0.1,0-0.2,0-0.3,0c0.2-0.3,0.5-0.7,0.9-0.8C307.2,415.8,306.9,416,306.6,416.2z"/>
		<path class="st185" d="M194.8,290.8c0,0.1,0,0.2,0,0.3c-0.3-0.2-0.6-0.4-0.6-0.9C194.7,290.2,194.9,290.3,194.8,290.8z"/>
		<path class="st186" d="M311.4,411c0.1-0.2,0.3-0.4,0.4-0.6c0.1-0.1,0.2-0.1,0.3,0c0,0.3,0,0.6,0,1
			C311.6,411.5,311.8,410.8,311.4,411z"/>
		<path class="st187" d="M312.1,410.4l-0.1,0c0,0-0.1,0-0.1,0c0.1-0.4,0.5-0.7,0.8-0.9C312.7,410,312.5,410.2,312.1,410.4z"/>
		<path class="st188" d="M176.8,266.1c0-0.3-0.4-0.5-0.1-0.8c0,0,0.2,0,0.2,0C177.1,265.7,177,265.9,176.8,266.1
			C176.7,266.1,176.8,266.1,176.8,266.1z"/>
		<path class="st189" d="M151.4,245.4c-0.2,0.4-0.3,0.8-0.5,1.1C151,246.2,150.4,245.5,151.4,245.4z"/>
		<path class="st172" d="M363.7,386.2c0.1,0.1,0.2,0.2,0.3,0.3c0,0.2-0.1,0.3-0.3,0.2c-0.1,0-0.2-0.2-0.3-0.3
			C363.5,386.4,363.6,386.3,363.7,386.2z"/>
		<path class="st190" d="M150,327.8c0.2,0.4,0.3,0.8,0.5,1.2C149.6,329,150.1,328.3,150,327.8z"/>
		<path class="st191" d="M204.6,467.6c11.6-9.1,22.7-18.8,33.5-29.1c0,4.1-5.9,13.3-12.7,19.4C219.5,463.1,212.6,466.5,204.6,467.6z
			"/>
		<path class="st192" d="M149.7,257.6c0-1.7,0-3.5,0-5.2C150.1,254.2,150.2,255.9,149.7,257.6z"/>
		<path class="st28" d="M154.1,280.4c-1.7,0-0.6-0.9-0.5-1.5C154.1,279.3,154.1,279.8,154.1,280.4z"/>
		<path class="st193" d="M179.4,361.8c-0.1,0.1-0.2,0.2-0.3,0.3c-0.2-0.2-0.7-0.4-0.4-0.7C179,361.1,179.2,361.5,179.4,361.8z"/>
		<path class="st194" d="M154.1,242.3c0.1-0.1,0.1-0.1,0.2-0.1c0.3,0,0.6,0,0.9,0C154.9,243,154.5,242.6,154.1,242.3z"/>
		<path class="st195" d="M316.9,349.4c4.1,13,3.2,26-1.5,38.7c-5.6,15-15.4,26.6-29.9,33.9C306.1,402.1,316.8,378,316.9,349.4z"/>
		<path class="st191" d="M287.8,301.5c8.2-6.7,25.1-2,28.3,10.6C307.3,306.3,298,302.8,287.8,301.5z"/>
		<path class="st196" d="M286.6,316.6c0-2.4,1.9-4.3,4.3-4.3c2.4,0,4.4,1.9,4.4,4.3c0,2.4-2.1,4.5-4.4,4.4
			C288.5,321,286.6,319,286.6,316.6z"/>
		<path class="st197" d="M361.5,354.8c-0.1-0.1-0.2-0.2-0.3-0.3c0.4-0.5,0.8-1.1,1.9-1.5C362.5,353.9,362.1,354.5,361.5,354.8z"/>
		<path class="st198" d="M382.1,325.1c0.1,0.2,0.3,0.3,0.5,0.3c-0.5,0.4-1,0.7-1.7,1.3C381.2,325.8,381.7,325.5,382.1,325.1z"/>
		<path class="st199" d="M323.4,331.9c-1,0.5-1.8,0-2.6-0.3C321.7,331.7,322.5,331.3,323.4,331.9z"/>
	</g>
</g>
</svg>
