<?xml version="1.0" encoding="UTF-8"?>
<svg id="Laag_2" data-name="Laag 2" xmlns="http://www.w3.org/2000/svg" viewBox="0 0 107.86 44.77">
  <defs>
    <style>
      .cls-1 {
        opacity: .6;
      }

      .cls-2 {
        fill: #e1f7f9;
      }

      .cls-2, .cls-3, .cls-4 {
        fill-rule: evenodd;
        stroke-width: 0px;
      }

      .cls-3 {
        fill: #fafeff;
      }

      .cls-4 {
        fill: #9edef4;
      }
    </style>
  </defs>
  <g id="OBJECTS">
    <g class="cls-1">
      <path class="cls-2" d="M89.31,16.53c.1.13.26.26.29.4.22,1.17.93,1.46,2.07,1.47,3.53.01,6.87.82,9.96,2.59,3.09,1.77,4.88,4.49,5.88,7.83.05,1.4-.54,2.51-1.51,3.48-4.28,4.27-9.47,5.59-15.26,4.41-3.57-.73-7.19-1.33-10.57-2.81-.92-.4-1.77-.27-2.56.37-5.94,4.81-12.71,5.14-19.8,3.57-1.98-.44-3.71-1.35-5.2-2.8-2.22-2.16-2.93-2.15-5.42-.25-3.1,2.38-6.72,3.37-10.5,3.78-2.78.3-5.59.18-8.38.03-2.28-.12-4.18-1.12-5.82-2.61-1.14-1.04-2.25-1.09-3.6-.48-2.56,1.15-5.28,1.84-8.05,2.31-2.55.44-4.86-.09-6.82-1.9-1.59-1.46-1.66-2.44-.15-3.99,1.12-.98,2.49-1.6,3.9-1.85,1.38-.25,2.06-.9,2.28-2.2.92-.28,1.54-.97,2.15-1.64,3.46-3.83,7.54-6.95,11.59-10.12,3.36-2.62,7.23-3.82,11.36-4.4.23-.03-.04-.06.17-.01,3.82.9,7-.83,10.25-2.42,2.35-1.15,4.94-1.32,7.51-1.46,7.97-.41,15.54,1.34,22.87,4.3,2.39.97,4.85,1.71,7.43,1.96,2.23.22,4.14,1.18,5.94,2.43Z"/>
      <path class="cls-4" d="M3.87,31.93c-.17.29-.39.57-.5.89-.25.72-.37,1.5.22,2.09,1.9,1.92,4.18,2.99,6.91,2.47,3.08-.58,6.12-1.31,8.97-2.69,1.09-.53,2.04-.38,2.93.54,2.01,2.06,4.49,3.01,7.37,2.95,1.94-.04,3.89.11,5.83-.03,3.9-.29,7.65-1.16,10.93-3.47.79-.56,1.43-1.28,2.35-1.7.77-.35,1.44-.34,2.1.12.65.45,1.41.8,1.9,1.44,1.3,1.71,3.19,2.42,5.14,2.84,2.33.5,4.69.92,7.1.8,4.61-.22,8.89-1.31,12.38-4.54.85-.79,1.74-.79,2.68-.34,3.59,1.71,7.52,2.25,11.34,3.05,4.21.88,8.24-.09,11.87-2.47,1.91-1.25,3.32-2.92,4.12-5.07.4.55.36,1.2.34,1.81-.18,4.52-2.02,8-6.28,9.98-2.83,1.31-5.86,1.84-8.9,2.37-7.28,1.26-14.65,1.39-22.01,1.48-5.14.06-10.27.03-15.41.12-11.07.19-22.15.25-33.22.13-5.25-.06-10.5.02-15.75.02-4.04,0-6.87-3.38-6.18-7.41.41-2.38,1.59-4.24,3.77-5.39Z"/>
      <path class="cls-3" d="M89.31,16.53c-.1.22-.14.72-.49.4-1.97-1.8-4.41-2.13-6.92-2.48-2.93-.42-5.68-1.63-8.45-2.67-4.11-1.54-8.31-2.66-12.71-3.14-2.39-.26-4.77-.26-7.16-.27-3.46-.02-6.77.6-9.84,2.34-1.89,1.07-3.91,2.15-6.14,1.72-2.35-.45-4.49.2-6.68.7-2.66.6-4.98,1.94-7.09,3.61-1.69,1.34-3.33,2.76-5.15,3.94-.97.63-1.7,1.52-2.51,2.32-1.51,1.48-2.99,2.98-4.48,4.47-.32.32-.63.66-1.08.82-.41.15-.48-.13-.58-.4.28-2.75,1.14-5.36,2.28-7.84,1.37-3,3.66-5.21,6.7-6.58,4.15-1.88,8.48-2.98,13.05-3.06,1.27-.02,2.53.08,3.7.55.96.38,1.6.12,2.28-.56,1.22-1.2,2.5-2.34,3.76-3.49,3.45-3.16,7.45-5.23,12.1-5.93,2.03-.31,4.06-.65,6.1-.84,8.89-.83,16.44,2.27,23.08,7.99,2.54,2.19,4.73,4.62,6.02,7.76.08.21.13.43.2.65Z"/>
    </g>
  </g>
</svg>