<?xml version="1.0" encoding="UTF-8"?>
<svg id="Laag_2" data-name="Laag 2" xmlns="http://www.w3.org/2000/svg" xmlns:xlink="http://www.w3.org/1999/xlink" viewBox="0 0 750.24 140.8">
  <defs>
    <style>
      .cls-1 {
        fill: url(#linear-gradient);
      }

      .cls-1, .cls-2, .cls-3 {
        fill-rule: evenodd;
        stroke-width: 0px;
      }

      .cls-2 {
        fill: url(#linear-gradient-2);
      }

      .cls-4 {
        opacity: .3;
      }

      .cls-3 {
        fill: #fff;
      }
    </style>
    <linearGradient id="linear-gradient" x1="147.84" y1="2.49" x2="147.84" y2="140.8" gradientUnits="userSpaceOnUse">
      <stop offset="0" stop-color="#87ddec"/>
      <stop offset="1" stop-color="#3dddec" stop-opacity="0"/>
    </linearGradient>
    <linearGradient id="linear-gradient-2" x1="621.36" y1="0" x2="621.36" xlink:href="#linear-gradient"/>
  </defs>
  <g id="OBJECTS">
    <g>
      <g>
        <path class="cls-3" d="M0,8.32c5.32-2.21,10.74-4.12,16.48-4.94,14.82-2.11,29.17-.54,42.9,5.64,9.19,4.14,17.51,9.58,24.75,16.64,4.18,4.07,8.38,8.13,12.29,12.46.9.99,1.63,1.11,2.89.69,12.64-4.22,25.56-5.22,38.8-3.76,19.32,2.13,34.59,11.56,47.44,25.54,3.09,3.36,5.65,7.14,7.91,11.12,1.23,2.17,1.23,2.15,3.7,1.71,11.19-2.01,22.29-1.69,33.24,1.47,12.25,3.55,23.1,9.73,32.66,18.11,14.96,13.12,25.96,28.99,32.62,47.8H0V8.32Z"/>
        <path class="cls-3" d="M492.48,140.8c.02-.24-.01-.5.08-.71,4.09-9,8.95-17.51,16.01-24.57,7.58-7.6,16.74-11.54,27.48-11.77,2.8-.06,5.61-.08,8.38.31,1.24.18,1.84-.14,2.38-1.29,5.32-11.17,12.69-20.87,21.58-29.43,7.52-7.23,15.94-13.03,26-16.23,8.69-2.77,17.58-3.1,26.57-2.5,4.23.28,8.45.67,12.6,1.57,1.03.22,1.63-.14,2.27-.85,2.78-3.1,5.73-6.02,8.93-8.69,4.56-3.83,9.52-7.02,15.03-9.29,1.26-.52,2.09-1.25,2.73-2.46,2.33-4.43,5.42-8.29,9.32-11.45,6.89-5.59,14.77-7.39,23.4-5.8,1.65.3,2.68-.1,3.88-1.04,9.87-7.71,20.91-12.9,33.24-15.22,5.9-1.11,11.86-1.66,17.88-1.2v140.64h-257.76Z"/>
      </g>
      <g class="cls-4">
        <path class="cls-1" d="M0,8.32c5.32-2.21,10.74-4.12,16.48-4.94,14.82-2.11,29.17-.54,42.9,5.64,9.19,4.14,17.51,9.58,24.75,16.64,4.18,4.07,8.38,8.13,12.29,12.46.9.99,1.63,1.11,2.89.69,12.64-4.22,25.56-5.22,38.8-3.76,19.32,2.13,34.59,11.56,47.44,25.54,3.09,3.36,5.65,7.14,7.91,11.12,1.23,2.17,1.23,2.15,3.7,1.71,11.19-2.01,22.29-1.69,33.24,1.47,12.25,3.55,23.1,9.73,32.66,18.11,14.96,13.12,25.96,28.99,32.62,47.8H0V8.32Z"/>
        <path class="cls-2" d="M492.48,140.8c.02-.24-.01-.5.08-.71,4.09-9,8.95-17.51,16.01-24.57,7.58-7.6,16.74-11.54,27.48-11.77,2.8-.06,5.61-.08,8.38.31,1.24.18,1.84-.14,2.38-1.29,5.32-11.17,12.69-20.87,21.58-29.43,7.52-7.23,15.94-13.03,26-16.23,8.69-2.77,17.58-3.1,26.57-2.5,4.23.28,8.45.67,12.6,1.57,1.03.22,1.63-.14,2.27-.85,2.78-3.1,5.73-6.02,8.93-8.69,4.56-3.83,9.52-7.02,15.03-9.29,1.26-.52,2.09-1.25,2.73-2.46,2.33-4.43,5.42-8.29,9.32-11.45,6.89-5.59,14.77-7.39,23.4-5.8,1.65.3,2.68-.1,3.88-1.04,9.87-7.71,20.91-12.9,33.24-15.22,5.9-1.11,11.86-1.66,17.88-1.2v140.64h-257.76Z"/>
      </g>
    </g>
  </g>
</svg>