<?xml version="1.0" encoding="UTF-8"?>
<svg id="Laag_2" data-name="Laag 2" xmlns="http://www.w3.org/2000/svg" xmlns:xlink="http://www.w3.org/1999/xlink" viewBox="0 0 399.36 107.72">
  <defs>
    <style>
      .cls-1 {
        fill: url(#linear-gradient);
      }

      .cls-1, .cls-2 {
        fill-rule: evenodd;
        stroke-width: 0px;
      }

      .cls-3 {
        opacity: .3;
      }

      .cls-2 {
        fill: #fff;
      }
    </style>
    <linearGradient id="linear-gradient" x1="199.68" y1="0" x2="199.68" y2="107.72" gradientUnits="userSpaceOnUse">
      <stop offset="0" stop-color="#87ddec"/>
      <stop offset="1" stop-color="#3dddec" stop-opacity="0"/>
    </linearGradient>
  </defs>
  <g id="OBJECTS">
    <g>
      <path class="cls-2" d="M0,107.72c.06-3.25,1-6.32,2.18-9.29,5.16-12.92,14.13-22.52,26.13-29.33,9.54-5.41,19.86-8.33,30.81-9.02,3.57-.23,3.57-.21,4.81-3.72,3.04-8.63,7.62-16.38,13.59-23.28,11.37-13.13,25.04-23.18,41.5-28.83C142.32-3.76,164.41-.14,185.24,12.53c1.77,1.08,3.52,2.24,5.11,3.57,1.26,1.05,2.39,1.15,3.92.69,9.72-2.91,19.64-4.44,29.81-4.11,19.57.63,35.26,8.75,46.94,24.47,1.09,1.47,2.03,1.94,3.92,1.71,12.17-1.47,24.32-1.4,36.11,2.4,16.41,5.29,28.54,16.01,37.46,30.56.12.21.27.4.36.62.52,1.3,1.29,1.68,2.79,1.36,3.84-.81,7.74-1.14,11.68-1.15,13.81,0,23.83,6.21,30.29,18.32,2.5,4.69,4.12,9.7,5.25,14.88.14.62.32,1.23.49,1.85H0Z"/>
      <g class="cls-3">
        <path class="cls-1" d="M0,107.72c.06-3.25,1-6.32,2.18-9.29,5.16-12.92,14.13-22.52,26.13-29.33,9.54-5.41,19.86-8.33,30.81-9.02,3.57-.23,3.57-.21,4.81-3.72,3.04-8.63,7.62-16.38,13.59-23.28,11.37-13.13,25.04-23.18,41.5-28.83C142.32-3.76,164.41-.14,185.24,12.53c1.77,1.08,3.52,2.24,5.11,3.57,1.26,1.05,2.39,1.15,3.92.69,9.72-2.91,19.64-4.44,29.81-4.11,19.57.63,35.26,8.75,46.94,24.47,1.09,1.47,2.03,1.94,3.92,1.71,12.17-1.47,24.32-1.4,36.11,2.4,16.41,5.29,28.54,16.01,37.46,30.56.12.21.27.4.36.62.52,1.3,1.29,1.68,2.79,1.36,3.84-.81,7.74-1.14,11.68-1.15,13.81,0,23.83,6.21,30.29,18.32,2.5,4.69,4.12,9.7,5.25,14.88.14.62.32,1.23.49,1.85H0Z"/>
      </g>
    </g>
  </g>
</svg>