<?xml version="1.0" encoding="UTF-8"?>
<svg id="Laag_2" data-name="Laag 2" xmlns="http://www.w3.org/2000/svg" xmlns:xlink="http://www.w3.org/1999/xlink" viewBox="0 0 750.24 500">
  <defs>
    <style>
      .cls-1 {
        fill: url(#linear-gradient);
      }

      .cls-1, .cls-2, .cls-3, .cls-4, .cls-5, .cls-6, .cls-7, .cls-8, .cls-9, .cls-10, .cls-11, .cls-12, .cls-13, .cls-14, .cls-15, .cls-16, .cls-17, .cls-18, .cls-19, .cls-20, .cls-21, .cls-22, .cls-23, .cls-24, .cls-25, .cls-26, .cls-27, .cls-28, .cls-29, .cls-30, .cls-31 {
        stroke-width: 0px;
      }

      .cls-2, .cls-3, .cls-4, .cls-5, .cls-6, .cls-7, .cls-8, .cls-9, .cls-10, .cls-11, .cls-12, .cls-13, .cls-14, .cls-15, .cls-16, .cls-17, .cls-18, .cls-19, .cls-20, .cls-21, .cls-22, .cls-23, .cls-24, .cls-25, .cls-26, .cls-27, .cls-28, .cls-29, .cls-30, .cls-31 {
        fill-rule: evenodd;
      }

      .cls-2, .cls-3, .cls-4, .cls-32 {
        opacity: .7;
      }

      .cls-2, .cls-17 {
        fill: #fafeff;
      }

      .cls-3, .cls-18 {
        fill: #e9fbff;
      }

      .cls-4, .cls-26 {
        fill: #9bd9f5;
      }

      .cls-5 {
        fill: url(#linear-gradient-3);
      }

      .cls-6 {
        fill: url(#linear-gradient-2);
      }

      .cls-7 {
        fill: url(#linear-gradient-4);
      }

      .cls-8 {
        fill: url(#linear-gradient-5);
      }

      .cls-9 {
        fill: url(#linear-gradient-6);
      }

      .cls-33 {
        opacity: .3;
      }

      .cls-34 {
        opacity: .4;
      }

      .cls-35 {
        opacity: .6;
      }

      .cls-10 {
        fill: #d4dcdc;
      }

      .cls-11 {
        fill: #cff4ff;
      }

      .cls-12 {
        fill: #e1f7f9;
      }

      .cls-13 {
        fill: #dfdfdf;
      }

      .cls-14 {
        fill: #e5e5e5;
      }

      .cls-15 {
        fill: #e5e7e7;
      }

      .cls-16 {
        fill: #e6eaea;
      }

      .cls-19 {
        fill: #e7ebeb;
      }

      .cls-20 {
        fill: #fff;
      }

      .cls-21 {
        fill: #e8ecec;
      }

      .cls-22 {
        fill: #b8efff;
      }

      .cls-23 {
        fill: #9cddf3;
      }

      .cls-24 {
        fill: #9cdbf1;
      }

      .cls-25 {
        fill: #9edef4;
      }

      .cls-27 {
        fill: #f0f0f0;
      }

      .cls-28 {
        fill: #f0efef;
      }

      .cls-29 {
        fill: #f9feff;
      }

      .cls-30 {
        fill: #f2f1f1;
      }

      .cls-31 {
        fill: #f6fcfe;
      }
    </style>
    <linearGradient id="linear-gradient" x1="375.12" y1="0" x2="375.12" y2="500" gradientUnits="userSpaceOnUse">
      <stop offset="0" stop-color="#3d72ec"/>
      <stop offset=".11" stop-color="#3d79ec" stop-opacity=".93"/>
      <stop offset=".31" stop-color="#3d8dec" stop-opacity=".75"/>
      <stop offset=".6" stop-color="#3dacec" stop-opacity=".45"/>
      <stop offset=".96" stop-color="#3dd8ec" stop-opacity=".05"/>
      <stop offset="1" stop-color="#3dddec" stop-opacity="0"/>
    </linearGradient>
    <linearGradient id="linear-gradient-2" x1="570" y1="296.48" x2="570" y2="500" gradientUnits="userSpaceOnUse">
      <stop offset="0" stop-color="#87ddec"/>
      <stop offset="1" stop-color="#3dddec" stop-opacity="0"/>
    </linearGradient>
    <linearGradient id="linear-gradient-3" x1="169.2" y1="353.25" x2="169.2" xlink:href="#linear-gradient-2"/>
    <linearGradient id="linear-gradient-4" x1="147.84" y1="358.72" x2="147.84" y2="497.03" xlink:href="#linear-gradient-2"/>
    <linearGradient id="linear-gradient-5" x1="621.36" y1="356.22" x2="621.36" y2="497.03" xlink:href="#linear-gradient-2"/>
    <linearGradient id="linear-gradient-6" x1="393.02" y1="392.14" x2="393.02" y2="499.86" xlink:href="#linear-gradient-2"/>
  </defs>
  <g id="BACKGROUND">
    <rect class="cls-1" x=".12" width="750" height="500"/>
  </g>
  <g id="OBJECTS">
    <g>
      <path class="cls-27" d="M688.01,201.39c.07.99-.85,1.98-1.91,2.04-1.12.07-2.24-.9-2.27-1.97-.03-1,.9-1.85,2.04-1.88,1.09-.02,2.07.81,2.14,1.8Z"/>
      <path class="cls-19" d="M42,26.08c0,.92-.76,1.67-1.65,1.64-.92-.04-1.74-.97-1.67-1.94.06-.94.65-1.41,1.52-1.5.91-.09,1.8.85,1.8,1.8Z"/>
      <path class="cls-30" d="M719.35,293.4c-.44.02-1.17-.19-1.23-1.22-.06-.99.92-1.83,2.06-1.83.88,0,1.56.33,1.69,1.29.13.94-.8,1.7-2.51,1.77Z"/>
      <path class="cls-15" d="M528.5,21.74c.93.05,1.71.88,1.69,1.72-.02.86-.89,1.58-1.77,1.47-.87-.11-1.62-.99-1.48-1.81.16-.88.73-1.35,1.56-1.38Z"/>
      <path class="cls-16" d="M105.77,188.4c.8.14,1.43.52,1.51,1.48.07.9-.63,1.7-1.54,1.77-.93.08-1.77-.67-1.73-1.54.03-.8.92-1.7,1.76-1.72Z"/>
      <path class="cls-21" d="M274.58,180.14c-.76-.06-1.22-.51-1.2-1.36.02-.87.38-1.55,1.35-1.63.85-.07,1.33.42,1.45,1.22.12.86-.68,1.75-1.6,1.76Z"/>
      <path class="cls-28" d="M422.76,273.49c-.09.64-.55,1.16-1.37,1.12-.84-.04-1.26-.6-1.22-1.44.05-.88.46-1.53,1.4-1.6.69-.06,1.29.87,1.19,1.92Z"/>
      <path class="cls-14" d="M310.58,54.32c-.75-.11-1.23-.57-1.12-1.28.11-.75.26-1.65,1.31-1.7.8-.04,1.15.48,1.09,1.22-.07.82-.32,1.56-1.27,1.76Z"/>
      <path class="cls-10" d="M47.74,159.3c-.08.73-.44,1.21-1.21,1.21-.64,0-1.06-.37-1.11-1.02-.07-.75.31-1.27,1.05-1.34.76-.08,1.13.45,1.27,1.16Z"/>
      <path class="cls-13" d="M614.27,61.67c-.1.7-.43,1.24-1.21,1.18-.63-.05-1.03-.53-1.04-1.13-.01-.74.42-1.19,1.21-1.15.67.03.96.48,1.03,1.1Z"/>
    </g>
    <g>
      <g>
        <path class="cls-20" d="M389.76,500c0-7.7.64-15.32,2.22-22.87,2.27-10.85,7.49-20,15.55-27.52,10.43-9.74,22.55-16.43,36.48-19.74,1.29-.31,2-.7,2.12-2.25.35-4.31,1.25-8.53,2.63-12.64,3.2-9.53,8.75-17.39,16.82-23.37,10.2-7.56,21.73-12.15,34.15-14.43,11.56-2.12,23.08-1.56,34.48,1.32,2.1.53,4.14,1.23,6.12,2.08,1.9.82,1.56,1,3.17-.73,4.64-4.99,9.66-9.56,15.16-13.59,9.23-6.75,19.34-11.51,30.7-13.38,6.73-1.11,13.51-1.47,20.31-.78,1.35.14,2.16-.2,2.91-1.42,10.8-17.71,26.79-27.87,46.86-32.06,5.58-1.16,11.18-1.9,16.9-1.63,3.78.18,7.46.85,11.05,2.01,2.04.66,2.05.66,3.52-1.1,5.89-7.09,13.12-12.35,21.66-15.81,7.1-2.87,14.51-4.39,22.1-5.15,4.62-.46,9.26-.5,13.9-.38.55.01,1.11-.06,1.66-.09v203.52h-360.48Z"/>
        <path class="cls-20" d="M0,392.48c3.94-2.28,7.91-4.52,12.35-5.72,11.09-3,22.12-3.11,32.97,1.03,1.3.5,1.84.03,2.6-.79,5.27-5.75,11.39-10.35,18.8-12.9,12.01-4.14,23.88-3.78,35.4,1.9,1.19.59,1.85.68,2.78-.47,2.73-3.38,6.09-6.12,9.64-8.6,7.58-5.29,15.55-9.81,24.62-12.07,21.71-5.43,44.25,3.16,56.77,21.67.77,1.14,1.49,1.5,2.9,1.33,6.52-.78,12.94.06,19.25,1.67,16.2,4.14,30.44,11.95,42.68,23.32,5.28,4.91,9.11,10.9,11.85,17.57.41.99.83,1.75,2.02,2.1,12.46,3.68,23.07,10.53,32.53,19.25,16.68,15.37,26.94,34.3,31.1,56.57.1.54.1,1.11.14,1.67H0v-107.52Z"/>
      </g>
      <g class="cls-34">
        <path class="cls-6" d="M389.76,500c0-7.7.64-15.32,2.22-22.87,2.27-10.85,7.49-20,15.55-27.52,10.43-9.74,22.55-16.43,36.48-19.74,1.29-.31,2-.7,2.12-2.25.35-4.31,1.25-8.53,2.63-12.64,3.2-9.53,8.75-17.39,16.82-23.37,10.2-7.56,21.73-12.15,34.15-14.43,11.56-2.12,23.08-1.56,34.48,1.32,2.1.53,4.14,1.23,6.12,2.08,1.9.82,1.56,1,3.17-.73,4.64-4.99,9.66-9.56,15.16-13.59,9.23-6.75,19.34-11.51,30.7-13.38,6.73-1.11,13.51-1.47,20.31-.78,1.35.14,2.16-.2,2.91-1.42,10.8-17.71,26.79-27.87,46.86-32.06,5.58-1.16,11.18-1.9,16.9-1.63,3.78.18,7.46.85,11.05,2.01,2.04.66,2.05.66,3.52-1.1,5.89-7.09,13.12-12.35,21.66-15.81,7.1-2.87,14.51-4.39,22.1-5.15,4.62-.46,9.26-.5,13.9-.38.55.01,1.11-.06,1.66-.09v203.52h-360.48Z"/>
        <path class="cls-5" d="M0,392.48c3.94-2.28,7.91-4.52,12.35-5.72,11.09-3,22.12-3.11,32.97,1.03,1.3.5,1.84.03,2.6-.79,5.27-5.75,11.39-10.35,18.8-12.9,12.01-4.14,23.88-3.78,35.4,1.9,1.19.59,1.85.68,2.78-.47,2.73-3.38,6.09-6.12,9.64-8.6,7.58-5.29,15.55-9.81,24.62-12.07,21.71-5.43,44.25,3.16,56.77,21.67.77,1.14,1.49,1.5,2.9,1.33,6.52-.78,12.94.06,19.25,1.67,16.2,4.14,30.44,11.95,42.68,23.32,5.28,4.91,9.11,10.9,11.85,17.57.41.99.83,1.75,2.02,2.1,12.46,3.68,23.07,10.53,32.53,19.25,16.68,15.37,26.94,34.3,31.1,56.57.1.54.1,1.11.14,1.67H0v-107.52Z"/>
      </g>
    </g>
    <g>
      <g>
        <path class="cls-20" d="M0,364.54c5.32-2.21,10.74-4.12,16.48-4.94,14.82-2.11,29.17-.54,42.9,5.64,9.19,4.14,17.51,9.58,24.75,16.64,4.18,4.07,8.38,8.13,12.29,12.46.9.99,1.63,1.11,2.89.69,12.64-4.22,25.56-5.22,38.8-3.76,19.32,2.13,34.59,11.56,47.44,25.54,3.09,3.36,5.65,7.14,7.91,11.12,1.23,2.17,1.23,2.15,3.7,1.71,11.19-2.01,22.29-1.69,33.24,1.47,12.25,3.55,23.1,9.73,32.66,18.11,14.96,13.12,25.96,28.99,32.62,47.8H0v-132.48Z"/>
        <path class="cls-20" d="M492.48,497.03c.02-.24-.01-.5.08-.71,4.09-9,8.95-17.51,16.01-24.57,7.58-7.6,16.74-11.54,27.48-11.77,2.8-.06,5.61-.08,8.38.31,1.24.18,1.84-.14,2.38-1.29,5.32-11.17,12.69-20.87,21.58-29.43,7.52-7.23,15.94-13.03,26-16.23,8.69-2.77,17.58-3.1,26.57-2.5,4.23.28,8.45.67,12.6,1.57,1.03.22,1.63-.14,2.27-.85,2.78-3.1,5.73-6.02,8.93-8.69,4.56-3.83,9.52-7.02,15.03-9.29,1.26-.52,2.09-1.25,2.73-2.46,2.33-4.43,5.42-8.29,9.32-11.45,6.89-5.59,14.77-7.39,23.4-5.8,1.65.3,2.68-.1,3.88-1.04,9.87-7.71,20.91-12.9,33.24-15.22,5.9-1.11,11.86-1.66,17.88-1.2v140.64h-257.76Z"/>
      </g>
      <g class="cls-33">
        <path class="cls-7" d="M0,364.54c5.32-2.21,10.74-4.12,16.48-4.94,14.82-2.11,29.17-.54,42.9,5.64,9.19,4.14,17.51,9.58,24.75,16.64,4.18,4.07,8.38,8.13,12.29,12.46.9.99,1.63,1.11,2.89.69,12.64-4.22,25.56-5.22,38.8-3.76,19.32,2.13,34.59,11.56,47.44,25.54,3.09,3.36,5.65,7.14,7.91,11.12,1.23,2.17,1.23,2.15,3.7,1.71,11.19-2.01,22.29-1.69,33.24,1.47,12.25,3.55,23.1,9.73,32.66,18.11,14.96,13.12,25.96,28.99,32.62,47.8H0v-132.48Z"/>
        <path class="cls-8" d="M492.48,497.03c.02-.24-.01-.5.08-.71,4.09-9,8.95-17.51,16.01-24.57,7.58-7.6,16.74-11.54,27.48-11.77,2.8-.06,5.61-.08,8.38.31,1.24.18,1.84-.14,2.38-1.29,5.32-11.17,12.69-20.87,21.58-29.43,7.52-7.23,15.94-13.03,26-16.23,8.69-2.77,17.58-3.1,26.57-2.5,4.23.28,8.45.67,12.6,1.57,1.03.22,1.63-.14,2.27-.85,2.78-3.1,5.73-6.02,8.93-8.69,4.56-3.83,9.52-7.02,15.03-9.29,1.26-.52,2.09-1.25,2.73-2.46,2.33-4.43,5.42-8.29,9.32-11.45,6.89-5.59,14.77-7.39,23.4-5.8,1.65.3,2.68-.1,3.88-1.04,9.87-7.71,20.91-12.9,33.24-15.22,5.9-1.11,11.86-1.66,17.88-1.2v140.64h-257.76Z"/>
      </g>
    </g>
    <g>
      <path class="cls-20" d="M193.34,499.86c.06-3.25,1-6.32,2.18-9.29,5.16-12.92,14.13-22.52,26.13-29.33,9.54-5.41,19.86-8.33,30.81-9.02,3.57-.23,3.57-.21,4.81-3.72,3.04-8.63,7.62-16.38,13.59-23.28,11.37-13.13,25.04-23.18,41.5-28.83,23.3-8.01,45.39-4.39,66.21,8.29,1.77,1.08,3.52,2.24,5.11,3.57,1.26,1.05,2.39,1.15,3.92.69,9.72-2.91,19.64-4.44,29.81-4.11,19.57.63,35.26,8.75,46.94,24.47,1.09,1.47,2.03,1.94,3.92,1.71,12.17-1.47,24.32-1.4,36.11,2.4,16.41,5.29,28.54,16.01,37.46,30.56.12.21.27.4.36.62.52,1.3,1.29,1.68,2.79,1.36,3.84-.81,7.74-1.14,11.68-1.15,13.81,0,23.83,6.21,30.29,18.32,2.5,4.69,4.12,9.7,5.25,14.88.14.62.32,1.23.49,1.85H193.34Z"/>
      <g class="cls-33">
        <path class="cls-9" d="M193.34,499.86c.06-3.25,1-6.32,2.18-9.29,5.16-12.92,14.13-22.52,26.13-29.33,9.54-5.41,19.86-8.33,30.81-9.02,3.57-.23,3.57-.21,4.81-3.72,3.04-8.63,7.62-16.38,13.59-23.28,11.37-13.13,25.04-23.18,41.5-28.83,23.3-8.01,45.39-4.39,66.21,8.29,1.77,1.08,3.52,2.24,5.11,3.57,1.26,1.05,2.39,1.15,3.92.69,9.72-2.91,19.64-4.44,29.81-4.11,19.57.63,35.26,8.75,46.94,24.47,1.09,1.47,2.03,1.94,3.92,1.71,12.17-1.47,24.32-1.4,36.11,2.4,16.41,5.29,28.54,16.01,37.46,30.56.12.21.27.4.36.62.52,1.3,1.29,1.68,2.79,1.36,3.84-.81,7.74-1.14,11.68-1.15,13.81,0,23.83,6.21,30.29,18.32,2.5,4.69,4.12,9.7,5.25,14.88.14.62.32,1.23.49,1.85H193.34Z"/>
      </g>
    </g>
    <g class="cls-32">
      <path class="cls-18" d="M222.7,86.14c.53-.15.76.3,1.04.57,2.28,2.23,4.68,4.36,6.25,7.21.57.97-.21,1.46-.76,1.95-6.08,5.31-13.1,7.85-21.24,7.31-6.57-.44-12.63-2.24-17.96-6.19-1.23-.91-2.45-1-3.8-.35-2.77,1.35-5.66,2.38-8.59,3.3-8.89,2.77-17.23,1.81-24.78-3.83-1.77-1.32-3.18-1.38-5.01-.19-3.9,2.53-8.06,4.54-12.43,6.2-6.3,2.39-12.66,3.16-19.33,2.12-5.1-.8-10.2-1.43-14.61-4.43-.59-.4-1.33-.56-2.05-.49-3.7.35-7.35.8-10.68,2.76-6.01,3.54-12.6,5.35-19.5,5.97-2.22.2-4.44-.2-6.3-1.6-.77-.58-1.71-1.15-1.41-2.4,1.54-1.85,3.44-3.21,5.56-4.31.35.08.69.09,1.04-.07,6.31-2.9,12.71-5.48,19.7-6.25.78-.09,1.55-.26,2.28-.58.26-.11.53-.22.73-.63-.47-.59-1.52-.2-1.93-.94.49-.32,1.08-.41,1.61-.35,1.83.23,3.03-.43,3.52-2.25,4.92-6.14,11.88-9.21,18.82-12.2,5.3-2.28,10.79-4.12,16.3-5.87,4.18-1.33,8.56-1.33,12.87-1.85,10.83-1.3,20.65,2.35,30.53,5.85.87.84,1.72-.22,2.58-.03,6.29,1.28,12.77.97,19.04,2.41,1.81.42,3.63.79,5.37,1.41,4.57,1.62,9.13,3.23,13.9,4.2,3.28.67,6.34,1.93,9.25,3.56Z"/>
      <path class="cls-22" d="M61.53,104.04c1.98,3.17,5.03,3.53,8.37,3.27,3.14-.24,6.16-.97,9.16-1.86,3.36-.99,6.58-2.25,9.6-4.08,2.33-1.42,4.96-1.93,7.64-2.46,3.13-.61,5.63.18,8.22,1.78,2.24,1.38,4.84,1.95,7.51,2.21,2.68.26,5.32.87,7.99,1.16,1.9.2,3.81-.04,5.73-.24,2.73-.28,5.3-.92,7.87-1.77,5.1-1.7,9.87-4.05,14.37-6.96.42-.27.87-.48,1.3-.75.81-.5,1.54-.54,2.33.13.86.73,1.84,1.33,2.77,2,4.14,2.98,8.86,4.01,13.86,4.27,5.53.28,10.46-1.81,15.45-3.68,1.46-.55,2.85-1.62,4.33-1.73,1.53-.12,2.7,1.39,3.98,2.25,3.5,2.34,7.39,3.59,11.47,4.45,2.17.46,4.37.42,6.55.74,1.85.27,3.81-.26,5.66-.75,3.87-1.02,7.72-2.16,10.88-4.76,1.22-1.01,2.77-1.72,3.41-3.34.89.98,1.22,2.23,1.68,3.42.28.73.39,1.52.91,2.15,5.4,2.49,7.21,8.76,4.05,13.87-2.25,3.65-5.38,5.79-9.74,6.09-4.62.32-9.25.94-13.86.42-6.96-.79-13.55-2.83-19.28-7.07-1.48-1.09-2.66-1.18-4.17.03-11.12,8.88-27.68,6.54-37.5.27-.24-.15-.53-.28-.69-.5-2.01-2.68-4.07-2.02-6.61-.55-9.57,5.56-19.99,6.93-30.83,5.57-4.91-.61-9.31-2.65-13.38-5.41-2.54-1.72-2.6-1.76-5.09,0-6.57,4.62-13.74,7.17-21.88,6.75-6.22-.32-11.1-2.9-14.48-8.18-.7-1.1-1.3-2.25-.52-3.58.8-1.22,1.77-2.28,2.95-3.14Z"/>
      <path class="cls-24" d="M58.58,107.18c-.13,2.13,1.17,3.63,2.37,5.1,3.43,4.2,7.99,5.89,13.34,6.05,7.5.23,14.14-2.09,20.25-6.26,1.16-.79,2.26-2.22,3.59-2.07,1.2.13,2.27,1.37,3.41,2.1,4.07,2.6,8.4,4.42,13.27,4.98,3.85.44,7.64.38,11.48.02,3.71-.35,7.3-1.05,10.83-2.2,3.21-1.04,6.12-2.71,9.07-4.3.5-.27.99-.56,1.48-.86.62-.38,1.16-.4,1.71.18,3.96,4.16,9.05,6.17,14.5,7.21,6.56,1.26,13.17,1.64,19.47-1.37,2.5-1.2,4.98-2.5,7.04-4.4.82-.75,1.49-.74,2.23-.13.72.59,1.58.99,2.28,1.57,3.87,3.2,8.63,4.39,13.27,5.61,3.16.83,6.48,1.74,9.87.8.66-.18,1.42-.09,2.13-.04,2.72.18,5.4-.2,8.09-.47,3.51-.35,7.49-4.05,8.65-7.42,1.61-4.7.02-8.14-3.68-10.98-.27-.21-.46-.54-.68-.81,5.34-.17,9.45,2.26,12.9,6.09.84.93,1.29,2.09,1.56,3.25.91,3.9.74,7.81-.49,11.63-.82,2.55-2.8,4.05-5.07,5.25-2.14,1.13-4.48,1.38-6.83,1.56-13.4,1-26.82,1.25-40.24,1.3-13.64.05-27.28.02-40.92.37-7.86.2-15.71-.14-23.56-.32-8.57-.19-17.13.26-25.69.66-10.63.5-21.27.76-31.91.84-1.78.01-3.57-.14-5.35-.27-3.45-.26-6.51-1.59-9.24-3.63-3.53-2.63-4.88-6.85-3.59-11.07.91-2.96,2.37-5.64,4.44-7.96Z"/>
      <path class="cls-17" d="M172.56,74.6c-.4.5-.85.34-1.35.16-1.68-.58-3.39-1.09-5.06-1.69-3.95-1.44-8.01-2.45-12.08-3.46-.71-.18-1.41-.16-2.12-.17-1.14-.03-2.27.08-3.38-.32-.39-.14-.88-.18-1.27-.07-2.92.84-5.94.17-8.91.71-2.07.38-4.21.38-6.31.79-3.23.64-6.27,1.86-9.36,2.89-3.37,1.12-6.72,2.34-9.97,3.77-4.69,2.05-9.34,4.19-13.5,7.25-1.22.9-2.16,2.07-3.26,3.08-.57.52-1.01,1.24-1.94,1.15-.04-1.15.75-1.96,1.21-2.9,2.18-4.52,4.91-8.66,8.34-12.36,3.65-3.93,8.03-6.59,13.12-8.11,10.76-3.23,21.73-4.07,32.8-2.23,6.99,1.16,13.78,3.12,19.52,7.62,1.41,1.1,2.8,2.21,3.53,3.92Z"/>
      <path class="cls-29" d="M222.7,86.14c-.24.38-.56.36-.91.17-4.09-2.27-8.63-3.17-13.12-4.19-2.72-.62-5.25-1.74-7.86-2.66-3.36-1.19-6.83-1.96-10.3-2.59-2.2-.4-4.51-.52-6.77-.54-2.51-.02-4.91-.66-7.35-1-.48-.07-.94-.32-1.25-.76h0c.37-.37.95-.04,1.32-.4,12.56-3.52,24.63-2.71,36.03,4.07,3.01,1.79,5.76,3.92,8.51,6.08.68.53.94,1.4,1.7,1.82Z"/>
      <path class="cls-31" d="M88.91,91.26c.99.04,1.98.07,2.97.12.11,0,.2.17.38.33-.47,1.49-1.79,1.84-3.09,2.1-1.73.35-3.46.72-5.21.84-1.96.14-3.74.85-5.5,1.54-3.29,1.29-6.76,2.15-9.91,3.8-.55.29-1.08.4-1.46-.27,6.17-3.69,12.5-7.02,19.71-8.24.7-.12,1.41-.16,2.11-.23Z"/>
      <path class="cls-11" d="M176.46,74.17c-.34.46-.82.48-1.32.4.37-.37.82-.46,1.32-.4Z"/>
    </g>
    <g class="cls-35">
      <path class="cls-18" d="M355.09,179.38c-4.62.06-8.66,1.7-12.21,4.58-1.22.99-2.43,2.04-3.1,3.53-.47,1.73.47,3.08,1.52,4.11,3.18,3.14,6.97,4.91,11.59,4.26,1.33-.19,2.56-.63,3.58-1.54,1.01-.91,2.04-1,3.12-.11,2.27,1.87,4.87,2.53,7.81,2.48,4.39-.07,8.75-.08,12.95-1.69,1.7-.65,3.22-1.58,4.73-2.54,1.39-.88,2.57-.88,3.88.2,2.9,2.38,6.17,4.05,9.91,4.68,2.9.49,5.78.39,8.63-.38,1.78-.48,3.11-1.56,3.97-3.17.58-1.09,1.36-1.28,2.5-1.01,1.66.4,3.24.96,4.72,1.8,1.56.88,3.24,1.28,5.03,1.11,3.93-.36,7.74-1.09,10.96-3.62,1.87-1.46,2.59-3.58,1.89-5.71-.93-1.31-2.16-2.28-3.56-3.03-3.3-1.77-6.7-3.24-10.47-3.64-.52-.06-.88-.25-1.15-.66-4.69-2.91-8.96-6.5-14.25-8.43-6.94-2.54-13.97-3.62-21.04-.98-3.68,1.37-7.34,1.8-11.2,2.12-6.41.54-12.55,2.34-17.73,6.51-.61.49-1.29.91-2.07,1.12Z"/>
      <path class="cls-26" d="M436.56,186.37c.14.97-.11,1.9-.37,2.8-.32,1.07-.96,1.91-1.89,2.64-2.38,1.84-5.14,2.59-8.01,3.09-.83.14-1.64.31-2.49.36-1.86.11-3.57-.25-5.14-1.23-1.59-1-3.4-1.38-5.16-1.89-1.15-.33-1.67-.11-2.17.97-.97,2.1-2.62,3.23-4.84,3.64-5.77,1.07-11.09.1-15.84-3.48-.71-.54-1.46-1.04-2.18-1.56-.89-.65-1.71-.8-2.75-.13-2.84,1.84-5.8,3.45-9.19,4.03-1.55.27-3.11.47-4.68.55-1.79.1-3.59-.03-5.38.04-2.64.11-4.82-.89-6.78-2.53-1.07-.9-2.21-1-3.09-.11-2.04,2.08-4.57,2.16-7.19,1.84-2.83-.34-5.18-1.77-7.28-3.55-1.29-1.09-2.07-2.64-2.35-4.37-3.09,4.53-.48,10.54,2.98,12.66,2.58,1.58,5.41,2.31,8.36,2.73,2.05.29,4.11.26,6.16.44,10.87.94,21.74.81,32.62.25,3.17-.16,6.34-.15,9.51-.01,8.19.36,16.38.08,24.57.17,2.06.02,4.12.11,6.17-.2,1.62-.25,3.23-.56,4.79-1.05,3.65-1.16,5.97-5.09,5.29-8.86-.5-2.78-1.69-5.2-3.67-7.22Z"/>
      <path class="cls-17" d="M355.09,179.38c.17.24.42.35.68.23.52-.24,1.11-.43,1.53-.8,3.61-3.13,7.94-4.65,12.48-5.76,3.09-.75,6.2-1.15,9.37-.96,1.47.09,2.79-.28,4.1-.93,2.52-1.25,5.24-1.86,8-2.26.93-.14,1.86-.31,2.81-.33,2.7-.06,5.34.34,7.95.98,4.59,1.13,8.89,2.95,12.8,5.61,1.17.8,2.26,1.71,3.42,2.53.94.66,1.89,1.35,3.13,1.35-1.56-4.86-3.86-9.28-8.08-12.37-3.58-2.62-7.67-4.05-12.12-4-4.45.04-8.83.71-13.05,2.21-2.38.84-4.52,2.04-6.32,3.81-.57.56-1.06.67-1.81.46-3.99-1.12-7.91-.87-11.79.63-2.27.88-4.45,1.91-6.63,2.98-2.7,1.32-4.83,3.18-6.11,5.95-.11.24-.26.46-.39.68Z"/>
    </g>
    <g class="cls-32">
      <path class="cls-18" d="M537.82,137.08c2.22-1.03,4.58-1.62,6.95-2.09,1.33-.26,2.11-.84,2.44-2.11,3.06-1.91,5.18-4.84,7.79-7.23,5.5-5.04,11.97-8.54,18.32-12.26,1.05-.62,2.27-.6,3.42-.85.26-.06-.05.08.14-.08.1-.08-.25,0-.25-.2,1.94-.5,3.91-.33,5.87-.28,1.11.03,2.23.25,3.34,0,.2.92-.53.59-.97.71,1.28.1,1.9-1.09,2.97-1.43,6.21-1.97,12.34-4.22,18.83-5.22,5.6-.87,11.19-.46,16.73.3,8.16,1.11,16.27,2.55,24.38,3.98,1.61.28,3.3.14,4.79,1.03.97.58,1.44,1.75,2.58,2.09.52.56,1.13.69,1.91.67,1.8-.06,3.63-.35,5.41.22-1.49,1.25-3.3.36-5.1.85,2.74,1.12,5.37,2.17,8.02,3.17,4.79,1.81,9.63,3.5,14.08,6.08,2.89,1.68,5.77,3.39,8.33,5.57.21.18.46.23.73.2.49.37.71.94.92,1.47.92,2.36,1.91,4.7,2.47,7.18,0,1.38-1.17,1.42-2.03,1.71-3,.99-6.14.94-9.22.79-7.46-.36-14.63-1.94-21.23-5.6-2.38-1.32-4.51-2.98-6.75-4.49-2.59-1.75-5.04-2.33-8.11-.83-3.84,1.87-7.92,3.33-12,4.55-6.5,1.95-13.07,1.05-19.41-1.19-2.42-.86-4.89-.97-7.38-1.12-.83-.05-1.54.27-2.18.79-5.39,4.42-11.78,6.26-18.55,6.42-6.13.14-11.89-1.55-16.55-5.87-1.24-1.15-2.27-1.28-3.64-.32-2.98,2.08-6.29,3.6-9.45,5.39-4.4,2.49-9.13,3.3-14.14,2.23-1.44-.31-2.79-.8-3.97-1.69-.71-.54-1.33-1.15-.72-2.16h-.01c.34-.3.9,0,1.21-.41Z"/>
      <path class="cls-23" d="M702.92,148.06c1.08,1.65,1.46,3.54,1.52,5.44.11,3.27-1.6,5.65-4.25,7.33-2.65,1.68-5.7,2.39-8.71,3.07-5.67,1.29-11.45,1.98-17.24,2.11-12.25.28-24.51.05-36.77-.11-4.02-.05-8.04-.11-12.06-.14-13.31-.1-26.63-.1-39.94-.32-9.09-.16-18.17-.63-27.26-.97-2.5-.09-5-.19-7.51-.27-5.23-.16-10.3-1.37-15.39-2.42-1.95-.4-3.72-1.31-5.5-2.18-4.18-2.04-5.83-5.62-5.73-10.01.11-4.64,2.58-7.87,6.7-9.89.58.8.01,1.51-.19,2.24-.65,2.26-.21,3.79,1.66,5.22,2.66,2.04,5.64,3.41,9.02,3.61,5.59.33,11.18.46,16.68-.91,2.9-.73,5.6-1.9,8.11-3.55,2.93-1.93,4.23-1.92,6.17.86,3.38,4.84,8.41,5.75,13.64,6.28,2.88.29,5.78.48,8.67.07,4.31-.6,7.87-2.88,11.47-5.07,1.24-.75,2.48-1.49,3.73-2.23,1.56-.92,2.81-.74,4.32.36,4.11,3.02,8.58,5.35,13.72,6.18,7.63,1.24,14.29-1.07,20.39-5.47,1.34-.96,2.58-2.05,3.86-3.08,2.06-1.66,3.37-1.5,5.46.06,6.88,5.14,14.32,8.67,23.19,8.76,4.48.04,8.93.25,13.36-.61,2.97-.57,5.76-1.44,7.84-3.81.26-.3.61-.5,1.03-.54Z"/>
      <path class="cls-22" d="M536.63,137.5c.03.61.11,1.18.71,1.53,1.14.65,2.23,1.32,3.56,1.63,5.56,1.29,10.61.2,15.43-2.73,3.14-1.91,6.54-3.4,9.56-5.54.69-.49,1.31-.41,1.94.19.99.96,1.92,2.06,3.09,2.75,3.41,2.04,7.06,3.4,11.07,3.82,4.8.49,9.41-.29,13.87-1.91,2.78-1.01,5.43-2.36,7.61-4.45.61-.59,1.33-.8,2.15-.73,1.76.13,3.53.24,5.29.38.32.03.66.09.95.23,2.94,1.43,6.11,2.14,9.3,2.44,2.36.22,4.76.42,7.21.14,3.01-.35,5.74-1.18,8.42-2.5,1.4-.69,2.99-.99,4.47-1.54,1.72-.64,3.46-1.28,5.12-2.07,1.05-.5,1.97-.45,3.04-.15,2.27.65,4.15,2.04,5.96,3.41,4.38,3.31,9.24,5.51,14.51,6.85,2.72.69,5.51,1.07,8.32,1.37,2.71.29,5.38.12,8.07.1,1.59-.01,3.1-.5,4.59-1,.43-.15.85-.36,1.08-.81.26.17.52.33.77.5.98.55.24,1.26.19,1.91-.08.96.03,1.74,1.24.91.84-.57,1.6-.39,2.4.06,1.66.91,3,2.16,4.07,3.69,1.23,1.77,1.02,2.92-.79,4.17-2.29,1.58-4.97,2.23-7.66,2.41-5.18.35-10.39.64-15.58.19-2.3-.2-4.54-.91-6.67-1.79-4.45-1.83-8.91-3.62-12.55-6.96-1.82-1.67-3.27-1.7-5.09-.06-3.47,3.15-7.63,5.14-11.64,7.39-2.97,1.67-6.18,1.51-9.39,1.52-6.65.01-12.26-2.72-17.37-6.65-1.24-.95-2.26-.95-3.6-.32-3.12,1.46-5.86,3.56-8.9,5.15-2.83,1.48-5.68,2.48-9.02,2.34-4.21-.17-8.38.02-12.54-1.12-3-.81-5.17-2.38-7.08-4.68-2.83-3.41-3.35-3.49-7.05-1.19-4.72,2.93-9.88,4.21-15.37,4.45-3.23.14-6.46.13-9.68-.21-2.9-.31-5.45-1.57-7.81-3.16-1.89-1.28-1.7-2.54.42-3.4,1.4-.57,2.7-1.33,4.3-2.08-1.58-.08-2.78.36-3.99.79-.72.26-1.61.72-2.11-.23-.53-1,.04-1.82.89-2.33,1.11-.68,2.46-1.01,3.13-2.29.31-.37.74-.42,1.18-.41Z"/>
      <path class="cls-17" d="M655.18,113.46c-.06.23-.05.64-.42.41-.44-.27-.8-.68-1.18-1.04-1.14-1.08-2.46-1.56-4.07-1.69-2.47-.2-4.92-.71-7.37-1.11-6.46-1.07-12.89-2.3-19.38-3.18-4.61-.62-9.29-.89-13.94-.48-3.79.33-7.49,1.26-11.11,2.44-3.87,1.26-7.86,2.15-11.56,3.9-.56.26-1.15.17-1.98.19.58-.6,1.48-.15,1.68-.9,3.16-3.74,7.05-6.55,11.48-8.49,13.66-6,27.57-6.89,41.66-1.55,5.09,1.93,9.68,4.74,13.63,8.53.94.91,1.9,1.82,2.55,2.98Z"/>
      <path class="cls-22" d="M535.45,137.91c.23,1.09-.19,1.74-1.26,2.08-.8.26-1.69.38-2.24,1.14-.3.41-.43.87-.16,1.29.29.45.73.16,1.06,0,1.26-.59,2.59-.9,3.94-1.16.48-.09.9-.13,1.33.09.34.18.81.27.74.77-.05.37-.43.49-.76.5-.99,0-1.77.45-2.49,1.06-.84.71-2,.61-2.91,1.18-1.01.63-1.06.75-.26,1.58.27.28.54.61.88.79,2.23,1.13,4.39,2.58,6.92,2.77,1.89.14,3.78.53,5.69.36,2.35-.2,4.75-.38,7.07-.41,3.5-.05,6.47-1.48,9.61-2.48,1.04-.33,1.99-1.02,2.89-1.67.77-.55,1.65-.79,2.47-1.19,1.42-.69,2.56-.31,3.56.75,1.09,1.14,2.29,2.21,3.17,3.5.91,1.32,2.14,1.87,3.54,2.31,3.92,1.21,7.88,1.98,12.03,1.62,1.49-.13,3-.08,4.52.07,1.55.15,3.05-.74,4.46-1.4,2.02-.95,4-2,5.84-3.31,1.78-1.26,3.75-2.19,5.72-3.1,1.25-.58,2.27-.32,3.26.54,4.02,3.46,8.71,5.63,13.9,6.48,1.72.28,3.6.62,5.4,0,.24-.08.56-.13.78-.04,2.69,1.1,4.73-.64,6.89-1.64,1-.46,1.9-1.15,2.96-1.53,2.6-.92,4.59-2.77,6.68-4.46.87-.7,1.73-1.42,2.74-1.91,1.02-.5,2.02-.48,2.99.11.51.31,1.04.6,1.47.99,4.76,4.33,10.62,6.37,16.63,8.18,2.06.62,4.13.41,6.18.52,3.92.22,7.86-.08,11.78-.31,1.87-.11,3.74-.71,5.52-1.42.43-.17.84-.4,1.23-.64,1.99-1.21,2.24-2.39.68-4.07-1.1-1.18-2.22-2.37-3.71-3.17-.84-.45-1.38-.62-2,.19-.27.36-.64.65-.97.97-1.34-1.66-1.39-1.94-.46-3.53.2-.35.08-.62-.05-.92,4.18,1.45,7.81,3.62,9.89,7.76.14.29.21.61.32.92-1.43,2.19-3.41,3.55-5.94,4.27-4.42,1.26-8.94,1.76-13.46,1.42-3.13-.23-6.29.15-9.4-.72-3.63-1.02-7.11-2.38-10.46-4.07-2.64-1.34-5.24-2.73-7.34-4.91-.89-.93-2.38-.71-3.59.28-.91.75-1.79,1.55-2.69,2.31-3.11,2.61-6.75,4.32-10.42,5.94-1.65.72-3.47.73-5.21.94-3.76.44-7.55.17-11.06-1.25-3.57-1.45-7.23-2.9-10.12-5.6-.91-.85-1.62-.78-2.62-.25-3.27,1.71-6.25,3.9-9.55,5.58-4.21,2.14-8.59,2.72-13.2,2.12-1.56-.2-3.14.15-4.71-.33-1.63-.49-3.34-.73-4.97-1.21-1.87-.55-3.46-1.6-4.73-3.1-.72-.85-1.43-1.71-2.12-2.59-1.28-1.62-2.33-1.86-4.05-.68-1.64,1.12-3.34,2.08-5.16,2.87-3.3,1.43-6.73,2.2-10.31,2.32-2.31.08-4.62.05-6.92.2-3.93.26-7.55-.79-11-2.5-1.16-.58-2.25-1.42-3.13-2.36-1.25-1.36-1.33-3.08-.81-4.82.22-.75.77-1.39.84-2.2,1.43-.92,3.03-1.4,4.66-1.8Z"/>
      <path class="cls-29" d="M688.56,130.23c-.33.6-.69.38-1.11.07-3.19-2.32-6.49-4.44-9.92-6.38-1.22-.69-2.53-1.08-3.79-1.65-4.79-2.16-9.79-3.79-14.66-5.77-1.09-.44-2.14-.9-3.61-1.67,2.65-.56,4.86-.17,7.02-.48,3.79.21,7.33,1.4,10.75,2.92,4.79,2.13,8.92,5.23,12.63,8.91,1.17,1.16,2.06,2.52,2.68,4.05Z"/>
      <path class="cls-29" d="M576.65,112.27c.39.05.78.1,1.16.14-4.9.98-8.74,4.03-12.8,6.61-1.17.74-2.4,1.36-3.57,2.09-2.12,1.33-3.9,3.1-5.8,4.71-2.16,1.84-4.01,3.98-6.05,5.93-.6.57-1.14,1.71-2.37,1.13,1.54-5.39,4.38-9.96,8.82-13.41,4.89-3.79,10.58-5.72,16.62-6.69.94-.44,2.02.07,2.95-.43.33-.14.68-.2,1.03-.09Z"/>
      <path class="cls-11" d="M575.61,112.36c-.9.71-1.95.41-2.95.43.94-.47,1.94-.47,2.95-.43Z"/>
      <path class="cls-22" d="M537.82,137.08c-.28.49-.74.47-1.21.42.31-.4.75-.42,1.21-.42Z"/>
      <path class="cls-22" d="M690.75,142.29c0,.55-.25.92-.78,1-.6.1-.82-.38-.95-.81-.19-.64.37-.8.79-.91.57-.15.83.24.94.72Z"/>
    </g>
    <g>
      <path class="cls-3" d="M552.99,278.97c4.62.06,8.66,1.7,12.21,4.58,1.22.99,2.43,2.04,3.1,3.53.47,1.73-.47,3.08-1.52,4.11-3.18,3.14-6.97,4.91-11.59,4.26-1.33-.19-2.56-.63-3.58-1.54-1.01-.91-2.04-1-3.12-.11-2.27,1.87-4.87,2.53-7.81,2.48-4.39-.07-8.75-.09-12.95-1.69-1.7-.65-3.22-1.58-4.73-2.54-1.39-.88-2.57-.88-3.88.2-2.9,2.38-6.17,4.05-9.91,4.68-2.9.49-5.78.39-8.63-.38-1.78-.48-3.11-1.56-3.97-3.17-.58-1.09-1.36-1.28-2.5-1.01-1.66.4-3.24.96-4.72,1.8-1.56.88-3.24,1.28-5.03,1.11-3.93-.36-7.74-1.09-10.96-3.62-1.87-1.46-2.59-3.58-1.89-5.71.93-1.31,2.16-2.28,3.56-3.03,3.3-1.77,6.7-3.24,10.47-3.64.52-.06.88-.25,1.15-.66,4.69-2.91,8.96-6.5,14.25-8.43,6.94-2.54,13.97-3.62,21.04-.98,3.68,1.37,7.34,1.8,11.2,2.12,6.41.54,12.55,2.34,17.73,6.51.61.49,1.29.91,2.07,1.12Z"/>
      <path class="cls-4" d="M471.51,285.96c-.14.97.11,1.9.37,2.8.32,1.07.96,1.92,1.89,2.64,2.38,1.84,5.14,2.59,8.01,3.09.83.14,1.64.31,2.49.36,1.86.11,3.57-.25,5.14-1.23,1.59-1,3.4-1.38,5.16-1.89,1.15-.33,1.67-.11,2.17.97.97,2.1,2.62,3.23,4.84,3.64,5.77,1.07,11.09.1,15.84-3.48.71-.54,1.46-1.04,2.18-1.56.89-.65,1.71-.8,2.75-.13,2.84,1.84,5.8,3.45,9.19,4.03,1.55.27,3.11.47,4.68.55,1.79.1,3.59-.03,5.38.04,2.64.11,4.82-.89,6.78-2.53,1.07-.9,2.21-1,3.09-.11,2.04,2.08,4.57,2.16,7.19,1.84,2.83-.34,5.18-1.77,7.28-3.55,1.29-1.09,2.07-2.64,2.35-4.37,3.09,4.53.48,10.54-2.98,12.66-2.58,1.58-5.41,2.31-8.36,2.73-2.05.29-4.11.26-6.16.44-10.87.94-21.74.81-32.62.25-3.17-.16-6.34-.15-9.51-.01-8.19.36-16.38.08-24.57.17-2.06.02-4.12.11-6.17-.21-1.62-.25-3.23-.56-4.79-1.05-3.65-1.16-5.97-5.09-5.29-8.86.5-2.78,1.69-5.2,3.67-7.22Z"/>
      <path class="cls-2" d="M552.99,278.97c-.17.24-.42.35-.68.23-.52-.24-1.11-.43-1.53-.8-3.61-3.13-7.94-4.65-12.48-5.76-3.09-.75-6.2-1.15-9.37-.96-1.47.09-2.79-.28-4.1-.93-2.52-1.25-5.24-1.86-8-2.26-.93-.14-1.86-.31-2.81-.33-2.7-.06-5.34.34-7.95.98-4.59,1.13-8.89,2.95-12.8,5.61-1.17.79-2.26,1.71-3.42,2.53-.94.66-1.89,1.35-3.13,1.35,1.56-4.86,3.86-9.28,8.08-12.37,3.58-2.62,7.67-4.05,12.12-4,4.45.04,8.83.71,13.05,2.21,2.38.84,4.52,2.04,6.32,3.81.57.56,1.06.67,1.81.46,3.99-1.12,7.91-.87,11.79.63,2.27.88,4.45,1.92,6.63,2.98,2.7,1.32,4.83,3.18,6.11,5.95.11.24.26.46.39.68Z"/>
    </g>
    <g class="cls-35">
      <path class="cls-12" d="M237.15,254.68c.1.13.26.26.29.4.22,1.17.93,1.46,2.07,1.47,3.53.01,6.87.82,9.96,2.59,3.09,1.77,4.88,4.49,5.88,7.83.05,1.4-.54,2.51-1.51,3.48-4.28,4.27-9.47,5.59-15.26,4.41-3.57-.73-7.19-1.33-10.57-2.81-.92-.4-1.77-.27-2.56.37-5.94,4.81-12.71,5.14-19.8,3.57-1.98-.44-3.71-1.35-5.2-2.8-2.22-2.16-2.93-2.15-5.42-.25-3.1,2.38-6.72,3.37-10.5,3.78-2.78.3-5.59.18-8.38.03-2.28-.12-4.18-1.12-5.82-2.61-1.14-1.04-2.25-1.09-3.6-.48-2.56,1.15-5.28,1.84-8.05,2.31-2.55.44-4.86-.09-6.82-1.9-1.59-1.46-1.66-2.44-.15-3.99,1.12-.98,2.49-1.6,3.9-1.85,1.38-.25,2.06-.9,2.28-2.2.92-.28,1.54-.97,2.15-1.64,3.46-3.83,7.54-6.95,11.59-10.12,3.36-2.62,7.23-3.82,11.36-4.4.23-.03-.04-.06.17-.01,3.82.9,7-.83,10.25-2.42,2.35-1.15,4.94-1.32,7.51-1.46,7.97-.41,15.54,1.34,22.87,4.3,2.39.97,4.85,1.71,7.43,1.96,2.23.22,4.14,1.18,5.94,2.43Z"/>
      <path class="cls-25" d="M151.71,270.08c-.17.29-.39.57-.5.89-.25.72-.37,1.5.22,2.09,1.9,1.92,4.18,2.99,6.91,2.47,3.08-.58,6.12-1.31,8.97-2.69,1.09-.53,2.04-.38,2.93.54,2.01,2.06,4.49,3.01,7.37,2.95,1.94-.04,3.89.11,5.83-.03,3.9-.29,7.65-1.16,10.93-3.47.79-.56,1.43-1.28,2.35-1.7.77-.35,1.44-.34,2.1.12.65.45,1.41.8,1.9,1.44,1.3,1.71,3.19,2.42,5.14,2.84,2.33.5,4.69.92,7.1.8,4.61-.22,8.89-1.31,12.38-4.54.85-.79,1.74-.79,2.68-.34,3.59,1.71,7.52,2.25,11.34,3.05,4.21.88,8.24-.09,11.87-2.47,1.91-1.25,3.32-2.92,4.12-5.07.4.55.36,1.2.34,1.81-.18,4.52-2.02,8-6.28,9.98-2.83,1.31-5.86,1.84-8.9,2.37-7.28,1.26-14.65,1.39-22.01,1.48-5.14.06-10.27.03-15.41.12-11.07.19-22.15.25-33.22.13-5.25-.06-10.5.02-15.75.02-4.04,0-6.87-3.38-6.18-7.41.41-2.38,1.59-4.24,3.77-5.39Z"/>
      <path class="cls-17" d="M237.15,254.68c-.1.22-.14.72-.49.4-1.97-1.8-4.41-2.13-6.92-2.48-2.93-.42-5.68-1.63-8.45-2.67-4.11-1.54-8.31-2.66-12.71-3.14-2.39-.26-4.77-.26-7.16-.27-3.46-.02-6.77.6-9.84,2.34-1.89,1.07-3.91,2.15-6.14,1.72-2.35-.45-4.49.2-6.68.7-2.66.6-4.98,1.94-7.09,3.61-1.69,1.34-3.33,2.76-5.15,3.94-.97.63-1.7,1.52-2.51,2.32-1.51,1.48-2.99,2.98-4.48,4.47-.32.32-.63.66-1.08.82-.41.15-.48-.13-.58-.4.28-2.75,1.14-5.36,2.28-7.84,1.37-3,3.66-5.21,6.7-6.58,4.15-1.88,8.48-2.98,13.05-3.06,1.27-.02,2.53.08,3.7.55.96.38,1.6.12,2.28-.56,1.22-1.2,2.5-2.34,3.76-3.49,3.45-3.16,7.45-5.23,12.1-5.93,2.03-.31,4.06-.65,6.1-.84,8.89-.83,16.44,2.27,23.08,7.99,2.54,2.19,4.73,4.62,6.02,7.76.08.21.13.43.2.65Z"/>
    </g>
  </g>
</svg>