<?xml version="1.0" encoding="UTF-8"?>
<svg id="Laag_2" data-name="Laag 2" xmlns="http://www.w3.org/2000/svg" viewBox="0 0 683.2 271.66">
  <defs>
    <style>
      .cls-1 {
        fill: #d4dcdc;
      }

      .cls-1, .cls-2, .cls-3, .cls-4, .cls-5, .cls-6, .cls-7, .cls-8, .cls-9, .cls-10 {
        fill-rule: evenodd;
        stroke-width: 0px;
      }

      .cls-2 {
        fill: #dfdfdf;
      }

      .cls-3 {
        fill: #e5e5e5;
      }

      .cls-4 {
        fill: #e5e7e7;
      }

      .cls-5 {
        fill: #e6eaea;
      }

      .cls-6 {
        fill: #e7ebeb;
      }

      .cls-7 {
        fill: #e8ecec;
      }

      .cls-8 {
        fill: #f0f0f0;
      }

      .cls-9 {
        fill: #f0efef;
      }

      .cls-10 {
        fill: #f2f1f1;
      }
    </style>
  </defs>
  <g id="OBJECTS">
    <g>
      <path class="cls-8" d="M649.34,179.65c.07.99-.85,1.98-1.91,2.04-1.12.07-2.24-.9-2.27-1.97-.03-1,.9-1.85,2.04-1.88,1.09-.02,2.07.81,2.14,1.8Z"/>
      <path class="cls-6" d="M3.33,4.34c0,.92-.76,1.67-1.65,1.64C.75,5.94-.06,5.01,0,4.04c.06-.94.65-1.41,1.52-1.5.91-.09,1.8.85,1.8,1.8Z"/>
      <path class="cls-10" d="M680.68,271.66c-.44.02-1.17-.19-1.23-1.22-.06-.99.92-1.83,2.06-1.83.88,0,1.56.33,1.69,1.29.13.94-.8,1.7-2.51,1.77Z"/>
      <path class="cls-4" d="M489.83,0c.93.05,1.71.88,1.69,1.72-.02.86-.89,1.58-1.77,1.47-.87-.11-1.62-.99-1.48-1.81.16-.88.73-1.35,1.56-1.38Z"/>
      <path class="cls-5" d="M67.1,166.66c.8.14,1.43.52,1.51,1.48.07.9-.63,1.7-1.54,1.77-.93.08-1.77-.67-1.73-1.54.03-.8.92-1.7,1.76-1.72Z"/>
      <path class="cls-7" d="M235.91,158.4c-.76-.06-1.22-.51-1.2-1.36.02-.87.38-1.55,1.35-1.63.85-.07,1.33.42,1.45,1.22.12.86-.68,1.75-1.6,1.76Z"/>
      <path class="cls-9" d="M384.09,251.74c-.09.64-.55,1.16-1.37,1.12-.84-.04-1.26-.6-1.22-1.44.05-.88.46-1.53,1.4-1.6.69-.06,1.29.87,1.19,1.92Z"/>
      <path class="cls-3" d="M271.91,32.58c-.75-.11-1.23-.57-1.12-1.28.11-.75.26-1.65,1.31-1.7.8-.04,1.15.48,1.09,1.22-.07.82-.32,1.56-1.27,1.76Z"/>
      <path class="cls-1" d="M9.07,137.56c-.08.73-.44,1.21-1.21,1.21-.64,0-1.06-.37-1.11-1.02-.07-.75.31-1.27,1.05-1.34.76-.08,1.13.45,1.27,1.16Z"/>
      <path class="cls-2" d="M575.6,39.93c-.1.7-.43,1.24-1.21,1.18-.63-.05-1.03-.53-1.04-1.13-.01-.74.42-1.19,1.21-1.15.67.03.96.48,1.03,1.1Z"/>
    </g>
  </g>
</svg>