<?xml version="1.0" encoding="UTF-8"?>
<svg id="Laag_2" data-name="Laag 2" xmlns="http://www.w3.org/2000/svg" viewBox="0 0 101.95 41.33">
  <defs>
    <style>
      .cls-1 {
        fill: #fafeff;
      }

      .cls-1, .cls-2, .cls-3 {
        fill-rule: evenodd;
        opacity: .7;
        stroke-width: 0px;
      }

      .cls-2 {
        fill: #e9fbff;
      }

      .cls-3 {
        fill: #9bd9f5;
      }
    </style>
  </defs>
  <g id="OBJECTS">
    <g>
      <path class="cls-2" d="M85.27,16.72c4.62.06,8.66,1.7,12.21,4.58,1.22.99,2.43,2.04,3.1,3.53.47,1.73-.47,3.08-1.52,4.11-3.18,3.14-6.97,4.91-11.59,4.26-1.33-.19-2.56-.63-3.58-1.54-1.01-.91-2.04-1-3.12-.11-2.27,1.87-4.87,2.53-7.81,2.48-4.39-.07-8.75-.09-12.95-1.69-1.7-.65-3.22-1.58-4.73-2.54-1.39-.88-2.57-.88-3.88.2-2.9,2.38-6.17,4.05-9.91,4.68-2.9.49-5.78.39-8.63-.38-1.78-.48-3.11-1.56-3.97-3.17-.58-1.09-1.36-1.28-2.5-1.01-1.66.4-3.24.96-4.72,1.8-1.56.88-3.24,1.28-5.03,1.11-3.93-.36-7.74-1.09-10.96-3.62-1.87-1.46-2.59-3.58-1.89-5.71.93-1.31,2.16-2.28,3.56-3.03,3.3-1.77,6.7-3.24,10.47-3.64.52-.06.88-.25,1.15-.66,4.69-2.91,8.96-6.5,14.25-8.43,6.94-2.54,13.97-3.62,21.04-.98,3.68,1.37,7.34,1.8,11.2,2.12,6.41.54,12.55,2.34,17.73,6.51.61.49,1.29.91,2.07,1.12Z"/>
      <path class="cls-3" d="M3.79,23.71c-.14.97.11,1.9.37,2.8.32,1.07.96,1.92,1.89,2.64,2.38,1.84,5.14,2.59,8.01,3.09.83.14,1.64.31,2.49.36,1.86.11,3.57-.25,5.14-1.23,1.59-1,3.4-1.38,5.16-1.89,1.15-.33,1.67-.11,2.17.97.97,2.1,2.62,3.23,4.84,3.64,5.77,1.07,11.09.1,15.84-3.48.71-.54,1.46-1.04,2.18-1.56.89-.65,1.71-.8,2.75-.13,2.84,1.84,5.8,3.45,9.19,4.03,1.55.27,3.11.47,4.68.55,1.79.1,3.59-.03,5.38.04,2.64.11,4.82-.89,6.78-2.53,1.07-.9,2.21-1,3.09-.11,2.04,2.08,4.57,2.16,7.19,1.84,2.83-.34,5.18-1.77,7.28-3.55,1.29-1.09,2.07-2.64,2.35-4.37,3.09,4.53.48,10.54-2.98,12.66-2.58,1.58-5.41,2.31-8.36,2.73-2.05.29-4.11.26-6.16.44-10.87.94-21.74.81-32.62.25-3.17-.16-6.34-.15-9.51-.01-8.19.36-16.38.08-24.57.17-2.06.02-4.12.11-6.17-.21-1.62-.25-3.23-.56-4.79-1.05C1.76,38.63-.56,34.7.12,30.93c.5-2.78,1.69-5.2,3.67-7.22Z"/>
      <path class="cls-1" d="M85.27,16.72c-.17.24-.42.35-.68.23-.52-.24-1.11-.43-1.53-.8-3.61-3.13-7.94-4.65-12.48-5.76-3.09-.75-6.2-1.15-9.37-.96-1.47.09-2.79-.28-4.1-.93-2.52-1.25-5.24-1.86-8-2.26-.93-.14-1.86-.31-2.81-.33-2.7-.06-5.34.34-7.95.98-4.59,1.13-8.89,2.95-12.8,5.61-1.17.79-2.26,1.71-3.42,2.53-.94.66-1.89,1.35-3.13,1.35,1.56-4.86,3.86-9.28,8.08-12.37C30.63,1.39,34.72-.04,39.16,0c4.45.04,8.83.71,13.05,2.21,2.38.84,4.52,2.04,6.32,3.81.57.56,1.06.67,1.81.46,3.99-1.12,7.91-.87,11.79.63,2.27.88,4.45,1.92,6.63,2.98,2.7,1.32,4.83,3.18,6.11,5.95.11.24.26.46.39.68Z"/>
    </g>
  </g>
</svg>