<?xml version="1.0" encoding="UTF-8"?>
<svg id="Laag_2" data-name="Laag 2" xmlns="http://www.w3.org/2000/svg" viewBox="0 0 180.37 67.72">
  <defs>
    <style>
      .cls-1 {
        opacity: .7;
      }

      .cls-2 {
        fill: #cff4ff;
      }

      .cls-2, .cls-3, .cls-4, .cls-5, .cls-6, .cls-7 {
        fill-rule: evenodd;
        stroke-width: 0px;
      }

      .cls-3 {
        fill: #fafeff;
      }

      .cls-4 {
        fill: #e9fbff;
      }

      .cls-5 {
        fill: #b8efff;
      }

      .cls-6 {
        fill: #9cddf3;
      }

      .cls-7 {
        fill: #f9feff;
      }
    </style>
  </defs>
  <g id="OBJECTS">
    <g class="cls-1">
      <path class="cls-4" d="M13.74,38.66c2.22-1.03,4.58-1.62,6.95-2.09,1.33-.26,2.11-.84,2.44-2.11,3.06-1.91,5.18-4.84,7.79-7.23,5.5-5.04,11.97-8.54,18.32-12.26,1.05-.62,2.27-.6,3.42-.85.26-.06-.05.08.14-.08.1-.08-.25,0-.25-.2,1.94-.5,3.91-.33,5.87-.28,1.11.03,2.23.25,3.34,0,.2.92-.53.59-.97.71,1.28.1,1.9-1.09,2.97-1.43,6.21-1.97,12.34-4.22,18.83-5.22,5.6-.87,11.19-.46,16.73.3,8.16,1.11,16.27,2.55,24.38,3.98,1.61.28,3.3.14,4.79,1.03.97.58,1.44,1.75,2.58,2.09.52.56,1.13.69,1.91.67,1.8-.06,3.63-.35,5.41.22-1.49,1.25-3.3.36-5.1.85,2.74,1.12,5.37,2.17,8.02,3.17,4.79,1.81,9.63,3.5,14.08,6.08,2.89,1.68,5.77,3.39,8.33,5.57.21.18.46.23.73.2.49.37.71.94.92,1.47.92,2.36,1.91,4.7,2.47,7.18,0,1.38-1.17,1.42-2.03,1.71-3,.99-6.14.94-9.22.79-7.46-.36-14.63-1.94-21.23-5.6-2.38-1.32-4.51-2.98-6.75-4.49-2.59-1.75-5.04-2.33-8.11-.83-3.84,1.87-7.92,3.33-12,4.55-6.5,1.95-13.07,1.05-19.41-1.19-2.42-.86-4.89-.97-7.38-1.12-.83-.05-1.54.27-2.18.79-5.39,4.42-11.78,6.26-18.55,6.42-6.13.14-11.89-1.55-16.55-5.87-1.24-1.15-2.27-1.28-3.64-.32-2.98,2.08-6.29,3.6-9.45,5.39-4.4,2.49-9.13,3.3-14.14,2.23-1.44-.31-2.79-.8-3.97-1.69-.71-.54-1.33-1.15-.72-2.16h-.01c.34-.3.9,0,1.21-.41Z"/>
      <path class="cls-6" d="M178.84,49.64c1.08,1.65,1.46,3.54,1.52,5.44.11,3.27-1.6,5.65-4.25,7.33-2.65,1.68-5.7,2.39-8.71,3.07-5.67,1.29-11.45,1.98-17.24,2.11-12.25.28-24.51.05-36.77-.11-4.02-.05-8.04-.11-12.06-.14-13.31-.1-26.63-.1-39.94-.32-9.09-.16-18.17-.63-27.26-.97-2.5-.09-5-.19-7.51-.27-5.23-.16-10.3-1.37-15.39-2.42-1.95-.4-3.72-1.31-5.5-2.18C1.56,59.15-.1,55.57,0,51.18c.11-4.64,2.58-7.87,6.7-9.89.58.8.01,1.51-.19,2.24-.65,2.26-.21,3.79,1.66,5.22,2.66,2.04,5.64,3.41,9.02,3.61,5.59.33,11.18.46,16.68-.91,2.9-.73,5.6-1.9,8.11-3.55,2.93-1.93,4.23-1.92,6.17.86,3.38,4.84,8.41,5.75,13.64,6.28,2.88.29,5.78.48,8.67.07,4.31-.6,7.87-2.88,11.47-5.07,1.24-.75,2.48-1.49,3.73-2.23,1.56-.92,2.81-.74,4.32.36,4.11,3.02,8.58,5.35,13.72,6.18,7.63,1.24,14.29-1.07,20.39-5.47,1.34-.96,2.58-2.05,3.86-3.08,2.06-1.66,3.37-1.5,5.46.06,6.88,5.14,14.32,8.67,23.19,8.76,4.48.04,8.93.25,13.36-.61,2.97-.57,5.76-1.44,7.84-3.81.26-.3.61-.5,1.03-.54Z"/>
      <path class="cls-5" d="M12.55,39.07c.03.61.11,1.18.71,1.53,1.14.65,2.23,1.32,3.56,1.63,5.56,1.29,10.61.2,15.43-2.73,3.14-1.91,6.54-3.4,9.56-5.54.69-.49,1.31-.41,1.94.19.99.96,1.92,2.06,3.09,2.75,3.41,2.04,7.06,3.4,11.07,3.82,4.8.49,9.41-.29,13.87-1.91,2.78-1.01,5.43-2.36,7.61-4.45.61-.59,1.33-.8,2.15-.73,1.76.13,3.53.24,5.29.38.32.03.66.09.95.23,2.94,1.43,6.11,2.14,9.3,2.44,2.36.22,4.76.42,7.21.14,3.01-.35,5.74-1.18,8.42-2.5,1.4-.69,2.99-.99,4.47-1.54,1.72-.64,3.46-1.28,5.12-2.07,1.05-.5,1.97-.45,3.04-.15,2.27.65,4.15,2.04,5.96,3.41,4.38,3.31,9.24,5.51,14.51,6.85,2.72.69,5.51,1.07,8.32,1.37,2.71.29,5.38.12,8.07.1,1.59-.01,3.1-.5,4.59-1,.43-.15.85-.36,1.08-.81.26.17.52.33.77.5.98.55.24,1.26.19,1.91-.08.96.03,1.74,1.24.91.84-.57,1.6-.39,2.4.06,1.66.91,3,2.16,4.07,3.69,1.23,1.77,1.02,2.92-.79,4.17-2.29,1.58-4.97,2.23-7.66,2.41-5.18.35-10.39.64-15.58.19-2.3-.2-4.54-.91-6.67-1.79-4.45-1.83-8.91-3.62-12.55-6.96-1.82-1.67-3.27-1.7-5.09-.06-3.47,3.15-7.63,5.14-11.64,7.39-2.97,1.67-6.18,1.51-9.39,1.52-6.65.01-12.26-2.72-17.37-6.65-1.24-.95-2.26-.95-3.6-.32-3.12,1.46-5.86,3.56-8.9,5.15-2.83,1.48-5.68,2.48-9.02,2.34-4.21-.17-8.38.02-12.54-1.12-3-.81-5.17-2.38-7.08-4.68-2.83-3.41-3.35-3.49-7.05-1.19-4.72,2.93-9.88,4.21-15.37,4.45-3.23.14-6.46.13-9.68-.21-2.9-.31-5.45-1.57-7.81-3.16-1.89-1.28-1.7-2.54.42-3.4,1.4-.57,2.7-1.33,4.3-2.08-1.58-.08-2.78.36-3.99.79-.72.26-1.61.72-2.11-.23-.53-1,.04-1.82.89-2.33,1.11-.68,2.46-1.01,3.13-2.29.31-.37.74-.42,1.18-.41Z"/>
      <path class="cls-3" d="M131.1,15.04c-.06.23-.05.64-.42.41-.44-.27-.8-.68-1.18-1.04-1.14-1.08-2.46-1.56-4.07-1.69-2.47-.2-4.92-.71-7.37-1.11-6.46-1.07-12.89-2.3-19.38-3.18-4.61-.62-9.29-.89-13.94-.48-3.79.33-7.49,1.26-11.11,2.44-3.87,1.26-7.86,2.15-11.56,3.9-.56.26-1.15.17-1.98.19.58-.6,1.48-.15,1.68-.9,3.16-3.74,7.05-6.55,11.48-8.49,13.66-6,27.57-6.89,41.66-1.55,5.09,1.93,9.68,4.74,13.63,8.53.94.91,1.9,1.82,2.55,2.98Z"/>
      <path class="cls-5" d="M11.37,39.48c.23,1.09-.19,1.74-1.26,2.08-.8.26-1.69.38-2.24,1.14-.3.41-.43.87-.16,1.29.29.45.73.16,1.06,0,1.26-.59,2.59-.9,3.94-1.16.48-.09.9-.13,1.33.09.34.18.81.27.74.77-.05.37-.43.49-.76.5-.99,0-1.77.45-2.49,1.06-.84.71-2,.61-2.91,1.18-1.01.63-1.06.75-.26,1.58.27.28.54.61.88.79,2.23,1.13,4.39,2.58,6.92,2.77,1.89.14,3.78.53,5.69.36,2.35-.2,4.75-.38,7.07-.41,3.5-.05,6.47-1.48,9.61-2.48,1.04-.33,1.99-1.02,2.89-1.67.77-.55,1.65-.79,2.47-1.19,1.42-.69,2.56-.31,3.56.75,1.09,1.14,2.29,2.21,3.17,3.5.91,1.32,2.14,1.87,3.54,2.31,3.92,1.21,7.88,1.98,12.03,1.62,1.49-.13,3-.08,4.52.07,1.55.15,3.05-.74,4.46-1.4,2.02-.95,4-2,5.84-3.31,1.78-1.26,3.75-2.19,5.72-3.1,1.25-.58,2.27-.32,3.26.54,4.02,3.46,8.71,5.63,13.9,6.48,1.72.28,3.6.62,5.4,0,.24-.08.56-.13.78-.04,2.69,1.1,4.73-.64,6.89-1.64,1-.46,1.9-1.15,2.96-1.53,2.6-.92,4.59-2.77,6.68-4.46.87-.7,1.73-1.42,2.74-1.91,1.02-.5,2.02-.48,2.99.11.51.31,1.04.6,1.47.99,4.76,4.33,10.62,6.37,16.63,8.18,2.06.62,4.13.41,6.18.52,3.92.22,7.86-.08,11.78-.31,1.87-.11,3.74-.71,5.52-1.42.43-.17.84-.4,1.23-.64,1.99-1.21,2.24-2.39.68-4.07-1.1-1.18-2.22-2.37-3.71-3.17-.84-.45-1.38-.62-2,.19-.27.36-.64.65-.97.97-1.34-1.66-1.39-1.94-.46-3.53.2-.35.08-.62-.05-.92,4.18,1.45,7.81,3.62,9.89,7.76.14.29.21.61.32.92-1.43,2.19-3.41,3.55-5.94,4.27-4.42,1.26-8.94,1.76-13.46,1.42-3.13-.23-6.29.15-9.4-.72-3.63-1.02-7.11-2.38-10.46-4.07-2.64-1.34-5.24-2.73-7.34-4.91-.89-.93-2.38-.71-3.59.28-.91.75-1.79,1.55-2.69,2.31-3.11,2.61-6.75,4.32-10.42,5.94-1.65.72-3.47.73-5.21.94-3.76.44-7.55.17-11.06-1.25-3.57-1.45-7.23-2.9-10.12-5.6-.91-.85-1.62-.78-2.62-.25-3.27,1.71-6.25,3.9-9.55,5.58-4.21,2.14-8.59,2.72-13.2,2.12-1.56-.2-3.14.15-4.71-.33-1.63-.49-3.34-.73-4.97-1.21-1.87-.55-3.46-1.6-4.73-3.1-.72-.85-1.43-1.71-2.12-2.59-1.28-1.62-2.33-1.86-4.05-.68-1.64,1.12-3.34,2.08-5.16,2.87-3.3,1.43-6.73,2.2-10.31,2.32-2.31.08-4.62.05-6.92.2-3.93.26-7.55-.79-11-2.5-1.16-.58-2.25-1.42-3.13-2.36-1.25-1.36-1.33-3.08-.81-4.82.22-.75.77-1.39.84-2.2,1.43-.92,3.03-1.4,4.66-1.8Z"/>
      <path class="cls-7" d="M164.48,31.81c-.33.6-.69.38-1.11.07-3.19-2.32-6.49-4.44-9.92-6.38-1.22-.69-2.53-1.08-3.79-1.65-4.79-2.16-9.79-3.79-14.66-5.77-1.09-.44-2.14-.9-3.61-1.67,2.65-.56,4.86-.17,7.02-.48,3.79.21,7.33,1.4,10.75,2.92,4.79,2.13,8.92,5.23,12.63,8.91,1.17,1.16,2.06,2.52,2.68,4.05Z"/>
      <path class="cls-7" d="M52.56,13.85c.39.05.78.1,1.16.14-4.9.98-8.74,4.03-12.8,6.61-1.17.74-2.4,1.36-3.57,2.09-2.12,1.33-3.9,3.1-5.8,4.71-2.16,1.84-4.01,3.98-6.05,5.93-.6.57-1.14,1.71-2.37,1.13,1.54-5.39,4.38-9.96,8.82-13.41,4.89-3.79,10.58-5.72,16.62-6.69.94-.44,2.02.07,2.95-.43.33-.14.68-.2,1.03-.09Z"/>
      <path class="cls-2" d="M51.53,13.94c-.9.71-1.95.41-2.95.43.94-.47,1.94-.47,2.95-.43Z"/>
      <path class="cls-5" d="M13.74,38.66c-.28.49-.74.47-1.21.42.31-.4.75-.42,1.21-.42Z"/>
      <path class="cls-5" d="M166.67,43.87c0,.55-.25.92-.78,1-.6.1-.82-.38-.95-.81-.19-.64.37-.8.79-.91.57-.15.83.24.94.72Z"/>
    </g>
  </g>
</svg>