<?xml version="1.0" encoding="UTF-8"?>
<svg id="Laag_2" data-name="Laag 2" xmlns="http://www.w3.org/2000/svg" xmlns:xlink="http://www.w3.org/1999/xlink" viewBox="0 0 750.24 203.52">
  <defs>
    <style>
      .cls-1 {
        fill: url(#linear-gradient);
      }

      .cls-1, .cls-2, .cls-3 {
        fill-rule: evenodd;
        stroke-width: 0px;
      }

      .cls-2 {
        fill: url(#linear-gradient-2);
      }

      .cls-4 {
        opacity: .4;
      }

      .cls-3 {
        fill: #fff;
      }
    </style>
    <linearGradient id="linear-gradient" x1="570" y1="0" x2="570" y2="203.52" gradientUnits="userSpaceOnUse">
      <stop offset="0" stop-color="#87ddec"/>
      <stop offset="1" stop-color="#3dddec" stop-opacity="0"/>
    </linearGradient>
    <linearGradient id="linear-gradient-2" x1="169.2" y1="56.77" x2="169.2" xlink:href="#linear-gradient"/>
  </defs>
  <g id="OBJECTS">
    <g>
      <g>
        <path class="cls-3" d="M389.76,203.52c0-7.7.64-15.32,2.22-22.87,2.27-10.85,7.49-20,15.55-27.52,10.43-9.74,22.55-16.43,36.48-19.74,1.29-.31,2-.7,2.12-2.25.35-4.31,1.25-8.53,2.63-12.64,3.2-9.53,8.75-17.39,16.82-23.37,10.2-7.56,21.73-12.15,34.15-14.43,11.56-2.12,23.08-1.56,34.48,1.32,2.1.53,4.14,1.23,6.12,2.08,1.9.82,1.56,1,3.17-.73,4.64-4.99,9.66-9.56,15.16-13.59,9.23-6.75,19.34-11.51,30.7-13.38,6.73-1.11,13.51-1.47,20.31-.78,1.35.14,2.16-.2,2.91-1.42,10.8-17.71,26.79-27.87,46.86-32.06,5.58-1.16,11.18-1.9,16.9-1.63,3.78.18,7.46.85,11.05,2.01,2.04.66,2.05.66,3.52-1.1,5.89-7.09,13.12-12.35,21.66-15.81,7.1-2.87,14.51-4.39,22.1-5.15,4.62-.46,9.26-.5,13.9-.38.55.01,1.11-.06,1.66-.09v203.52h-360.48Z"/>
        <path class="cls-3" d="M0,96c3.94-2.28,7.91-4.52,12.35-5.72,11.09-3,22.12-3.11,32.97,1.03,1.3.5,1.84.03,2.6-.79,5.27-5.75,11.39-10.35,18.8-12.9,12.01-4.14,23.88-3.78,35.4,1.9,1.19.59,1.85.68,2.78-.47,2.73-3.38,6.09-6.12,9.64-8.6,7.58-5.29,15.55-9.81,24.62-12.07,21.71-5.43,44.25,3.16,56.77,21.67.77,1.14,1.49,1.5,2.9,1.33,6.52-.78,12.94.06,19.25,1.67,16.2,4.14,30.44,11.95,42.68,23.32,5.28,4.91,9.11,10.9,11.85,17.57.41.99.83,1.75,2.02,2.1,12.46,3.68,23.07,10.53,32.53,19.25,16.68,15.37,26.94,34.3,31.1,56.57.1.54.1,1.11.14,1.67H0v-107.52Z"/>
      </g>
      <g class="cls-4">
        <path class="cls-1" d="M389.76,203.52c0-7.7.64-15.32,2.22-22.87,2.27-10.85,7.49-20,15.55-27.52,10.43-9.74,22.55-16.43,36.48-19.74,1.29-.31,2-.7,2.12-2.25.35-4.31,1.25-8.53,2.63-12.64,3.2-9.53,8.75-17.39,16.82-23.37,10.2-7.56,21.73-12.15,34.15-14.43,11.56-2.12,23.08-1.56,34.48,1.32,2.1.53,4.14,1.23,6.12,2.08,1.9.82,1.56,1,3.17-.73,4.64-4.99,9.66-9.56,15.16-13.59,9.23-6.75,19.34-11.51,30.7-13.38,6.73-1.11,13.51-1.47,20.31-.78,1.35.14,2.16-.2,2.91-1.42,10.8-17.71,26.79-27.87,46.86-32.06,5.58-1.16,11.18-1.9,16.9-1.63,3.78.18,7.46.85,11.05,2.01,2.04.66,2.05.66,3.52-1.1,5.89-7.09,13.12-12.35,21.66-15.81,7.1-2.87,14.51-4.39,22.1-5.15,4.62-.46,9.26-.5,13.9-.38.55.01,1.11-.06,1.66-.09v203.52h-360.48Z"/>
        <path class="cls-2" d="M0,96c3.94-2.28,7.91-4.52,12.35-5.72,11.09-3,22.12-3.11,32.97,1.03,1.3.5,1.84.03,2.6-.79,5.27-5.75,11.39-10.35,18.8-12.9,12.01-4.14,23.88-3.78,35.4,1.9,1.19.59,1.85.68,2.78-.47,2.73-3.38,6.09-6.12,9.64-8.6,7.58-5.29,15.55-9.81,24.62-12.07,21.71-5.43,44.25,3.16,56.77,21.67.77,1.14,1.49,1.5,2.9,1.33,6.52-.78,12.94.06,19.25,1.67,16.2,4.14,30.44,11.95,42.68,23.32,5.28,4.91,9.11,10.9,11.85,17.57.41.99.83,1.75,2.02,2.1,12.46,3.68,23.07,10.53,32.53,19.25,16.68,15.37,26.94,34.3,31.1,56.57.1.54.1,1.11.14,1.67H0v-107.52Z"/>
      </g>
    </g>
  </g>
</svg>