<?xml version="1.0" encoding="UTF-8"?>
<svg id="Laag_2" data-name="Laag 2" xmlns="http://www.w3.org/2000/svg" viewBox="0 0 193.94 68">
  <defs>
    <style>
      .cls-1 {
        opacity: .7;
      }

      .cls-2 {
        fill: #cff4ff;
      }

      .cls-2, .cls-3, .cls-4, .cls-5, .cls-6, .cls-7, .cls-8 {
        fill-rule: evenodd;
        stroke-width: 0px;
      }

      .cls-3 {
        fill: #fafeff;
      }

      .cls-4 {
        fill: #e9fbff;
      }

      .cls-5 {
        fill: #b8efff;
      }

      .cls-6 {
        fill: #9cdbf1;
      }

      .cls-7 {
        fill: #f9feff;
      }

      .cls-8 {
        fill: #f6fcfe;
      }
    </style>
  </defs>
  <g id="OBJECTS">
    <g class="cls-1">
      <path class="cls-4" d="M169.04,24.04c.53-.15.76.3,1.04.57,2.28,2.23,4.68,4.36,6.25,7.21.57.97-.21,1.46-.76,1.95-6.08,5.31-13.1,7.85-21.24,7.31-6.57-.44-12.63-2.24-17.96-6.19-1.23-.91-2.45-1-3.8-.35-2.77,1.35-5.66,2.38-8.59,3.3-8.89,2.77-17.23,1.81-24.78-3.83-1.77-1.32-3.18-1.38-5.01-.19-3.9,2.53-8.06,4.54-12.43,6.2-6.3,2.39-12.66,3.16-19.33,2.12-5.1-.8-10.2-1.43-14.61-4.43-.59-.4-1.33-.56-2.05-.49-3.7.35-7.35.8-10.68,2.76-6.01,3.54-12.6,5.35-19.5,5.97-2.22.2-4.44-.2-6.3-1.6-.77-.58-1.71-1.15-1.41-2.4,1.54-1.85,3.44-3.21,5.56-4.31.35.08.69.09,1.04-.07,6.31-2.9,12.71-5.48,19.7-6.25.78-.09,1.55-.26,2.28-.58.26-.11.53-.22.73-.63-.47-.59-1.52-.2-1.93-.94.49-.32,1.08-.41,1.61-.35,1.83.23,3.03-.43,3.52-2.25,4.92-6.14,11.88-9.21,18.82-12.2,5.3-2.28,10.79-4.12,16.3-5.87,4.18-1.33,8.56-1.33,12.87-1.85,10.83-1.3,20.65,2.35,30.53,5.85.87.84,1.72-.22,2.58-.03,6.29,1.28,12.77.97,19.04,2.41,1.81.42,3.63.79,5.37,1.41,4.57,1.62,9.13,3.23,13.9,4.2,3.28.67,6.34,1.93,9.25,3.56Z"/>
      <path class="cls-5" d="M7.88,41.93c1.98,3.17,5.03,3.53,8.37,3.27,3.14-.24,6.16-.97,9.16-1.86,3.36-.99,6.58-2.25,9.6-4.08,2.33-1.42,4.96-1.93,7.64-2.46,3.13-.61,5.63.18,8.22,1.78,2.24,1.38,4.84,1.95,7.51,2.21,2.68.26,5.32.87,7.99,1.16,1.9.2,3.81-.04,5.73-.24,2.73-.28,5.3-.92,7.87-1.77,5.1-1.7,9.87-4.05,14.37-6.96.42-.27.87-.48,1.3-.75.81-.5,1.54-.54,2.33.13.86.73,1.84,1.33,2.77,2,4.14,2.98,8.86,4.01,13.86,4.27,5.53.28,10.46-1.81,15.45-3.68,1.46-.55,2.85-1.62,4.33-1.73,1.53-.12,2.7,1.39,3.98,2.25,3.5,2.34,7.39,3.59,11.47,4.45,2.17.46,4.37.42,6.55.74,1.85.27,3.81-.26,5.66-.75,3.87-1.02,7.72-2.16,10.88-4.76,1.22-1.01,2.77-1.72,3.41-3.34.89.98,1.22,2.23,1.68,3.42.28.73.39,1.52.91,2.15,5.4,2.49,7.21,8.76,4.05,13.87-2.25,3.65-5.38,5.79-9.74,6.09-4.62.32-9.25.94-13.86.42-6.96-.79-13.55-2.83-19.28-7.07-1.48-1.09-2.66-1.18-4.17.03-11.12,8.88-27.68,6.54-37.5.27-.24-.15-.53-.28-.69-.5-2.01-2.68-4.07-2.02-6.61-.55-9.57,5.56-19.99,6.93-30.83,5.57-4.91-.61-9.31-2.65-13.38-5.41-2.54-1.72-2.6-1.76-5.09,0-6.57,4.62-13.74,7.17-21.88,6.75-6.22-.32-11.1-2.9-14.48-8.18-.7-1.1-1.3-2.25-.52-3.58.8-1.22,1.77-2.28,2.95-3.14Z"/>
      <path class="cls-6" d="M4.93,45.07c-.13,2.13,1.17,3.63,2.37,5.1,3.43,4.2,7.99,5.89,13.34,6.05,7.5.23,14.14-2.09,20.25-6.26,1.16-.79,2.26-2.22,3.59-2.07,1.2.13,2.27,1.37,3.41,2.1,4.07,2.6,8.4,4.42,13.27,4.98,3.85.44,7.64.38,11.48.02,3.71-.35,7.3-1.05,10.83-2.2,3.21-1.04,6.12-2.71,9.07-4.3.5-.27.99-.56,1.48-.86.62-.38,1.16-.4,1.71.18,3.96,4.16,9.05,6.17,14.5,7.21,6.56,1.26,13.17,1.64,19.47-1.37,2.5-1.2,4.98-2.5,7.04-4.4.82-.75,1.49-.74,2.23-.13.72.59,1.58.99,2.28,1.57,3.87,3.2,8.63,4.39,13.27,5.61,3.16.83,6.48,1.74,9.87.8.66-.18,1.42-.09,2.13-.04,2.72.18,5.4-.2,8.09-.47,3.51-.35,7.49-4.05,8.65-7.42,1.61-4.7.02-8.14-3.68-10.98-.27-.21-.46-.54-.68-.81,5.34-.17,9.45,2.26,12.9,6.09.84.93,1.29,2.09,1.56,3.25.91,3.9.74,7.81-.49,11.63-.82,2.55-2.8,4.05-5.07,5.25-2.14,1.13-4.48,1.38-6.83,1.56-13.4,1-26.82,1.25-40.24,1.3-13.64.05-27.28.02-40.92.37-7.86.2-15.71-.14-23.56-.32-8.57-.19-17.13.26-25.69.66-10.63.5-21.27.76-31.91.84-1.78.01-3.57-.14-5.35-.27-3.45-.26-6.51-1.59-9.24-3.63-3.53-2.63-4.88-6.85-3.59-11.07.91-2.96,2.37-5.64,4.44-7.96Z"/>
      <path class="cls-3" d="M118.9,12.49c-.4.5-.85.34-1.35.16-1.68-.58-3.39-1.09-5.06-1.69-3.95-1.44-8.01-2.45-12.08-3.46-.71-.18-1.41-.16-2.12-.17-1.14-.03-2.27.08-3.38-.32-.39-.14-.88-.18-1.27-.07-2.92.84-5.94.17-8.91.71-2.07.38-4.21.38-6.31.79-3.23.64-6.27,1.86-9.36,2.89-3.37,1.12-6.72,2.34-9.97,3.77-4.69,2.05-9.34,4.19-13.5,7.25-1.22.9-2.16,2.07-3.26,3.08-.57.52-1.01,1.24-1.94,1.15-.04-1.15.75-1.96,1.21-2.9,2.18-4.52,4.91-8.66,8.34-12.36,3.65-3.93,8.03-6.59,13.12-8.11C73.81-.04,84.78-.88,95.85.96c6.99,1.16,13.78,3.12,19.52,7.62,1.41,1.1,2.8,2.21,3.53,3.92Z"/>
      <path class="cls-7" d="M169.04,24.04c-.24.38-.56.36-.91.17-4.09-2.27-8.63-3.17-13.12-4.19-2.72-.62-5.25-1.74-7.86-2.66-3.36-1.19-6.83-1.96-10.3-2.59-2.2-.4-4.51-.52-6.77-.54-2.51-.02-4.91-.66-7.35-1-.48-.07-.94-.32-1.25-.76h0c.37-.37.95-.04,1.32-.4,12.56-3.52,24.63-2.71,36.03,4.07,3.01,1.79,5.76,3.92,8.51,6.08.68.53.94,1.4,1.7,1.82Z"/>
      <path class="cls-8" d="M35.25,29.16c.99.04,1.98.07,2.97.12.11,0,.2.17.38.33-.47,1.49-1.79,1.84-3.09,2.1-1.73.35-3.46.72-5.21.84-1.96.14-3.74.85-5.5,1.54-3.29,1.29-6.76,2.15-9.91,3.8-.55.29-1.08.4-1.46-.27,6.17-3.69,12.5-7.02,19.71-8.24.7-.12,1.41-.16,2.11-.23Z"/>
      <path class="cls-2" d="M122.8,12.06c-.34.46-.82.48-1.32.4.37-.37.82-.46,1.32-.4Z"/>
    </g>
  </g>
</svg>